Karantina-Regular.ufo
<glyph name="exclam" format="2">
  <advance width="133"/>
  <unicode hex="0021"/>
  <note>
exclam
</note>
  <outline>
    <contour>
      <point x="20" y="93" type="line"/>
      <point x="20" y="0" type="line"/>
      <point x="113" y="0" type="line"/>
      <point x="113" y="93" type="line"/>
    </contour>
    <contour>
      <point x="20" y="600" type="line"/>
      <point x="20" y="128" type="line"/>
      <point x="113" y="128" type="line"/>
      <point x="113" y="600" type="line"/>
    </contour>
  </outline>
</glyph>
<glyph name="quotedbl" format="2">
  <advance width="248"/>
  <unicode hex="0022"/>
  <note>
quotedbl
</note>
  <outline>
    <contour>
      <point x="38" y="657" type="line"/>
      <point x="0" y="474" type="line"/>
      <point x="90" y="474" type="line"/>
      <point x="128" y="657" type="line"/>
    </contour>
    <contour>
      <point x="158" y="657" type="line"/>
      <point x="120" y="474" type="line"/>
      <point x="210" y="474" type="line"/>
      <point x="248" y="657" type="line"/>
    </contour>
  </outline>
</glyph>
<glyph name="numbersign" format="2">
  <advance width="450"/>
  <unicode hex="0023"/>
  <note>
numbersign
</note>
  <outline>
    <contour>
      <point x="20" y="153" type="line"/>
      <point x="410" y="153" type="line"/>
      <point x="410" y="246" type="line"/>
      <point x="20" y="246" type="line"/>
    </contour>
    <contour>
      <point x="40" y="341" type="line"/>
      <point x="430" y="341" type="line"/>
      <point x="430" y="434" type="line"/>
      <point x="40" y="434" type="line"/>
    </contour>
    <contour>
      <point x="84" y="0" type="line"/>
      <point x="176" y="0" type="line"/>
      <point x="216" y="600" type="line"/>
      <point x="123" y="600" type="line"/>
    </contour>
    <contour>
      <point x="243" y="0" type="line"/>
      <point x="335" y="0" type="line"/>
      <point x="375" y="600" type="line"/>
      <point x="282" y="600" type="line"/>
    </contour>
  </outline>
</glyph>
<glyph name="dollar" format="2">
  <advance width="322"/>
  <unicode hex="0024"/>
  <note>
dollar
</note>
  <outline>
    <contour>
      <point x="117" y="640" type="line"/>
      <point x="117" y="557" type="line"/>
      <point x="210" y="557" type="line"/>
      <point x="210" y="640" type="line"/>
    </contour>
    <contour>
      <point x="112" y="-40" type="line"/>
      <point x="205" y="-40" type="line"/>
      <point x="205" y="43" type="line"/>
      <point x="112" y="43" type="line"/>
    </contour>
    <contour>
      <point x="297" y="600" type="line"/>
      <point x="114" y="600" type="line" smooth="yes"/>
      <point x="59" y="600"/>
      <point x="20" y="561"/>
      <point x="20" y="507" type="curve" smooth="yes"/>
      <point x="20" y="366" type="line" smooth="yes"/>
      <point x="20" y="308"/>
      <point x="50" y="273"/>
      <point x="103" y="273" type="curve" smooth="yes"/>
      <point x="204" y="273" type="line" smooth="yes"/>
      <point x="208" y="273"/>
      <point x="209" y="272"/>
      <point x="209" y="268" type="curve" smooth="yes"/>
      <point x="208" y="98" type="line" smooth="yes"/>
      <point x="208" y="94"/>
      <point x="207" y="93"/>
      <point x="203" y="93" type="curve" smooth="yes"/>
      <point x="114" y="93" type="line" smooth="yes"/>
      <point x="110" y="93"/>
      <point x="109" y="94"/>
      <point x="109" y="98" type="curve" smooth="yes"/>
      <point x="109" y="211" type="line"/>
      <point x="25" y="211" type="line"/>
      <point x="25" y="0" type="line"/>
      <point x="208" y="0" type="line" smooth="yes"/>
      <point x="262" y="0"/>
      <point x="302" y="39"/>
      <point x="302" y="93" type="curve" smooth="yes"/>
      <point x="302" y="273" type="line" smooth="yes"/>
      <point x="302" y="329"/>
      <point x="267" y="366"/>
      <point x="208" y="366" type="curve" smooth="yes"/>
      <point x="119" y="366" type="line" smooth="yes"/>
      <point x="115" y="366"/>
      <point x="114" y="367"/>
      <point x="114" y="371" type="curve" smooth="yes"/>
      <point x="114" y="502" type="line" smooth="yes"/>
      <point x="114" y="506"/>
      <point x="115" y="507"/>
      <point x="119" y="507" type="curve" smooth="yes"/>
      <point x="208" y="507" type="line" smooth="yes"/>
      <point x="212" y="507"/>
      <point x="213" y="506"/>
      <point x="213" y="502" type="curve" smooth="yes"/>
      <point x="213" y="420" type="line"/>
      <point x="297" y="420" type="line"/>
    </contour>
  </outline>
</glyph>
<glyph name="percent" format="2">
  <advance width="520"/>
  <unicode hex="0025"/>
  <note>
percent
</note>
  <outline>
    <contour>
      <point x="20" y="0" type="line"/>
      <point x="123" y="0" type="line"/>
      <point x="500" y="600" type="line"/>
      <point x="396" y="600" type="line"/>
    </contour>
    <contour>
      <point x="257" y="549" type="line" smooth="yes"/>
      <point x="257" y="582"/>
      <point x="217" y="605"/>
      <point x="163" y="605" type="curve" smooth="yes"/>
      <point x="114" y="605" type="line" smooth="yes"/>
      <point x="59" y="605"/>
      <point x="20" y="581"/>
      <point x="20" y="549" type="curve" smooth="yes"/>
      <point x="20" y="434" type="line" smooth="yes"/>
      <point x="20" y="401"/>
      <point x="59" y="378"/>
      <point x="114" y="378" type="curve" smooth="yes"/>
      <point x="163" y="378" type="line" smooth="yes"/>
      <point x="218" y="378"/>
      <point x="257" y="401"/>
      <point x="257" y="434" type="curve" smooth="yes"/>
    </contour>
    <contour>
      <point x="118" y="434" type="line" smooth="yes"/>
      <point x="114" y="434"/>
      <point x="113" y="435"/>
      <point x="113" y="439" type="curve" smooth="yes"/>
      <point x="113" y="544" type="line" smooth="yes"/>
      <point x="113" y="548"/>
      <point x="114" y="549"/>
      <point x="117" y="549" type="curve" smooth="yes"/>
      <point x="159" y="549" type="line" smooth="yes"/>
      <point x="163" y="549"/>
      <point x="164" y="548"/>
      <point x="164" y="544" type="curve" smooth="yes"/>
      <point x="164" y="439" type="line" smooth="yes"/>
      <point x="164" y="435"/>
      <point x="163" y="434"/>
      <point x="159" y="434" type="curve" smooth="yes"/>
    </contour>
    <contour>
      <point x="500" y="171" type="line" smooth="yes"/>
      <point x="500" y="204"/>
      <point x="460" y="227"/>
      <point x="406" y="227" type="curve" smooth="yes"/>
      <point x="357" y="227" type="line" smooth="yes"/>
      <point x="302" y="227"/>
      <point x="263" y="203"/>
      <point x="263" y="171" type="curve" smooth="yes"/>
      <point x="263" y="56" type="line" smooth="yes"/>
      <point x="263" y="23"/>
      <point x="302" y="0"/>
      <point x="357" y="0" type="curve" smooth="yes"/>
      <point x="406" y="0" type="line" smooth="yes"/>
      <point x="461" y="0"/>
      <point x="500" y="23"/>
      <point x="500" y="56" type="curve" smooth="yes"/>
    </contour>
    <contour>
      <point x="361" y="56" type="line" smooth="yes"/>
      <point x="357" y="56"/>
      <point x="356" y="57"/>
      <point x="356" y="61" type="curve" smooth="yes"/>
      <point x="356" y="166" type="line" smooth="yes"/>
      <point x="356" y="170"/>
      <point x="357" y="171"/>
      <point x="360" y="171" type="curve" smooth="yes"/>
      <point x="402" y="171" type="line" smooth="yes"/>
      <point x="406" y="171"/>
      <point x="407" y="170"/>
      <point x="407" y="166" type="curve" smooth="yes"/>
      <point x="407" y="61" type="line" smooth="yes"/>
      <point x="407" y="57"/>
      <point x="406" y="56"/>
      <point x="402" y="56" type="curve" smooth="yes"/>
    </contour>
  </outline>
</glyph>
<glyph name="ampersand" format="2">
  <advance width="328"/>
  <unicode hex="0026"/>
  <outline>
    <contour>
      <point x="281" y="319" type="line"/>
      <point x="192" y="319" type="line"/>
      <point x="151" y="98" type="line" smooth="yes"/>
      <point x="150" y="94"/>
      <point x="148" y="93"/>
      <point x="145" y="93" type="curve" smooth="yes"/>
      <point x="118" y="93" type="line" smooth="yes"/>
      <point x="114" y="93"/>
      <point x="113" y="94"/>
      <point x="113" y="98" type="curve" smooth="yes"/>
      <point x="113" y="255" type="line" smooth="yes"/>
      <point x="113" y="259"/>
      <point x="114" y="260"/>
      <point x="118" y="260" type="curve" smooth="yes"/>
      <point x="139" y="260" type="line"/>
      <point x="139" y="353" type="line"/>
      <point x="114" y="353" type="line" smooth="yes"/>
      <point x="58" y="353"/>
      <point x="18" y="314"/>
      <point x="20" y="260" type="curve" smooth="yes"/>
      <point x="20" y="93" type="line" smooth="yes"/>
      <point x="20" y="39"/>
      <point x="59" y="0"/>
      <point x="114" y="0" type="curve" smooth="yes"/>
      <point x="141" y="0" type="line" smooth="yes"/>
      <point x="196" y="0"/>
      <point x="238" y="39"/>
      <point x="238" y="93" type="curve"/>
    </contour>
    <contour>
      <point x="255" y="363" type="line"/>
      <point x="255" y="507" type="line" smooth="yes"/>
      <point x="254" y="561"/>
      <point x="215" y="600"/>
      <point x="161" y="600" type="curve" smooth="yes"/>
      <point x="111" y="600" type="line" smooth="yes"/>
      <point x="62" y="600"/>
      <point x="29" y="556.983"/>
      <point x="29" y="507" type="curve" smooth="yes"/>
      <point x="29" y="422" type="line" smooth="yes"/>
      <point x="29" y="404"/>
      <point x="31" y="395"/>
      <point x="39" y="379" type="curve" smooth="yes"/>
      <point x="101" y="254"/>
      <point x="163" y="126"/>
      <point x="225" y="0" type="curve"/>
      <point x="318" y="0" type="line"/>
      <point x="122" y="401" type="line"/>
      <point x="122" y="502" type="line" smooth="yes"/>
      <point x="122" y="506"/>
      <point x="123" y="507"/>
      <point x="127" y="507" type="curve" smooth="yes"/>
      <point x="157" y="507" type="line" smooth="yes"/>
      <point x="161" y="507"/>
      <point x="162" y="506"/>
      <point x="162" y="502" type="curve" smooth="yes"/>
      <point x="162" y="363" type="line"/>
    </contour>
  </outline>
</glyph>
<glyph name="quotesingle" format="2">
  <advance width="123"/>
  <unicode hex="0027"/>
  <note>
quotesingle
</note>
  <outline>
    <contour>
      <point x="33" y="657" type="line"/>
      <point x="0" y="494" type="line"/>
      <point x="90" y="494" type="line"/>
      <point x="123" y="657" type="line"/>
    </contour>
  </outline>
</glyph>
<glyph name="parenleft" format="2">
  <advance width="166"/>
  <unicode hex="0028"/>
  <note>
parenleft
</note>
  <outline>
    <contour>
      <point x="166" y="713" type="line"/>
      <point x="114" y="713" type="line" smooth="yes"/>
      <point x="59" y="713"/>
      <point x="20" y="674"/>
      <point x="20" y="620" type="curve" smooth="yes"/>
      <point x="20" y="286" type="line"/>
      <point x="113" y="286" type="line"/>
      <point x="113" y="635" type="line" smooth="yes"/>
      <point x="113" y="639"/>
      <point x="114" y="640"/>
      <point x="118" y="640" type="curve" smooth="yes"/>
      <point x="166" y="640" type="line"/>
    </contour>
    <contour>
      <point x="166" y="-37" type="line"/>
      <point x="118" y="-37" type="line" smooth="yes"/>
      <point x="114" y="-37"/>
      <point x="113" y="-36"/>
      <point x="113" y="-32" type="curve" smooth="yes"/>
      <point x="113" y="286" type="line"/>
      <point x="20" y="286" type="line"/>
      <point x="20" y="-17" type="line" smooth="yes"/>
      <point x="20" y="-71"/>
      <point x="59" y="-110"/>
      <point x="114" y="-110" type="curve" smooth="yes"/>
      <point x="166" y="-110" type="line"/>
    </contour>
  </outline>
</glyph>
<glyph name="parenright" format="2">
  <advance width="166"/>
  <unicode hex="0029"/>
  <note>
parenright
</note>
  <outline>
    <contour>
      <point x="20" y="713" type="line"/>
      <point x="20" y="640" type="line"/>
      <point x="68" y="640" type="line" smooth="yes"/>
      <point x="72" y="640"/>
      <point x="73" y="639"/>
      <point x="73" y="635" type="curve" smooth="yes"/>
      <point x="73" y="286" type="line"/>
      <point x="166" y="286" type="line"/>
      <point x="166" y="620" type="line" smooth="yes"/>
      <point x="166" y="674"/>
      <point x="127" y="713"/>
      <point x="72" y="713" type="curve" smooth="yes"/>
    </contour>
    <contour>
      <point x="20" y="-37" type="line"/>
      <point x="20" y="-110" type="line"/>
      <point x="72" y="-110" type="line" smooth="yes"/>
      <point x="127" y="-110"/>
      <point x="166" y="-71"/>
      <point x="166" y="-17" type="curve" smooth="yes"/>
      <point x="166" y="286" type="line"/>
      <point x="73" y="286" type="line"/>
      <point x="73" y="-32" type="line" smooth="yes"/>
      <point x="73" y="-36"/>
      <point x="72" y="-37"/>
      <point x="68" y="-37" type="curve" smooth="yes"/>
    </contour>
  </outline>
</glyph>
<glyph name="asterisk" format="2">
  <advance width="283"/>
  <unicode hex="002A"/>
  <note>
asterisk
</note>
  <outline>
    <contour>
      <point x="103" y="600" type="line"/>
      <point x="104" y="321" type="line"/>
      <point x="180" y="321" type="line"/>
      <point x="179" y="600" type="line"/>
    </contour>
    <contour>
      <point x="243" y="564" type="line"/>
      <point x="2" y="423" type="line"/>
      <point x="40" y="357" type="line"/>
      <point x="281" y="498" type="line"/>
    </contour>
    <contour>
      <point x="40" y="564" type="line"/>
      <point x="2" y="498" type="line"/>
      <point x="243" y="357" type="line"/>
      <point x="281" y="423" type="line"/>
    </contour>
  </outline>
</glyph>
<glyph name="plus" format="2">
  <advance width="320"/>
  <unicode hex="002B"/>
  <note>
plus
</note>
  <outline>
    <contour>
      <point x="300" y="349" type="line"/>
      <point x="20" y="349" type="line"/>
      <point x="20" y="254" type="line"/>
      <point x="300" y="254" type="line"/>
    </contour>
    <contour>
      <point x="114" y="441" type="line"/>
      <point x="114" y="161" type="line"/>
      <point x="206" y="161" type="line"/>
      <point x="206" y="441" type="line"/>
    </contour>
  </outline>
</glyph>
<glyph name="comma" format="2">
  <advance width="152"/>
  <unicode hex="002C"/>
  <note>
comma
</note>
  <outline>
    <contour>
      <point x="52" y="93" type="line"/>
      <point x="20" y="-63" type="line"/>
      <point x="110" y="-63" type="line"/>
      <point x="142" y="93" type="line"/>
    </contour>
  </outline>
</glyph>
<glyph name="hyphen" format="2">
  <advance width="230"/>
  <unicode hex="002D"/>
  <note>
hyphen
</note>
  <outline>
    <contour>
      <point x="210" y="349" type="line"/>
      <point x="20" y="349" type="line"/>
      <point x="20" y="254" type="line"/>
      <point x="210" y="254" type="line"/>
    </contour>
  </outline>
</glyph>
<glyph name="period" format="2">
  <advance width="133"/>
  <unicode hex="002E"/>
  <note>
period
</note>
  <outline>
    <contour>
      <point x="20" y="93" type="line"/>
      <point x="20" y="0" type="line"/>
      <point x="113" y="0" type="line"/>
      <point x="113" y="93" type="line"/>
    </contour>
  </outline>
</glyph>
<glyph name="slash" format="2">
  <advance width="230"/>
  <unicode hex="002F"/>
  <note>
slash
</note>
  <outline>
    <contour>
      <point x="117" y="690" type="line"/>
      <point x="10" y="-67" type="line"/>
      <point x="113" y="-67" type="line"/>
      <point x="220" y="690" type="line"/>
    </contour>
  </outline>
</glyph>
<glyph name="one" format="2">
  <advance width="200"/>
  <unicode hex="0031"/>
  <note>
one
</note>
  <outline>
    <contour>
      <point x="56" y="600" type="line"/>
      <point x="56" y="0" type="line"/>
      <point x="151" y="0" type="line"/>
      <point x="151" y="600" type="line"/>
    </contour>
    <contour>
      <point x="180" y="93" type="line"/>
      <point x="22" y="93" type="line"/>
      <point x="22" y="0" type="line"/>
      <point x="180" y="0" type="line"/>
    </contour>
    <contour>
      <point x="151" y="600" type="line"/>
      <point x="40" y="600" type="line"/>
      <point x="20" y="507" type="line"/>
      <point x="151" y="507" type="line"/>
    </contour>
  </outline>
</glyph>
<glyph name="two" format="2">
  <advance width="267"/>
  <unicode hex="0032"/>
  <note>
two
</note>
  <outline>
    <contour>
      <point x="20" y="600" type="line"/>
      <point x="20" y="507" type="line"/>
      <point x="147" y="507" type="line" smooth="yes"/>
      <point x="151" y="507"/>
      <point x="152" y="506"/>
      <point x="152" y="502" type="curve" smooth="yes"/>
      <point x="152" y="415" type="line"/>
      <point x="247" y="415" type="line"/>
      <point x="247" y="507" type="line" smooth="yes"/>
      <point x="247" y="563"/>
      <point x="209" y="600"/>
      <point x="153" y="600" type="curve" smooth="yes"/>
    </contour>
    <contour>
      <point x="247" y="352" type="curve" smooth="yes"/>
      <point x="247" y="470" type="line"/>
      <point x="152" y="470" type="line"/>
      <point x="152" y="357" type="line" smooth="yes"/>
      <point x="152" y="353"/>
      <point x="151" y="352"/>
      <point x="147" y="352" type="curve" smooth="yes"/>
      <point x="110" y="352" type="line"/>
      <point x="110" y="259" type="line"/>
      <point x="153" y="259" type="line" smooth="yes"/>
      <point x="209" y="259"/>
      <point x="247" y="296"/>
    </contour>
    <contour>
      <point x="20" y="259" type="curve" smooth="yes"/>
      <point x="20" y="0" type="line"/>
      <point x="115" y="0" type="line"/>
      <point x="115" y="254" type="line" smooth="yes"/>
      <point x="115" y="258"/>
      <point x="116" y="259"/>
      <point x="120" y="259" type="curve" smooth="yes"/>
      <point x="127" y="259" type="line"/>
      <point x="127" y="352" type="line"/>
      <point x="114" y="352" type="line" smooth="yes"/>
      <point x="58" y="352"/>
      <point x="20" y="315"/>
    </contour>
    <contour>
      <point x="247" y="0" type="line"/>
      <point x="247" y="93" type="line"/>
      <point x="20" y="93" type="line"/>
      <point x="20" y="0" type="line"/>
    </contour>
  </outline>
</glyph>
<glyph name="three" format="2">
  <advance width="268"/>
  <unicode hex="0033"/>
  <note>
three
</note>
  <outline>
    <contour>
      <point x="248" y="352" type="line"/>
      <point x="49" y="352" type="line"/>
      <point x="49" y="259" type="line"/>
      <point x="248" y="259" type="line"/>
    </contour>
    <contour>
      <point x="21" y="600" type="line"/>
      <point x="21" y="507" type="line"/>
      <point x="148" y="507" type="line" smooth="yes"/>
      <point x="152" y="507"/>
      <point x="153" y="506"/>
      <point x="153" y="502" type="curve" smooth="yes"/>
      <point x="152" y="99" type="line" smooth="yes"/>
      <point x="152" y="95"/>
      <point x="151" y="94"/>
      <point x="147" y="94" type="curve" smooth="yes"/>
      <point x="20" y="94" type="line"/>
      <point x="20" y="1" type="line"/>
      <point x="153" y="1" type="line" smooth="yes"/>
      <point x="209" y="1"/>
      <point x="247" y="38"/>
      <point x="247" y="94" type="curve" smooth="yes"/>
      <point x="248" y="507" type="line" smooth="yes"/>
      <point x="248" y="563"/>
      <point x="210" y="600"/>
      <point x="154" y="600" type="curve" smooth="yes"/>
    </contour>
  </outline>
</glyph>
<glyph name="four" format="2">
  <advance width="347"/>
  <unicode hex="0034"/>
  <note>
four
</note>
  <outline>
    <contour>
      <point x="203" y="600" type="line"/>
      <point x="203" y="0" type="line"/>
      <point x="298" y="0" type="line"/>
      <point x="298" y="600" type="line"/>
    </contour>
    <contour>
      <point x="327" y="93" type="line"/>
      <point x="173" y="93" type="line"/>
      <point x="173" y="0" type="line"/>
      <point x="327" y="0" type="line"/>
    </contour>
    <contour>
      <point x="327" y="164" type="line"/>
      <point x="327" y="257" type="line"/>
      <point x="72" y="257" type="line"/>
      <point x="113" y="215" type="line"/>
      <point x="168" y="600" type="line"/>
      <point x="75" y="600" type="line"/>
      <point x="22" y="274" type="line" smooth="yes"/>
      <point x="11" y="208"/>
      <point x="48" y="164"/>
      <point x="115" y="164" type="curve" smooth="yes"/>
    </contour>
  </outline>
</glyph>
<glyph name="five" format="2">
  <advance width="267"/>
  <unicode hex="0035"/>
  <note>
five
</note>
  <outline>
    <contour>
      <point x="247" y="600" type="line"/>
      <point x="20" y="600" type="line"/>
      <point x="20" y="507" type="line"/>
      <point x="247" y="507" type="line"/>
    </contour>
    <contour>
      <point x="20" y="0" type="line"/>
      <point x="153" y="0" type="line" smooth="yes"/>
      <point x="209" y="0"/>
      <point x="247" y="37"/>
      <point x="247" y="93" type="curve" smooth="yes"/>
      <point x="247" y="197" type="line"/>
      <point x="152" y="197" type="line"/>
      <point x="152" y="98" type="line" smooth="yes"/>
      <point x="152" y="94"/>
      <point x="151" y="93"/>
      <point x="147" y="93" type="curve" smooth="yes"/>
      <point x="20" y="93" type="line"/>
    </contour>
    <contour>
      <point x="115" y="600" type="line"/>
      <point x="20" y="600" type="line"/>
      <point x="20" y="300" type="line"/>
      <point x="115" y="300" type="line"/>
    </contour>
    <contour>
      <point x="20" y="393" type="line"/>
      <point x="20" y="300" type="line"/>
      <point x="147" y="300" type="line" smooth="yes"/>
      <point x="151" y="300"/>
      <point x="152" y="299"/>
      <point x="152" y="295" type="curve" smooth="yes"/>
      <point x="152" y="197" type="line"/>
      <point x="247" y="197" type="line"/>
      <point x="247" y="300" type="line" smooth="yes"/>
      <point x="247" y="356"/>
      <point x="209" y="393"/>
      <point x="153" y="393" type="curve" smooth="yes"/>
    </contour>
  </outline>
</glyph>
<glyph name="six" format="2">
  <advance width="286"/>
  <unicode hex="0036"/>
  <note>
six
</note>
  <outline>
    <contour>
      <point x="177" y="1" type="line"/>
      <point x="177" y="94" type="line"/>
      <point x="120" y="94" type="line" smooth="yes"/>
      <point x="116" y="94"/>
      <point x="115" y="95"/>
      <point x="115" y="99" type="curve" smooth="yes"/>
      <point x="116" y="502" type="line" smooth="yes"/>
      <point x="116" y="506"/>
      <point x="117" y="507"/>
      <point x="121" y="507" type="curve" smooth="yes"/>
      <point x="148" y="507" type="line"/>
      <point x="148" y="600" type="line"/>
      <point x="115" y="600" type="line" smooth="yes"/>
      <point x="59" y="600"/>
      <point x="21" y="563"/>
      <point x="21" y="507" type="curve" smooth="yes"/>
      <point x="20" y="94" type="line" smooth="yes"/>
      <point x="20" y="38"/>
      <point x="58" y="1"/>
      <point x="114" y="1" type="curve" smooth="yes"/>
    </contour>
    <contour>
      <point x="119" y="1" type="line"/>
      <point x="172" y="1" type="line" smooth="yes"/>
      <point x="229" y="1"/>
      <point x="266" y="38"/>
      <point x="266" y="94" type="curve" smooth="yes"/>
      <point x="266" y="226" type="line"/>
      <point x="171" y="226" type="line"/>
      <point x="171" y="99" type="line" smooth="yes"/>
      <point x="171" y="95"/>
      <point x="170" y="94"/>
      <point x="166" y="94" type="curve" smooth="yes"/>
      <point x="119" y="94" type="line"/>
    </contour>
    <contour>
      <point x="143" y="394" type="line"/>
      <point x="143" y="301" type="line"/>
      <point x="166" y="301" type="line" smooth="yes"/>
      <point x="170" y="301"/>
      <point x="171" y="300"/>
      <point x="171" y="296" type="curve" smooth="yes"/>
      <point x="171" y="169" type="line"/>
      <point x="266" y="169" type="line"/>
      <point x="266" y="301" type="line" smooth="yes"/>
      <point x="266" y="357"/>
      <point x="229" y="394"/>
      <point x="172" y="394" type="curve" smooth="yes"/>
    </contour>
    <contour>
      <point x="266" y="412" type="line"/>
      <point x="266" y="507" type="line" smooth="yes"/>
      <point x="266" y="563"/>
      <point x="229" y="600"/>
      <point x="172" y="600" type="curve" smooth="yes"/>
      <point x="138" y="600" type="line"/>
      <point x="138" y="507" type="line"/>
      <point x="166" y="507" type="line" smooth="yes"/>
      <point x="170" y="507"/>
      <point x="171" y="506"/>
      <point x="171" y="502" type="curve" smooth="yes"/>
      <point x="171" y="422" type="line"/>
    </contour>
    <contour>
      <point x="143" y="394" type="line"/>
      <point x="114" y="394" type="line" smooth="yes"/>
      <point x="57" y="394"/>
      <point x="20" y="357"/>
      <point x="20" y="301" type="curve" smooth="yes"/>
      <point x="20" y="169" type="line"/>
      <point x="115" y="169" type="line"/>
      <point x="115" y="296" type="line" smooth="yes"/>
      <point x="115" y="300"/>
      <point x="116" y="301"/>
      <point x="120" y="301" type="curve" smooth="yes"/>
      <point x="143" y="301" type="line"/>
    </contour>
  </outline>
</glyph>
<glyph name="seven" format="2">
  <advance width="298"/>
  <unicode hex="0037"/>
  <note>
seven
</note>
  <outline>
    <contour>
      <point x="288" y="352" type="line"/>
      <point x="61" y="352" type="line"/>
      <point x="61" y="259" type="line"/>
      <point x="288" y="259" type="line"/>
    </contour>
    <contour>
      <point x="30" y="600" type="line"/>
      <point x="30" y="507" type="line"/>
      <point x="229" y="507" type="line"/>
      <point x="189" y="549" type="line"/>
      <point x="94" y="0" type="line"/>
      <point x="185" y="0" type="line"/>
      <point x="270" y="471" type="line" smooth="yes"/>
      <point x="284" y="549"/>
      <point x="251" y="600"/>
      <point x="186" y="600" type="curve" smooth="yes"/>
    </contour>
  </outline>
</glyph>
<glyph name="eight" format="2">
  <advance width="281"/>
  <unicode hex="0038"/>
  <note>
eight
</note>
  <outline>
    <contour>
      <point x="167" y="603" type="curve" smooth="yes"/>
      <point x="114" y="603" type="line" smooth="yes"/>
      <point x="58" y="604"/>
      <point x="20" y="564"/>
      <point x="20" y="510" type="curve" smooth="yes"/>
      <point x="20" y="392" type="line" smooth="yes"/>
      <point x="20" y="338"/>
      <point x="59" y="299"/>
      <point x="114" y="299" type="curve" smooth="yes"/>
      <point x="167" y="299" type="line" smooth="yes"/>
      <point x="222" y="299"/>
      <point x="261" y="338"/>
      <point x="261" y="392" type="curve" smooth="yes"/>
      <point x="261" y="510" type="line" smooth="yes"/>
      <point x="261" y="564"/>
      <point x="222" y="603"/>
    </contour>
    <contour>
      <point x="113" y="397" type="curve" smooth="yes"/>
      <point x="115" y="505" type="line" smooth="yes"/>
      <point x="115" y="509"/>
      <point x="116" y="510"/>
      <point x="120" y="510" type="curve" smooth="yes"/>
      <point x="165" y="510" type="line" smooth="yes"/>
      <point x="169" y="510"/>
      <point x="170" y="509"/>
      <point x="170" y="505" type="curve" smooth="yes"/>
      <point x="170" y="397" type="line" smooth="yes"/>
      <point x="170" y="393"/>
      <point x="169" y="392"/>
      <point x="165" y="392" type="curve" smooth="yes"/>
      <point x="118" y="392" type="line" smooth="yes"/>
      <point x="114" y="392"/>
      <point x="113" y="393"/>
    </contour>
    <contour>
      <point x="167" y="392" type="curve" smooth="yes"/>
      <point x="114" y="392" type="line" smooth="yes"/>
      <point x="58" y="392"/>
      <point x="20" y="353"/>
      <point x="20" y="299" type="curve" smooth="yes"/>
      <point x="20" y="93" type="line" smooth="yes"/>
      <point x="20" y="39"/>
      <point x="59" y="0"/>
      <point x="114" y="0" type="curve" smooth="yes"/>
      <point x="167" y="0" type="line" smooth="yes"/>
      <point x="222" y="0"/>
      <point x="261" y="39"/>
      <point x="261" y="93" type="curve" smooth="yes"/>
      <point x="261" y="299" type="line" smooth="yes"/>
      <point x="261" y="353"/>
      <point x="222" y="392"/>
    </contour>
    <contour>
      <point x="113" y="98" type="curve" smooth="yes"/>
      <point x="115" y="294" type="line" smooth="yes"/>
      <point x="115" y="298"/>
      <point x="116" y="299"/>
      <point x="120" y="299" type="curve" smooth="yes"/>
      <point x="165" y="299" type="line" smooth="yes"/>
      <point x="169" y="299"/>
      <point x="170" y="298"/>
      <point x="170" y="294" type="curve" smooth="yes"/>
      <point x="170" y="98" type="line" smooth="yes"/>
      <point x="170" y="94"/>
      <point x="169" y="93"/>
      <point x="165" y="93" type="curve" smooth="yes"/>
      <point x="118" y="93" type="line" smooth="yes"/>
      <point x="114" y="93"/>
      <point x="113" y="94"/>
    </contour>
  </outline>
</glyph>
<glyph name="nine" format="2">
  <advance width="286"/>
  <unicode hex="0039"/>
  <note>
nine
</note>
  <outline>
    <contour>
      <point x="109" y="600" type="line"/>
      <point x="109" y="507" type="line"/>
      <point x="166" y="507" type="line" smooth="yes"/>
      <point x="170" y="507"/>
      <point x="171" y="506"/>
      <point x="171" y="502" type="curve" smooth="yes"/>
      <point x="170" y="99" type="line" smooth="yes"/>
      <point x="170" y="95"/>
      <point x="169" y="94"/>
      <point x="165" y="94" type="curve" smooth="yes"/>
      <point x="138" y="94" type="line"/>
      <point x="138" y="1" type="line"/>
      <point x="171" y="1" type="line" smooth="yes"/>
      <point x="227" y="1"/>
      <point x="265" y="38"/>
      <point x="265" y="94" type="curve" smooth="yes"/>
      <point x="266" y="507" type="line" smooth="yes"/>
      <point x="266" y="563"/>
      <point x="228" y="600"/>
      <point x="172" y="600" type="curve" smooth="yes"/>
    </contour>
    <contour>
      <point x="167" y="600" type="line"/>
      <point x="114" y="600" type="line" smooth="yes"/>
      <point x="57" y="600"/>
      <point x="20" y="563"/>
      <point x="20" y="507" type="curve" smooth="yes"/>
      <point x="20" y="375" type="line"/>
      <point x="115" y="375" type="line"/>
      <point x="115" y="502" type="line" smooth="yes"/>
      <point x="115" y="506"/>
      <point x="116" y="507"/>
      <point x="120" y="507" type="curve" smooth="yes"/>
      <point x="167" y="507" type="line"/>
    </contour>
    <contour>
      <point x="143" y="207" type="line"/>
      <point x="143" y="300" type="line"/>
      <point x="120" y="300" type="line" smooth="yes"/>
      <point x="116" y="300"/>
      <point x="115" y="301"/>
      <point x="115" y="305" type="curve" smooth="yes"/>
      <point x="115" y="432" type="line"/>
      <point x="20" y="432" type="line"/>
      <point x="20" y="300" type="line" smooth="yes"/>
      <point x="20" y="244"/>
      <point x="57" y="207"/>
      <point x="114" y="207" type="curve" smooth="yes"/>
    </contour>
    <contour>
      <point x="20" y="189" type="line"/>
      <point x="20" y="94" type="line" smooth="yes"/>
      <point x="20" y="38"/>
      <point x="57" y="1"/>
      <point x="114" y="1" type="curve" smooth="yes"/>
      <point x="148" y="1" type="line"/>
      <point x="148" y="94" type="line"/>
      <point x="120" y="94" type="line" smooth="yes"/>
      <point x="116" y="94"/>
      <point x="115" y="95"/>
      <point x="115" y="99" type="curve" smooth="yes"/>
      <point x="115" y="179" type="line"/>
    </contour>
    <contour>
      <point x="143" y="207" type="line"/>
      <point x="172" y="207" type="line" smooth="yes"/>
      <point x="229" y="207"/>
      <point x="266" y="244"/>
      <point x="266" y="300" type="curve" smooth="yes"/>
      <point x="266" y="432" type="line"/>
      <point x="171" y="432" type="line"/>
      <point x="171" y="305" type="line" smooth="yes"/>
      <point x="171" y="301"/>
      <point x="170" y="300"/>
      <point x="166" y="300" type="curve" smooth="yes"/>
      <point x="143" y="300" type="line"/>
    </contour>
  </outline>
</glyph>
<glyph name="colon" format="2">
  <advance width="133"/>
  <unicode hex="003A"/>
  <note>
colon
</note>
  <outline>
    <contour>
      <point x="20" y="226" type="line"/>
      <point x="20" y="133" type="line"/>
      <point x="113" y="133" type="line"/>
      <point x="113" y="226" type="line"/>
    </contour>
    <contour>
      <point x="20" y="467" type="line"/>
      <point x="20" y="374" type="line"/>
      <point x="113" y="374" type="line"/>
      <point x="113" y="467" type="line"/>
    </contour>
  </outline>
</glyph>
<glyph name="semicolon" format="2">
  <advance width="162"/>
  <unicode hex="003B"/>
  <note>
semicolon
</note>
  <outline>
    <contour>
      <point x="49" y="467" type="line"/>
      <point x="49" y="374" type="line"/>
      <point x="142" y="374" type="line"/>
      <point x="142" y="467" type="line"/>
    </contour>
    <contour>
      <point x="52" y="226" type="line"/>
      <point x="20" y="70" type="line"/>
      <point x="110" y="70" type="line"/>
      <point x="142" y="226" type="line"/>
    </contour>
  </outline>
</glyph>
<glyph name="less" format="2">
  <advance width="280"/>
  <unicode hex="003C"/>
  <outline>
    <contour>
      <point x="260" y="155" type="line"/>
      <point x="260" y="250" type="line"/>
      <point x="85" y="325" type="line"/>
      <point x="85" y="273" type="line"/>
      <point x="260" y="348" type="line"/>
      <point x="260" y="443" type="line"/>
      <point x="20" y="340" type="line"/>
      <point x="20" y="258" type="line"/>
    </contour>
  </outline>
</glyph>
<glyph name="equal" format="2">
  <advance width="280"/>
  <unicode hex="003D"/>
  <note>
equal
</note>
  <outline>
    <contour>
      <point x="260" y="409" type="line"/>
      <point x="20" y="409" type="line"/>
      <point x="20" y="314" type="line"/>
      <point x="260" y="314" type="line"/>
    </contour>
    <contour>
      <point x="260" y="290" type="line"/>
      <point x="20" y="290" type="line"/>
      <point x="20" y="195" type="line"/>
      <point x="260" y="195" type="line"/>
    </contour>
  </outline>
</glyph>
<glyph name="greater" format="2">
  <advance width="280"/>
  <unicode hex="003E"/>
  <note>
greater
</note>
  <outline>
    <contour>
      <point x="20" y="155" type="line"/>
      <point x="260" y="258" type="line"/>
      <point x="260" y="340" type="line"/>
      <point x="20" y="443" type="line"/>
      <point x="20" y="348" type="line"/>
      <point x="195" y="273" type="line"/>
      <point x="195" y="325" type="line"/>
      <point x="20" y="250" type="line"/>
    </contour>
  </outline>
</glyph>
<glyph name="question" format="2">
  <advance width="266"/>
  <unicode hex="003F"/>
  <note>
question
</note>
  <outline>
    <contour>
      <point x="113" y="400" type="line"/>
      <point x="113" y="549" type="line"/>
      <point x="71" y="507" type="line"/>
      <point x="147" y="507" type="line" smooth="yes"/>
      <point x="151" y="507"/>
      <point x="152" y="506"/>
      <point x="152" y="502" type="curve" smooth="yes"/>
      <point x="152" y="370" type="line"/>
      <point x="246" y="370" type="line"/>
      <point x="246" y="507" type="line" smooth="yes"/>
      <point x="246" y="561"/>
      <point x="206" y="600"/>
      <point x="152" y="600" type="curve" smooth="yes"/>
      <point x="20" y="600" type="line"/>
      <point x="20" y="400" type="line"/>
    </contour>
    <contour>
      <point x="67" y="0" type="line"/>
      <point x="160" y="0" type="line"/>
      <point x="160" y="93" type="line"/>
      <point x="67" y="93" type="line"/>
    </contour>
    <contour>
      <point x="246" y="351" type="curve" smooth="yes"/>
      <point x="246" y="407" type="line"/>
      <point x="152" y="407" type="line"/>
      <point x="152" y="355" type="line" smooth="yes"/>
      <point x="152" y="351"/>
      <point x="151" y="350"/>
      <point x="148" y="350" type="curve" smooth="yes"/>
      <point x="97" y="350"/>
      <point x="65" y="315"/>
      <point x="65" y="258" type="curve" smooth="yes"/>
      <point x="65" y="136" type="line"/>
      <point x="158" y="136" type="line"/>
      <point x="158" y="254" type="line" smooth="yes"/>
      <point x="158" y="257"/>
      <point x="159" y="258"/>
      <point x="162" y="258" type="curve" smooth="yes"/>
      <point x="213" y="258"/>
      <point x="246" y="295"/>
    </contour>
  </outline>
</glyph>
<glyph name="at" format="2">
  <advance width="558"/>
  <unicode hex="0040"/>
  <note>
at
</note>
  <outline>
    <contour>
      <point x="445" y="369" type="line"/>
      <point x="538" y="369" type="line"/>
      <point x="538" y="530" type="line" smooth="yes"/>
      <point x="538" y="586"/>
      <point x="500" y="623"/>
      <point x="444" y="623" type="curve" smooth="yes"/>
      <point x="114" y="623" type="line" smooth="yes"/>
      <point x="58" y="623"/>
      <point x="20" y="591"/>
      <point x="20" y="543" type="curve" smooth="yes"/>
      <point x="20" y="80" type="line" smooth="yes"/>
      <point x="20" y="32"/>
      <point x="58" y="0"/>
      <point x="114" y="0" type="curve" smooth="yes"/>
      <point x="444" y="0" type="line" smooth="yes"/>
      <point x="500" y="0"/>
      <point x="538" y="37"/>
      <point x="538" y="93" type="curve" smooth="yes"/>
      <point x="538" y="161" type="line"/>
      <point x="445" y="161" type="line"/>
      <point x="445" y="98" type="line" smooth="yes"/>
      <point x="445" y="94"/>
      <point x="444" y="93"/>
      <point x="440" y="93" type="curve" smooth="yes"/>
      <point x="118" y="93" type="line" smooth="yes"/>
      <point x="114" y="93"/>
      <point x="113" y="94"/>
      <point x="113" y="98" type="curve" smooth="yes"/>
      <point x="113" y="525" type="line" smooth="yes"/>
      <point x="113" y="529"/>
      <point x="114" y="530"/>
      <point x="118" y="530" type="curve" smooth="yes"/>
      <point x="440" y="530" type="line" smooth="yes"/>
      <point x="444" y="530"/>
      <point x="445" y="529"/>
      <point x="445" y="525" type="curve" smooth="yes"/>
    </contour>
    <contour>
      <point x="366" y="283" type="line"/>
      <point x="426" y="190" type="line"/>
      <point x="437" y="190" type="line" smooth="yes"/>
      <point x="498" y="190"/>
      <point x="538" y="229"/>
      <point x="538" y="283" type="curve" smooth="yes"/>
      <point x="538" y="448" type="line"/>
      <point x="445" y="448" type="line"/>
      <point x="445" y="288" type="line" smooth="yes"/>
      <point x="445" y="284"/>
      <point x="444" y="283"/>
      <point x="440" y="283" type="curve" smooth="yes"/>
    </contour>
    <contour>
      <point x="347" y="393" type="line"/>
      <point x="347" y="447"/>
      <point x="311" y="486"/>
      <point x="256" y="486" type="curve" smooth="yes"/>
      <point x="193" y="486"/>
      <point x="153" y="447"/>
      <point x="153" y="393" type="curve" smooth="yes"/>
      <point x="153" y="269" type="line"/>
      <point x="248" y="269" type="line"/>
      <point x="248" y="388" type="line" smooth="yes"/>
      <point x="248" y="392"/>
      <point x="249" y="393"/>
      <point x="253" y="393" type="curve" smooth="yes"/>
    </contour>
    <contour>
      <point x="153" y="279" type="line"/>
      <point x="153" y="230" type="line" smooth="yes"/>
      <point x="153" y="176"/>
      <point x="193" y="137"/>
      <point x="254" y="137" type="curve" smooth="yes"/>
      <point x="281" y="137" type="line"/>
      <point x="341" y="230" type="line"/>
      <point x="253" y="230" type="line" smooth="yes"/>
      <point x="249" y="230"/>
      <point x="248" y="231"/>
      <point x="248" y="235" type="curve" smooth="yes"/>
      <point x="248" y="279" type="line"/>
    </contour>
    <contour>
      <point x="306" y="486" type="line"/>
      <point x="306" y="137" type="line"/>
      <point x="401" y="137" type="line"/>
      <point x="401" y="486" type="line"/>
    </contour>
  </outline>
</glyph>
<glyph name="A" format="2">
  <advance width="311"/>
  <unicode hex="0041"/>
  <anchor x="156" y="0" name="bottom"/>
  <anchor x="280" y="10" name="ogonek"/>
  <anchor x="156" y="700" name="top"/>
  <outline>
    <contour>
      <point x="206" y="0" type="line"/>
      <point x="301" y="0" type="line"/>
      <point x="239" y="700" type="line"/>
      <point x="143" y="700" type="line"/>
    </contour>
    <contour>
      <point x="105" y="0" type="line"/>
      <point x="168" y="700" type="line"/>
      <point x="72" y="700" type="line"/>
      <point x="10" y="0" type="line"/>
    </contour>
    <contour>
      <point x="270" y="213" type="line"/>
      <point x="41" y="213" type="line"/>
      <point x="41" y="120" type="line"/>
      <point x="270" y="120" type="line"/>
    </contour>
    <contour>
      <point x="239" y="700" type="line"/>
      <point x="56" y="700" type="line"/>
      <point x="46" y="607" type="line"/>
      <point x="239" y="607" type="line"/>
    </contour>
  </outline>
</glyph>
<glyph name="B" format="2">
  <advance width="307"/>
  <unicode hex="0042"/>
  <anchor x="154" y="-7" name="bottom"/>
  <anchor x="134" y="700" name="top"/>
  <outline>
    <contour>
      <point x="20" y="-7" type="line"/>
      <point x="115" y="-7" type="line"/>
      <point x="115" y="700" type="line"/>
      <point x="20" y="700" type="line"/>
    </contour>
    <contour>
      <point x="21" y="-7" type="line"/>
      <point x="182" y="-7" type="line" smooth="yes"/>
      <point x="238" y="-7"/>
      <point x="287" y="30"/>
      <point x="287" y="86" type="curve" smooth="yes"/>
      <point x="287" y="151" type="line"/>
      <point x="192" y="151" type="line"/>
      <point x="192" y="91" type="line" smooth="yes"/>
      <point x="192" y="87"/>
      <point x="191" y="86"/>
      <point x="187" y="86" type="curve" smooth="yes"/>
      <point x="20" y="86" type="line"/>
    </contour>
    <contour>
      <point x="192" y="151" type="line"/>
      <point x="287" y="151" type="line"/>
      <point x="287" y="304" type="line" smooth="yes"/>
      <point x="287" y="360"/>
      <point x="249" y="397"/>
      <point x="193" y="397" type="curve" smooth="yes"/>
      <point x="21" y="397" type="line"/>
      <point x="21" y="304" type="line"/>
      <point x="187" y="304" type="line" smooth="yes"/>
      <point x="191" y="304"/>
      <point x="192" y="303"/>
      <point x="192" y="299" type="curve" smooth="yes"/>
    </contour>
    <contour>
      <point x="21" y="304" type="line"/>
      <point x="162" y="304" type="line" smooth="yes"/>
      <point x="218" y="304"/>
      <point x="267" y="341"/>
      <point x="267" y="397" type="curve" smooth="yes"/>
      <point x="267" y="543" type="line"/>
      <point x="172" y="543" type="line"/>
      <point x="172" y="402" type="line" smooth="yes"/>
      <point x="172" y="398"/>
      <point x="171" y="397"/>
      <point x="167" y="397" type="curve" smooth="yes"/>
      <point x="20" y="397" type="line"/>
    </contour>
    <contour>
      <point x="5" y="607" type="line"/>
      <point x="167" y="607" type="line" smooth="yes"/>
      <point x="171" y="607"/>
      <point x="172" y="606"/>
      <point x="172" y="602" type="curve" smooth="yes"/>
      <point x="172" y="543" type="line"/>
      <point x="267" y="543" type="line"/>
      <point x="267" y="607" type="line" smooth="yes"/>
      <point x="267" y="663"/>
      <point x="229" y="700"/>
      <point x="173" y="700" type="curve" smooth="yes"/>
      <point x="15" y="700" type="line"/>
    </contour>
  </outline>
</glyph>
<glyph name="C" format="2">
  <advance width="300"/>
  <unicode hex="0043"/>
  <anchor x="150" y="-4" name="bottom"/>
  <anchor x="150" y="704" name="top"/>
  <outline>
    <contour>
      <point x="280" y="304" type="line"/>
      <point x="185" y="304" type="line"/>
      <point x="185" y="94" type="line" smooth="yes"/>
      <point x="185" y="90"/>
      <point x="184" y="89"/>
      <point x="180" y="89" type="curve" smooth="yes"/>
      <point x="150" y="89" type="line"/>
      <point x="150" y="-4" type="line"/>
      <point x="186" y="-4" type="line" smooth="yes"/>
      <point x="242" y="-4"/>
      <point x="280" y="33"/>
      <point x="280" y="89" type="curve" smooth="yes"/>
    </contour>
    <contour>
      <point x="20" y="400" type="line"/>
      <point x="115" y="400" type="line"/>
      <point x="115" y="606" type="line" smooth="yes"/>
      <point x="115" y="610"/>
      <point x="116" y="611"/>
      <point x="120" y="611" type="curve" smooth="yes"/>
      <point x="150" y="611" type="line"/>
      <point x="150" y="704" type="line"/>
      <point x="114" y="704" type="line" smooth="yes"/>
      <point x="58" y="704"/>
      <point x="20" y="667"/>
      <point x="20" y="611" type="curve" smooth="yes"/>
    </contour>
    <contour>
      <point x="20" y="400" type="line"/>
      <point x="20" y="89" type="line" smooth="yes"/>
      <point x="20" y="33"/>
      <point x="58" y="-4"/>
      <point x="114" y="-4" type="curve" smooth="yes"/>
      <point x="150" y="-4" type="line"/>
      <point x="150" y="89" type="line"/>
      <point x="120" y="89" type="line" smooth="yes"/>
      <point x="116" y="89"/>
      <point x="115" y="90"/>
      <point x="115" y="94" type="curve" smooth="yes"/>
      <point x="115" y="400" type="line"/>
    </contour>
    <contour>
      <point x="280" y="387" type="line"/>
      <point x="280" y="611" type="line" smooth="yes"/>
      <point x="280" y="667"/>
      <point x="242" y="704"/>
      <point x="186" y="704" type="curve" smooth="yes"/>
      <point x="150" y="704" type="line"/>
      <point x="150" y="611" type="line"/>
      <point x="180" y="611" type="line" smooth="yes"/>
      <point x="184" y="611"/>
      <point x="185" y="610"/>
      <point x="185" y="606" type="curve" smooth="yes"/>
      <point x="185" y="397" type="line"/>
    </contour>
  </outline>
</glyph>
<glyph name="D" format="2">
  <advance width="300"/>
  <unicode hex="0044"/>
  <outline>
    <contour>
      <point x="186" y="700" type="curve" smooth="yes"/>
      <point x="15" y="700" type="line"/>
      <point x="5" y="607" type="line"/>
      <point x="180" y="607" type="line" smooth="yes"/>
      <point x="184" y="607"/>
      <point x="185" y="606"/>
      <point x="185" y="602" type="curve" smooth="yes"/>
      <point x="185" y="297" type="line"/>
      <point x="280" y="297" type="line"/>
      <point x="280" y="607" type="line" smooth="yes"/>
      <point x="280" y="663"/>
      <point x="242" y="700"/>
    </contour>
    <contour>
      <point x="280" y="93" type="curve" smooth="yes"/>
      <point x="280" y="297" type="line"/>
      <point x="185" y="297" type="line"/>
      <point x="185" y="98" type="line" smooth="yes"/>
      <point x="185" y="94"/>
      <point x="184" y="93"/>
      <point x="180" y="93" type="curve" smooth="yes"/>
      <point x="20" y="93" type="line"/>
      <point x="20" y="0" type="line"/>
      <point x="186" y="0" type="line" smooth="yes"/>
      <point x="242" y="0"/>
      <point x="280" y="37"/>
    </contour>
    <contour>
      <point x="20" y="700" type="line"/>
      <point x="20" y="0" type="line"/>
      <point x="115" y="0" type="line"/>
      <point x="115" y="700" type="line"/>
    </contour>
  </outline>
</glyph>
<glyph name="E" format="2">
  <advance width="267"/>
  <unicode hex="0045"/>
  <anchor x="115" y="0" name="bottom"/>
  <anchor x="239" y="0" name="ogonek"/>
  <anchor x="115" y="700" name="top"/>
  <anchor x="20" y="700" name="topleft"/>
  <outline>
    <contour>
      <point x="227" y="397" type="line"/>
      <point x="20" y="397" type="line"/>
      <point x="20" y="304" type="line"/>
      <point x="217" y="304" type="line"/>
    </contour>
    <contour>
      <point x="20" y="700" type="line"/>
      <point x="20" y="0" type="line"/>
      <point x="115" y="0" type="line"/>
      <point x="115" y="700" type="line"/>
    </contour>
    <contour>
      <point x="247" y="700" type="line"/>
      <point x="20" y="700" type="line"/>
      <point x="20" y="607" type="line"/>
      <point x="237" y="607" type="line"/>
    </contour>
    <contour>
      <point x="247" y="93" type="line"/>
      <point x="20" y="93" type="line"/>
      <point x="20" y="0" type="line"/>
      <point x="239" y="0" type="line"/>
    </contour>
    <contour>
      <point x="115" y="700" type="line"/>
      <point x="15" y="700" type="line"/>
      <point x="5" y="607" type="line"/>
      <point x="115" y="607" type="line"/>
    </contour>
  </outline>
</glyph>
<glyph name="F" format="2">
  <advance width="267"/>
  <unicode hex="0046"/>
  <outline>
    <contour>
      <point x="227" y="397" type="line"/>
      <point x="20" y="397" type="line"/>
      <point x="20" y="304" type="line"/>
      <point x="217" y="304" type="line"/>
    </contour>
    <contour>
      <point x="20" y="700" type="line"/>
      <point x="20" y="0" type="line"/>
      <point x="115" y="0" type="line"/>
      <point x="115" y="700" type="line"/>
    </contour>
    <contour>
      <point x="247" y="700" type="line"/>
      <point x="20" y="700" type="line"/>
      <point x="20" y="607" type="line"/>
      <point x="237" y="607" type="line"/>
    </contour>
    <contour>
      <point x="115" y="700" type="line"/>
      <point x="15" y="700" type="line"/>
      <point x="5" y="607" type="line"/>
      <point x="115" y="607" type="line"/>
    </contour>
  </outline>
</glyph>
<glyph name="G" format="2">
  <advance width="300"/>
  <unicode hex="0047"/>
  <outline>
    <contour>
      <point x="280" y="93" type="curve" smooth="yes"/>
      <point x="280" y="398" type="line"/>
      <point x="185" y="398" type="line"/>
      <point x="185" y="98" type="line" smooth="yes"/>
      <point x="185" y="94"/>
      <point x="184" y="93"/>
      <point x="180" y="93" type="curve" smooth="yes"/>
      <point x="120" y="93" type="line" smooth="yes"/>
      <point x="116" y="93"/>
      <point x="115" y="94"/>
      <point x="115" y="98" type="curve" smooth="yes"/>
      <point x="115" y="400" type="line"/>
      <point x="20" y="400" type="line"/>
      <point x="20" y="93" type="line" smooth="yes"/>
      <point x="20" y="37"/>
      <point x="58" y="0"/>
      <point x="114" y="0" type="curve" smooth="yes"/>
      <point x="186" y="0" type="line" smooth="yes"/>
      <point x="242" y="0"/>
      <point x="280" y="37"/>
    </contour>
    <contour>
      <point x="20" y="607" type="curve" smooth="yes"/>
      <point x="20" y="400" type="line"/>
      <point x="115" y="400" type="line"/>
      <point x="115" y="602" type="line" smooth="yes"/>
      <point x="115" y="606"/>
      <point x="116" y="607"/>
      <point x="120" y="607" type="curve" smooth="yes"/>
      <point x="150" y="607" type="line"/>
      <point x="150" y="700" type="line"/>
      <point x="114" y="700" type="line" smooth="yes"/>
      <point x="58" y="700"/>
      <point x="20" y="663"/>
    </contour>
    <contour>
      <point x="280" y="447" type="line"/>
      <point x="280" y="607" type="line" smooth="yes"/>
      <point x="280" y="663"/>
      <point x="242" y="700"/>
      <point x="186" y="700" type="curve" smooth="yes"/>
      <point x="150" y="700" type="line"/>
      <point x="150" y="607" type="line"/>
      <point x="180" y="607" type="line" smooth="yes"/>
      <point x="184" y="607"/>
      <point x="185" y="606"/>
      <point x="185" y="602" type="curve" smooth="yes"/>
      <point x="185" y="447" type="line"/>
    </contour>
    <contour>
      <point x="146" y="305" type="line"/>
      <point x="280" y="305" type="line"/>
      <point x="280" y="398" type="line"/>
      <point x="154" y="398" type="line"/>
    </contour>
  </outline>
</glyph>
<glyph name="H" format="2">
  <advance width="292"/>
  <unicode hex="0048"/>
  <outline>
    <contour>
      <point x="25" y="700" type="line"/>
      <point x="25" y="0" type="line"/>
      <point x="120" y="0" type="line"/>
      <point x="120" y="700" type="line"/>
    </contour>
    <contour>
      <point x="177" y="700" type="line"/>
      <point x="177" y="0" type="line"/>
      <point x="272" y="0" type="line"/>
      <point x="272" y="700" type="line"/>
    </contour>
    <contour>
      <point x="272" y="398" type="line"/>
      <point x="25" y="398" type="line"/>
      <point x="25" y="305" type="line"/>
      <point x="272" y="305" type="line"/>
    </contour>
    <contour>
      <point x="120" y="700" type="line"/>
      <point x="20" y="700" type="line"/>
      <point x="10" y="607" type="line"/>
      <point x="120" y="607" type="line"/>
    </contour>
  </outline>
</glyph>
<glyph name="I" format="2">
  <advance width="140"/>
  <unicode hex="0049"/>
  <anchor x="70" y="0" name="bottom"/>
  <anchor x="126" y="10" name="ogonek"/>
  <anchor x="70" y="700" name="top"/>
  <anchor x="20" y="700" name="topleft"/>
  <outline>
    <contour>
      <point x="25" y="0" type="line"/>
      <point x="120" y="0" type="line"/>
      <point x="120" y="700" type="line"/>
      <point x="25" y="700" type="line"/>
    </contour>
    <contour>
      <point x="10" y="607" type="line"/>
      <point x="120" y="607" type="line"/>
      <point x="120" y="700" type="line"/>
      <point x="20" y="700" type="line"/>
    </contour>
  </outline>
</glyph>
<glyph name="J" format="2">
  <advance width="270"/>
  <unicode hex="004A"/>
  <anchor x="135" y="0" name="bottom"/>
  <anchor x="135" y="700" name="top"/>
  <outline>
    <contour>
      <point x="115" y="607" type="line"/>
      <point x="250" y="607" type="line"/>
      <point x="250" y="700" type="line"/>
      <point x="123" y="700" type="line"/>
    </contour>
    <contour>
      <point x="250" y="89" type="curve" smooth="yes"/>
      <point x="250" y="698" type="line"/>
      <point x="155" y="698" type="line"/>
      <point x="155" y="94" type="line" smooth="yes"/>
      <point x="155" y="90"/>
      <point x="154" y="89"/>
      <point x="150" y="89" type="curve" smooth="yes"/>
      <point x="120" y="89" type="line" smooth="yes"/>
      <point x="116" y="89"/>
      <point x="115" y="90"/>
      <point x="115" y="94" type="curve" smooth="yes"/>
      <point x="115" y="298" type="line"/>
      <point x="20" y="298" type="line"/>
      <point x="20" y="89" type="line" smooth="yes"/>
      <point x="20" y="33"/>
      <point x="58" y="-4"/>
      <point x="114" y="-4" type="curve" smooth="yes"/>
      <point x="156" y="-4" type="line" smooth="yes"/>
      <point x="212" y="-4"/>
      <point x="250" y="33"/>
    </contour>
  </outline>
</glyph>
<glyph name="K" format="2">
  <advance width="322"/>
  <unicode hex="004B"/>
  <outline>
    <contour>
      <point x="207" y="700" type="line"/>
      <point x="81" y="418" type="line"/>
      <point x="186" y="418" type="line"/>
      <point x="312" y="700" type="line"/>
    </contour>
    <contour>
      <point x="25" y="0" type="line"/>
      <point x="120" y="0" type="line"/>
      <point x="120" y="700" type="line"/>
      <point x="25" y="700" type="line"/>
    </contour>
    <contour>
      <point x="217" y="0" type="line"/>
      <point x="322" y="0" type="line"/>
      <point x="186" y="418" type="line"/>
      <point x="81" y="418" type="line"/>
    </contour>
    <contour>
      <point x="120" y="700" type="line"/>
      <point x="20" y="700" type="line"/>
      <point x="10" y="607" type="line"/>
      <point x="120" y="607" type="line"/>
    </contour>
  </outline>
</glyph>
<glyph name="L" format="2">
  <advance width="292"/>
  <unicode hex="004C"/>
  <outline>
    <contour>
      <point x="25" y="700" type="line"/>
      <point x="25" y="0" type="line"/>
      <point x="120" y="0" type="line"/>
      <point x="120" y="700" type="line"/>
    </contour>
    <contour>
      <point x="272" y="93" type="line"/>
      <point x="120" y="93" type="line"/>
      <point x="120" y="0" type="line"/>
      <point x="264" y="0" type="line"/>
    </contour>
    <contour>
      <point x="25" y="700" type="line"/>
      <point x="20" y="700" type="line"/>
      <point x="10" y="607" type="line"/>
      <point x="25" y="607" type="line"/>
    </contour>
  </outline>
</glyph>
<glyph name="M" format="2">
  <advance width="446"/>
  <unicode hex="004D"/>
  <anchor x="223" y="0" name="bottom"/>
  <anchor x="223" y="700" name="top"/>
  <outline>
    <contour>
      <point x="273" y="700" type="line"/>
      <point x="219" y="284" type="line"/>
      <point x="229" y="284" type="line"/>
      <point x="176" y="700" type="line"/>
      <point x="92" y="700" type="line"/>
      <point x="192" y="100" type="line"/>
      <point x="257" y="100" type="line"/>
      <point x="357" y="700" type="line"/>
    </contour>
    <contour>
      <point x="25" y="0" type="line"/>
      <point x="120" y="0" type="line"/>
      <point x="120" y="700" type="line"/>
      <point x="25" y="700" type="line"/>
    </contour>
    <contour>
      <point x="10" y="607" type="line"/>
      <point x="120" y="607" type="line"/>
      <point x="120" y="700" type="line"/>
      <point x="20" y="700" type="line"/>
    </contour>
    <contour>
      <point x="331" y="0" type="line"/>
      <point x="426" y="0" type="line"/>
      <point x="426" y="700" type="line"/>
      <point x="331" y="700" type="line"/>
    </contour>
  </outline>
</glyph>
<glyph name="N" format="2">
  <advance width="345"/>
  <unicode hex="004E"/>
  <anchor x="173" y="0" name="bottom"/>
  <anchor x="173" y="700" name="top"/>
  <outline>
    <contour>
      <point x="25" y="700" type="line"/>
      <point x="25" y="0" type="line"/>
      <point x="120" y="0" type="line"/>
      <point x="120" y="700" type="line"/>
    </contour>
    <contour>
      <point x="230" y="700" type="line"/>
      <point x="240" y="0" type="line"/>
      <point x="325" y="0" type="line"/>
      <point x="325" y="700" type="line"/>
    </contour>
    <contour>
      <point x="50" y="700" type="line"/>
      <point x="230" y="0" type="line"/>
      <point x="300" y="0" type="line"/>
      <point x="125" y="700" type="line"/>
    </contour>
    <contour>
      <point x="120" y="700" type="line"/>
      <point x="20" y="700" type="line"/>
      <point x="10" y="607" type="line"/>
      <point x="120" y="607" type="line"/>
    </contour>
  </outline>
</glyph>
<glyph name="Q" format="2">
  <advance width="320"/>
  <unicode hex="0051"/>
  <outline>
    <contour>
      <point x="307" y="0" type="line"/>
      <point x="189" y="0" type="line"/>
      <point x="231" y="-34" type="line"/>
      <point x="231" y="65" type="line"/>
      <point x="138" y="65" type="line"/>
      <point x="138" y="9" type="line" smooth="yes"/>
      <point x="138" y="-47"/>
      <point x="175" y="-86"/>
      <point x="231" y="-86" type="curve" smooth="yes"/>
      <point x="287" y="-86" type="line"/>
    </contour>
    <contour>
      <point x="280" y="89" type="curve" smooth="yes"/>
      <point x="280" y="394" type="line"/>
      <point x="185" y="394" type="line"/>
      <point x="185" y="94" type="line" smooth="yes"/>
      <point x="185" y="90"/>
      <point x="184" y="89"/>
      <point x="180" y="89" type="curve" smooth="yes"/>
      <point x="120" y="89" type="line" smooth="yes"/>
      <point x="116" y="89"/>
      <point x="115" y="90"/>
      <point x="115" y="94" type="curve" smooth="yes"/>
      <point x="115" y="396" type="line"/>
      <point x="20" y="396" type="line"/>
      <point x="20" y="89" type="line" smooth="yes"/>
      <point x="20" y="33"/>
      <point x="58" y="-4"/>
      <point x="114" y="-4" type="curve" smooth="yes"/>
      <point x="186" y="-4" type="line" smooth="yes"/>
      <point x="242" y="-4"/>
      <point x="280" y="33"/>
    </contour>
    <contour>
      <point x="280" y="611" type="line" smooth="yes"/>
      <point x="280" y="667"/>
      <point x="242" y="704"/>
      <point x="186" y="704" type="curve" smooth="yes"/>
      <point x="114" y="704" type="line" smooth="yes"/>
      <point x="58" y="704"/>
      <point x="20" y="667"/>
      <point x="20" y="611" type="curve" smooth="yes"/>
      <point x="20" y="304" type="line"/>
      <point x="115" y="304" type="line"/>
      <point x="115" y="606" type="line" smooth="yes"/>
      <point x="115" y="610"/>
      <point x="116" y="611"/>
      <point x="120" y="611" type="curve" smooth="yes"/>
      <point x="180" y="611" type="line" smooth="yes"/>
      <point x="184" y="611"/>
      <point x="185" y="610"/>
      <point x="185" y="606" type="curve" smooth="yes"/>
      <point x="185" y="306" type="line"/>
      <point x="280" y="306" type="line"/>
    </contour>
  </outline>
</glyph>
<glyph name="R" format="2">
  <advance width="303"/>
  <unicode hex="0052"/>
  <outline>
    <contour>
      <point x="25" y="700" type="line"/>
      <point x="25" y="0" type="line"/>
      <point x="120" y="0" type="line"/>
      <point x="120" y="700" type="line"/>
    </contour>
    <contour>
      <point x="221" y="288" type="line"/>
      <point x="126" y="288" type="line"/>
      <point x="207" y="0" type="line"/>
      <point x="303" y="0" type="line"/>
    </contour>
    <contour>
      <point x="10" y="607" type="line"/>
      <point x="172" y="607" type="line" smooth="yes"/>
      <point x="176" y="607"/>
      <point x="177" y="606"/>
      <point x="177" y="602" type="curve" smooth="yes"/>
      <point x="177" y="467" type="line"/>
      <point x="272" y="467" type="line"/>
      <point x="272" y="607" type="line" smooth="yes"/>
      <point x="272" y="663"/>
      <point x="234" y="700"/>
      <point x="178" y="700" type="curve" smooth="yes"/>
      <point x="20" y="700" type="line"/>
    </contour>
    <contour>
      <point x="26" y="201" type="line"/>
      <point x="167" y="201" type="line" smooth="yes"/>
      <point x="223" y="201"/>
      <point x="272" y="238"/>
      <point x="272" y="294" type="curve" smooth="yes"/>
      <point x="272" y="467" type="line"/>
      <point x="177" y="467" type="line"/>
      <point x="177" y="299" type="line" smooth="yes"/>
      <point x="177" y="295"/>
      <point x="176" y="294"/>
      <point x="172" y="294" type="curve" smooth="yes"/>
      <point x="25" y="294" type="line"/>
    </contour>
  </outline>
</glyph>
<glyph name="S" format="2">
  <advance width="280"/>
  <unicode hex="0053"/>
  <outline>
    <contour>
      <point x="115" y="200" type="line"/>
      <point x="20" y="200" type="line"/>
      <point x="20" y="89" type="line" smooth="yes"/>
      <point x="20" y="33"/>
      <point x="58" y="-4"/>
      <point x="114" y="-4" type="curve" smooth="yes"/>
      <point x="136" y="-4" type="line"/>
      <point x="136" y="89" type="line"/>
      <point x="120" y="89" type="line" smooth="yes"/>
      <point x="116" y="89"/>
      <point x="115" y="90"/>
      <point x="115" y="94" type="curve" smooth="yes"/>
    </contour>
    <contour>
      <point x="260" y="463" type="line"/>
      <point x="260" y="611" type="line" smooth="yes"/>
      <point x="260" y="667"/>
      <point x="222" y="704"/>
      <point x="166" y="704" type="curve" smooth="yes"/>
      <point x="136" y="704" type="line"/>
      <point x="136" y="611" type="line"/>
      <point x="160" y="611" type="line" smooth="yes"/>
      <point x="164" y="611"/>
      <point x="165" y="610"/>
      <point x="165" y="606" type="curve" smooth="yes"/>
      <point x="165" y="471" type="line"/>
    </contour>
    <contour>
      <point x="20" y="383" type="line" smooth="yes"/>
      <point x="20" y="330.465"/>
      <point x="68" y="316"/>
      <point x="85.64" y="308.858" type="curve" smooth="yes"/>
      <point x="203" y="257" type="line"/>
      <point x="165" y="316" type="line"/>
      <point x="165" y="94" type="line" smooth="yes"/>
      <point x="165" y="90"/>
      <point x="164" y="89"/>
      <point x="160" y="89" type="curve" smooth="yes"/>
      <point x="136" y="89" type="line"/>
      <point x="136" y="-4" type="line"/>
      <point x="166" y="-4" type="line" smooth="yes"/>
      <point x="222" y="-4"/>
      <point x="260" y="33"/>
      <point x="260" y="89" type="curve" smooth="yes"/>
      <point x="260" y="288" type="line" smooth="yes"/>
      <point x="260" y="340.535"/>
      <point x="212" y="354"/>
      <point x="194" y="362" type="curve" smooth="yes"/>
      <point x="77" y="414" type="line"/>
      <point x="115" y="355" type="line"/>
      <point x="115" y="606" type="line" smooth="yes"/>
      <point x="115" y="610"/>
      <point x="116" y="611"/>
      <point x="120" y="611" type="curve" smooth="yes"/>
      <point x="144" y="611" type="line"/>
      <point x="144" y="704" type="line"/>
      <point x="114" y="704" type="line" smooth="yes"/>
      <point x="58" y="704"/>
      <point x="20" y="667"/>
      <point x="20" y="611" type="curve" smooth="yes"/>
    </contour>
  </outline>
</glyph>
<glyph name="T" format="2">
  <advance width="315"/>
  <unicode hex="0054"/>
  <outline>
    <contour>
      <point x="110" y="700" type="line"/>
      <point x="110" y="0" type="line"/>
      <point x="205" y="0" type="line"/>
      <point x="205" y="700" type="line"/>
    </contour>
    <contour>
      <point x="20" y="607" type="line"/>
      <point x="295" y="607" type="line"/>
      <point x="295" y="700" type="line"/>
      <point x="20" y="700" type="line"/>
    </contour>
  </outline>
</glyph>
<glyph name="U" format="2">
  <advance width="295"/>
  <unicode hex="0055"/>
  <anchor x="152" y="-4" name="bottom"/>
  <anchor x="266" y="10" name="ogonek"/>
  <anchor x="148" y="700" name="top"/>
  <anchor x="275" y="700" name="topright"/>
  <outline>
    <contour>
      <point x="120" y="700" type="line"/>
      <point x="20" y="700" type="line"/>
      <point x="10" y="607" type="line"/>
      <point x="120" y="607" type="line"/>
    </contour>
    <contour>
      <point x="275" y="89" type="curve" smooth="yes"/>
      <point x="275" y="698" type="line"/>
      <point x="180" y="698" type="line"/>
      <point x="180" y="94" type="line" smooth="yes"/>
      <point x="180" y="90"/>
      <point x="179" y="89"/>
      <point x="175" y="89" type="curve" smooth="yes"/>
      <point x="125" y="89" type="line" smooth="yes"/>
      <point x="121" y="89"/>
      <point x="120" y="90"/>
      <point x="120" y="94" type="curve" smooth="yes"/>
      <point x="120" y="700" type="line"/>
      <point x="25" y="700" type="line"/>
      <point x="25" y="89" type="line" smooth="yes"/>
      <point x="25" y="33"/>
      <point x="63" y="-4"/>
      <point x="119" y="-4" type="curve" smooth="yes"/>
      <point x="181" y="-4" type="line" smooth="yes"/>
      <point x="237" y="-4"/>
      <point x="275" y="33"/>
    </contour>
  </outline>
</glyph>
<glyph name="V" format="2">
  <advance width="290"/>
  <unicode hex="0056"/>
  <outline>
    <contour>
      <point x="195" y="700" type="line"/>
      <point x="141" y="103" type="line"/>
      <point x="149" y="103" type="line"/>
      <point x="95" y="700" type="line"/>
      <point x="0" y="700" type="line"/>
      <point x="62" y="0" type="line"/>
      <point x="228" y="0" type="line"/>
      <point x="290" y="700" type="line"/>
    </contour>
  </outline>
</glyph>
<glyph name="W" format="2">
  <advance width="413"/>
  <unicode hex="0057"/>
  <anchor x="207" y="0" name="bottom"/>
  <anchor x="207" y="700" name="top"/>
  <outline>
    <contour>
      <point x="239" y="601" type="line"/>
      <point x="174" y="601" type="line"/>
      <point x="94" y="0" type="line"/>
      <point x="158" y="0" type="line"/>
      <point x="212" y="416" type="line"/>
      <point x="202" y="416" type="line"/>
      <point x="255" y="0" type="line"/>
      <point x="319" y="0" type="line"/>
    </contour>
    <contour>
      <point x="62" y="0" type="line"/>
      <point x="158" y="0" type="line"/>
      <point x="95" y="700" type="line"/>
      <point x="0" y="700" type="line"/>
    </contour>
    <contour>
      <point x="255" y="0" type="line"/>
      <point x="351" y="0" type="line"/>
      <point x="413" y="700" type="line"/>
      <point x="318" y="700" type="line"/>
    </contour>
  </outline>
</glyph>
<glyph name="X" format="2">
  <advance width="347"/>
  <unicode hex="0058"/>
  <outline>
    <contour>
      <point x="20" y="700" type="line"/>
      <point x="125" y="309" type="line"/>
      <point x="221" y="309" type="line"/>
      <point x="327" y="700" type="line"/>
      <point x="227" y="700" type="line"/>
      <point x="159" y="394" type="line"/>
      <point x="187" y="394" type="line"/>
      <point x="120" y="700" type="line"/>
    </contour>
    <contour>
      <point x="20" y="0" type="line"/>
      <point x="120" y="0" type="line"/>
      <point x="187" y="306" type="line"/>
      <point x="159" y="306" type="line"/>
      <point x="227" y="0" type="line"/>
      <point x="327" y="0" type="line"/>
      <point x="221" y="391" type="line"/>
      <point x="125" y="391" type="line"/>
    </contour>
  </outline>
</glyph>
<glyph name="Y" format="2">
  <advance width="329"/>
  <unicode hex="0059"/>
  <outline>
    <contour>
      <point x="176" y="428" type="line"/>
      <point x="95" y="700" type="line"/>
      <point x="0" y="700" type="line"/>
      <point x="117" y="309" type="line"/>
      <point x="212" y="309" type="line"/>
      <point x="329" y="700" type="line"/>
      <point x="234" y="700" type="line"/>
      <point x="153" y="428" type="line"/>
    </contour>
    <contour>
      <point x="212" y="309" type="line"/>
      <point x="117" y="309" type="line"/>
      <point x="117" y="0" type="line"/>
      <point x="212" y="0" type="line"/>
    </contour>
  </outline>
</glyph>
<glyph name="Z" format="2">
  <advance width="277"/>
  <unicode hex="005A"/>
  <anchor x="139" y="0" name="bottom"/>
  <anchor x="139" y="350" name="center"/>
  <anchor x="139" y="700" name="top"/>
  <outline>
    <contour>
      <point x="267" y="93" type="line"/>
      <point x="128" y="93" type="line" smooth="yes"/>
      <point x="124" y="93"/>
      <point x="123" y="94"/>
      <point x="124" y="98" type="curve" smooth="yes"/>
      <point x="262" y="590" type="line" smooth="yes"/>
      <point x="265" y="599"/>
      <point x="267" y="613"/>
      <point x="267" y="626" type="curve" smooth="yes"/>
      <point x="267" y="699" type="line"/>
      <point x="20" y="699" type="line"/>
      <point x="20" y="606" type="line"/>
      <point x="168" y="606" type="line" smooth="yes"/>
      <point x="172" y="606"/>
      <point x="173" y="605"/>
      <point x="172" y="601" type="curve" smooth="yes"/>
      <point x="25" y="109" type="line" smooth="yes"/>
      <point x="22" y="100"/>
      <point x="20" y="86"/>
      <point x="20" y="73" type="curve" smooth="yes"/>
      <point x="20" y="0" type="line"/>
      <point x="267" y="0" type="line"/>
    </contour>
  </outline>
</glyph>
<glyph name="bracketleft" format="2">
  <advance width="157"/>
  <unicode hex="005B"/>
  <note>
bracketleft
</note>
  <outline>
    <contour>
      <point x="146" y="-130" type="line"/>
      <point x="146" y="-57" type="line"/>
      <point x="51" y="-57" type="line"/>
      <point x="93" y="-79" type="line"/>
      <point x="93" y="682" type="line"/>
      <point x="51" y="660" type="line"/>
      <point x="146" y="660" type="line"/>
      <point x="146" y="733" type="line"/>
      <point x="0" y="733" type="line"/>
      <point x="0" y="-130" type="line"/>
    </contour>
  </outline>
</glyph>
<glyph name="backslash" format="2">
  <advance width="230"/>
  <unicode hex="005C"/>
  <note>
backslash
</note>
  <outline>
    <contour>
      <point x="113" y="640" type="line"/>
      <point x="10" y="640" type="line"/>
      <point x="117" y="-37" type="line"/>
      <point x="220" y="-37" type="line"/>
    </contour>
  </outline>
</glyph>
<glyph name="bracketright" format="2">
  <advance width="157"/>
  <unicode hex="005D"/>
  <note>
bracketright
</note>
  <outline>
    <contour>
      <point x="0" y="-130" type="line"/>
      <point x="146" y="-130" type="line"/>
      <point x="146" y="733" type="line"/>
      <point x="0" y="733" type="line"/>
      <point x="0" y="660" type="line"/>
      <point x="95" y="660" type="line"/>
      <point x="53" y="682" type="line"/>
      <point x="53" y="-79" type="line"/>
      <point x="95" y="-57" type="line"/>
      <point x="0" y="-57" type="line"/>
    </contour>
  </outline>
</glyph>
<glyph name="asciicircum" format="2">
  <advance width="345"/>
  <unicode hex="005E"/>
  <note>
asciicircum
</note>
  <outline>
    <contour>
      <point x="335" y="424" type="line"/>
      <point x="224" y="600" type="line"/>
      <point x="121" y="600" type="line"/>
      <point x="232" y="424" type="line"/>
    </contour>
    <contour>
      <point x="10" y="424" type="line"/>
      <point x="113" y="424" type="line"/>
      <point x="224" y="600" type="line"/>
      <point x="121" y="600" type="line"/>
    </contour>
  </outline>
</glyph>
<glyph name="grave" format="2">
  <advance width="147"/>
  <unicode hex="0060"/>
  <outline>
    <contour>
      <point x="100" y="800" type="line"/>
      <point x="20" y="800" type="line"/>
      <point x="47" y="720" type="line"/>
      <point x="127" y="720" type="line"/>
    </contour>
  </outline>
</glyph>
<glyph name="b" format="2">
  <advance width="302"/>
  <unicode hex="0062"/>
  <outline>
    <contour>
      <point x="34" y="0" type="line"/>
      <point x="129" y="0" type="line"/>
      <point x="129" y="700" type="line"/>
      <point x="34" y="700" type="line"/>
    </contour>
    <contour>
      <point x="10" y="607" type="line"/>
      <point x="129" y="607" type="line"/>
      <point x="129" y="700" type="line"/>
      <point x="20" y="700" type="line"/>
    </contour>
    <contour>
      <point x="282" y="93" type="curve" smooth="yes"/>
      <point x="282" y="298" type="line"/>
      <point x="187" y="298" type="line"/>
      <point x="187" y="98" type="line" smooth="yes"/>
      <point x="187" y="94"/>
      <point x="186" y="93"/>
      <point x="182" y="93" type="curve" smooth="yes"/>
      <point x="88" y="93" type="line"/>
      <point x="88" y="93"/>
      <point x="88" y="92"/>
      <point x="88" y="92" type="curve" smooth="yes"/>
      <point x="88" y="39"/>
      <point x="124" y="0"/>
      <point x="177" y="0" type="curve" smooth="yes"/>
      <point x="181" y="0" type="line" smooth="yes"/>
      <point x="242" y="0"/>
      <point x="282" y="39"/>
    </contour>
    <contour>
      <point x="94" y="407" type="line"/>
      <point x="182" y="407" type="line" smooth="yes"/>
      <point x="186" y="407"/>
      <point x="187" y="406"/>
      <point x="187" y="402" type="curve" smooth="yes"/>
      <point x="187" y="298" type="line"/>
      <point x="282" y="298" type="line"/>
      <point x="282" y="407" type="line" smooth="yes"/>
      <point x="282" y="461"/>
      <point x="242" y="500"/>
      <point x="181" y="500" type="curve" smooth="yes"/>
      <point x="154" y="500" type="line"/>
    </contour>
  </outline>
</glyph>
<glyph name="c" format="2">
  <advance width="300"/>
  <unicode hex="0063"/>
  <outline>
    <contour>
      <point x="280" y="89" type="curve" smooth="yes"/>
      <point x="280" y="209" type="line"/>
      <point x="185" y="209" type="line"/>
      <point x="185" y="93" type="line" smooth="yes"/>
      <point x="185" y="90"/>
      <point x="184" y="89"/>
      <point x="180" y="89" type="curve" smooth="yes"/>
      <point x="148" y="89" type="line"/>
      <point x="148" y="-4" type="line"/>
      <point x="186" y="-4" type="line" smooth="yes"/>
      <point x="242" y="-4"/>
      <point x="280" y="33"/>
    </contour>
    <contour>
      <point x="20" y="89" type="line" smooth="yes"/>
      <point x="20" y="33"/>
      <point x="58" y="-4"/>
      <point x="114" y="-4" type="curve" smooth="yes"/>
      <point x="152" y="-4" type="line"/>
      <point x="152" y="89" type="line"/>
      <point x="120" y="89" type="line" smooth="yes"/>
      <point x="116" y="89"/>
      <point x="115" y="90"/>
      <point x="115" y="94" type="curve" smooth="yes"/>
      <point x="115" y="245" type="line"/>
      <point x="20" y="245" type="line"/>
    </contour>
    <contour>
      <point x="280" y="411" type="line" smooth="yes"/>
      <point x="280" y="467"/>
      <point x="242" y="504"/>
      <point x="186" y="504" type="curve" smooth="yes"/>
      <point x="148" y="504" type="line"/>
      <point x="148" y="411" type="line"/>
      <point x="180" y="411" type="line" smooth="yes"/>
      <point x="184" y="411"/>
      <point x="185" y="410"/>
      <point x="185" y="406" type="curve" smooth="yes"/>
      <point x="185" y="289" type="line"/>
      <point x="280" y="279" type="line"/>
    </contour>
    <contour>
      <point x="20" y="411" type="curve" smooth="yes"/>
      <point x="20" y="195" type="line"/>
      <point x="115" y="195" type="line"/>
      <point x="115" y="406" type="line" smooth="yes"/>
      <point x="115" y="410"/>
      <point x="116" y="411"/>
      <point x="120" y="411" type="curve" smooth="yes"/>
      <point x="152" y="411" type="line"/>
      <point x="152" y="504" type="line"/>
      <point x="114" y="504" type="line" smooth="yes"/>
      <point x="58" y="504"/>
      <point x="20" y="467"/>
    </contour>
  </outline>
</glyph>
<glyph name="d" format="2">
  <advance width="302"/>
  <unicode hex="0064"/>
  <outline>
    <contour>
      <point x="173" y="700" type="line"/>
      <point x="173" y="0" type="line"/>
      <point x="268" y="0" type="line"/>
      <point x="268" y="700" type="line"/>
    </contour>
    <contour>
      <point x="149" y="607" type="line"/>
      <point x="268" y="607" type="line"/>
      <point x="268" y="700" type="line"/>
      <point x="159" y="700" type="line"/>
    </contour>
    <contour>
      <point x="173" y="0" type="line"/>
      <point x="292" y="0" type="line"/>
      <point x="282" y="93" type="line"/>
      <point x="173" y="93" type="line"/>
    </contour>
    <contour>
      <point x="20" y="202" type="line"/>
      <point x="115" y="202" type="line"/>
      <point x="115" y="402" type="line" smooth="yes"/>
      <point x="115" y="406"/>
      <point x="116" y="407"/>
      <point x="120" y="407" type="curve" smooth="yes"/>
      <point x="214" y="407" type="line"/>
      <point x="214" y="408" type="line" smooth="yes"/>
      <point x="214" y="461"/>
      <point x="178" y="500"/>
      <point x="125" y="500" type="curve" smooth="yes"/>
      <point x="121" y="500" type="line" smooth="yes"/>
      <point x="60" y="500"/>
      <point x="20" y="461"/>
      <point x="20" y="407" type="curve" smooth="yes"/>
    </contour>
    <contour>
      <point x="121" y="0" type="curve" smooth="yes"/>
      <point x="148" y="0" type="line"/>
      <point x="208" y="93" type="line"/>
      <point x="120" y="93" type="line" smooth="yes"/>
      <point x="116" y="93"/>
      <point x="115" y="94"/>
      <point x="115" y="98" type="curve" smooth="yes"/>
      <point x="115" y="258" type="line"/>
      <point x="20" y="258" type="line"/>
      <point x="20" y="93" type="line" smooth="yes"/>
      <point x="20" y="39"/>
      <point x="60" y="0"/>
    </contour>
  </outline>
</glyph>
<glyph name="e" format="2">
  <advance width="290"/>
  <unicode hex="0065"/>
  <anchor x="145" y="0" name="bottom"/>
  <anchor x="261" y="10" name="ogonek"/>
  <anchor x="145" y="500" name="top"/>
  <outline>
    <contour>
      <point x="270" y="89" type="curve" smooth="yes"/>
      <point x="270" y="148" type="line"/>
      <point x="175" y="148" type="line"/>
      <point x="175" y="93" type="line" smooth="yes"/>
      <point x="175" y="90"/>
      <point x="174" y="89"/>
      <point x="170" y="89" type="curve" smooth="yes"/>
      <point x="138" y="89" type="line"/>
      <point x="138" y="-4" type="line"/>
      <point x="176" y="-4" type="line" smooth="yes"/>
      <point x="232" y="-4"/>
      <point x="270" y="33"/>
    </contour>
    <contour>
      <point x="20" y="89" type="line" smooth="yes"/>
      <point x="20" y="33"/>
      <point x="58" y="-4"/>
      <point x="114" y="-4" type="curve" smooth="yes"/>
      <point x="152" y="-4" type="line"/>
      <point x="152" y="89" type="line"/>
      <point x="120" y="89" type="line" smooth="yes"/>
      <point x="116" y="89"/>
      <point x="115" y="90"/>
      <point x="115" y="94" type="curve" smooth="yes"/>
      <point x="115" y="245" type="line"/>
      <point x="20" y="245" type="line"/>
    </contour>
    <contour>
      <point x="270" y="411" type="line" smooth="yes"/>
      <point x="270" y="467"/>
      <point x="232" y="504"/>
      <point x="176" y="504" type="curve" smooth="yes"/>
      <point x="138" y="504" type="line"/>
      <point x="138" y="411" type="line"/>
      <point x="170" y="411" type="line" smooth="yes"/>
      <point x="174" y="411"/>
      <point x="175" y="410"/>
      <point x="175" y="406" type="curve" smooth="yes"/>
      <point x="175" y="288" type="line"/>
      <point x="270" y="288" type="line"/>
    </contour>
    <contour>
      <point x="270" y="288" type="line"/>
      <point x="20" y="288" type="line"/>
      <point x="20" y="195" type="line"/>
      <point x="270" y="195" type="line"/>
    </contour>
    <contour>
      <point x="20" y="411" type="curve" smooth="yes"/>
      <point x="20" y="195" type="line"/>
      <point x="115" y="195" type="line"/>
      <point x="115" y="406" type="line" smooth="yes"/>
      <point x="115" y="410"/>
      <point x="116" y="411"/>
      <point x="120" y="411" type="curve" smooth="yes"/>
      <point x="152" y="411" type="line"/>
      <point x="152" y="504" type="line"/>
      <point x="114" y="504" type="line" smooth="yes"/>
      <point x="58" y="504"/>
      <point x="20" y="467"/>
    </contour>
  </outline>
</glyph>
<glyph name="f" format="2">
  <advance width="199"/>
  <unicode hex="0066"/>
  <outline>
    <contour>
      <point x="194" y="700" type="line"/>
      <point x="136" y="700" type="line" smooth="yes"/>
      <point x="80" y="700"/>
      <point x="42" y="663"/>
      <point x="42" y="607" type="curve" smooth="yes"/>
      <point x="42" y="0" type="line"/>
      <point x="137" y="0" type="line"/>
      <point x="137" y="649" type="line"/>
      <point x="93" y="607" type="line"/>
      <point x="194" y="607" type="line"/>
    </contour>
    <contour>
      <point x="10" y="500" type="line"/>
      <point x="0" y="407" type="line"/>
      <point x="176" y="407" type="line"/>
      <point x="186" y="500" type="line"/>
    </contour>
  </outline>
</glyph>
<glyph name="g" format="2">
  <advance width="268"/>
  <unicode hex="0067"/>
  <outline>
    <contour>
      <point x="163" y="-27" type="line"/>
      <point x="258" y="-27" type="line"/>
      <point x="258" y="500" type="line"/>
      <point x="163" y="500" type="line"/>
    </contour>
    <contour>
      <point x="10" y="202" type="line"/>
      <point x="105" y="202" type="line"/>
      <point x="105" y="402" type="line" smooth="yes"/>
      <point x="105" y="406"/>
      <point x="106" y="407"/>
      <point x="110" y="407" type="curve" smooth="yes"/>
      <point x="204" y="407" type="line"/>
      <point x="204" y="408" type="line" smooth="yes"/>
      <point x="204" y="461"/>
      <point x="168" y="500"/>
      <point x="115" y="500" type="curve" smooth="yes"/>
      <point x="111" y="500" type="line" smooth="yes"/>
      <point x="50" y="500"/>
      <point x="10" y="461"/>
      <point x="10" y="407" type="curve" smooth="yes"/>
    </contour>
    <contour>
      <point x="111" y="0" type="curve" smooth="yes"/>
      <point x="138" y="0" type="line"/>
      <point x="198" y="93" type="line"/>
      <point x="110" y="93" type="line" smooth="yes"/>
      <point x="106" y="93"/>
      <point x="105" y="94"/>
      <point x="105" y="98" type="curve" smooth="yes"/>
      <point x="105" y="258" type="line"/>
      <point x="10" y="258" type="line"/>
      <point x="10" y="93" type="line" smooth="yes"/>
      <point x="10" y="39"/>
      <point x="50" y="0"/>
    </contour>
    <contour>
      <point x="258" y="-40" type="curve" smooth="yes"/>
      <point x="258" y="21" type="line"/>
      <point x="163" y="21" type="line"/>
      <point x="163" y="-42" type="line" smooth="yes"/>
      <point x="163" y="-46"/>
      <point x="162" y="-47"/>
      <point x="158" y="-47" type="curve" smooth="yes"/>
      <point x="106" y="-47" type="line"/>
      <point x="106" y="-133" type="line"/>
      <point x="164" y="-133" type="line" smooth="yes"/>
      <point x="220" y="-133"/>
      <point x="258" y="-96"/>
    </contour>
    <contour>
      <point x="105" y="-20" type="line"/>
      <point x="10" y="-20" type="line"/>
      <point x="10" y="-40" type="line" smooth="yes"/>
      <point x="10" y="-96"/>
      <point x="48" y="-133"/>
      <point x="104" y="-133" type="curve" smooth="yes"/>
      <point x="152" y="-133" type="line"/>
      <point x="152" y="-47" type="line"/>
      <point x="110" y="-47" type="line" smooth="yes"/>
      <point x="106" y="-47"/>
      <point x="105" y="-46"/>
      <point x="105" y="-42" type="curve" smooth="yes"/>
    </contour>
  </outline>
</glyph>
<glyph name="h" format="2">
  <advance width="316"/>
  <unicode hex="0068"/>
  <outline>
    <contour>
      <point x="34" y="0" type="line"/>
      <point x="129" y="0" type="line"/>
      <point x="129" y="700" type="line"/>
      <point x="34" y="700" type="line"/>
    </contour>
    <contour>
      <point x="129" y="700" type="line"/>
      <point x="20" y="700" type="line"/>
      <point x="10" y="607" type="line"/>
      <point x="129" y="607" type="line"/>
    </contour>
    <contour>
      <point x="187" y="0" type="line"/>
      <point x="296" y="0" type="line"/>
      <point x="306" y="93" type="line"/>
      <point x="187" y="93" type="line"/>
    </contour>
    <contour>
      <point x="94" y="407" type="line"/>
      <point x="182" y="407" type="line" smooth="yes"/>
      <point x="186" y="407"/>
      <point x="187" y="406"/>
      <point x="187" y="402" type="curve" smooth="yes"/>
      <point x="187" y="0" type="line"/>
      <point x="282" y="0" type="line"/>
      <point x="282" y="407" type="line" smooth="yes"/>
      <point x="282" y="461"/>
      <point x="242" y="500"/>
      <point x="181" y="500" type="curve" smooth="yes"/>
      <point x="154" y="500" type="line"/>
    </contour>
  </outline>
</glyph>
<glyph name="i" format="2">
  <advance width="140"/>
  <unicode hex="0069"/>
  <outline>
    <contour>
      <point x="25" y="500" type="line"/>
      <point x="25" y="0" type="line"/>
      <point x="120" y="0" type="line"/>
      <point x="120" y="500" type="line"/>
    </contour>
    <contour>
      <point x="110" y="633" type="line"/>
      <point x="25" y="633" type="line"/>
      <point x="25" y="540" type="line"/>
      <point x="120" y="540" type="line"/>
    </contour>
    <contour>
      <point x="120" y="500" type="line"/>
      <point x="20" y="500" type="line"/>
      <point x="10" y="407" type="line"/>
      <point x="120" y="407" type="line"/>
    </contour>
  </outline>
</glyph>
<glyph name="j" format="2">
  <advance width="142"/>
  <unicode hex="006A"/>
  <outline>
    <contour>
      <point x="-40" y="-133" type="line"/>
      <point x="28" y="-133" type="line" smooth="yes"/>
      <point x="84" y="-133"/>
      <point x="122" y="-96"/>
      <point x="122" y="-40" type="curve" smooth="yes"/>
      <point x="122" y="500" type="line"/>
      <point x="27" y="500" type="line"/>
      <point x="27" y="-82" type="line"/>
      <point x="71" y="-40" type="line"/>
      <point x="-40" y="-40" type="line"/>
    </contour>
    <contour>
      <point x="12" y="407" type="line"/>
      <point x="122" y="407" type="line"/>
      <point x="122" y="500" type="line"/>
      <point x="22" y="500" type="line"/>
    </contour>
    <contour>
      <point x="27" y="540" type="line"/>
      <point x="122" y="540" type="line"/>
      <point x="112" y="633" type="line"/>
      <point x="27" y="633" type="line"/>
    </contour>
  </outline>
</glyph>
<glyph name="k" format="2">
  <advance width="312"/>
  <unicode hex="006B"/>
  <outline>
    <contour>
      <point x="34" y="0" type="line"/>
      <point x="129" y="0" type="line"/>
      <point x="129" y="700" type="line"/>
      <point x="34" y="700" type="line"/>
    </contour>
    <contour>
      <point x="185" y="312" type="line"/>
      <point x="92" y="312" type="line"/>
      <point x="219" y="0" type="line"/>
      <point x="312" y="0" type="line"/>
    </contour>
    <contour>
      <point x="185" y="262" type="line"/>
      <point x="302" y="500" type="line"/>
      <point x="209" y="500" type="line"/>
      <point x="92" y="262" type="line"/>
    </contour>
    <contour>
      <point x="129" y="700" type="line"/>
      <point x="20" y="700" type="line"/>
      <point x="10" y="607" type="line"/>
      <point x="129" y="607" type="line"/>
    </contour>
  </outline>
</glyph>
<glyph name="l" format="2">
  <advance width="171"/>
  <unicode hex="006C"/>
  <outline>
    <contour>
      <point x="30" y="700" type="line"/>
      <point x="31" y="0" type="line"/>
      <point x="126" y="0" type="line"/>
      <point x="125" y="700" type="line"/>
    </contour>
    <contour>
      <point x="125" y="700" type="line"/>
      <point x="20" y="700" type="line"/>
      <point x="10" y="607" type="line"/>
      <point x="125" y="607" type="line"/>
    </contour>
    <contour>
      <point x="31" y="93" type="line"/>
      <point x="31" y="0" type="line"/>
      <point x="161" y="0" type="line"/>
      <point x="151" y="93" type="line"/>
    </contour>
  </outline>
</glyph>
<glyph name="m" format="2">
  <advance width="469"/>
  <unicode hex="006D"/>
  <anchor x="235" y="0" name="bottom"/>
  <anchor x="235" y="500" name="top"/>
  <outline>
    <contour>
      <point x="129" y="500" type="line"/>
      <point x="34" y="500" type="line"/>
      <point x="34" y="0" type="line"/>
      <point x="129" y="0" type="line"/>
    </contour>
    <contour>
      <point x="129" y="500" type="line"/>
      <point x="20" y="500" type="line"/>
      <point x="10" y="407" type="line"/>
      <point x="129" y="407" type="line"/>
    </contour>
    <contour>
      <point x="340" y="0" type="line"/>
      <point x="449" y="0" type="line"/>
      <point x="459" y="93" type="line"/>
      <point x="340" y="93" type="line"/>
    </contour>
    <contour>
      <point x="282" y="0" type="line"/>
      <point x="282" y="407" type="line" smooth="yes"/>
      <point x="282" y="461"/>
      <point x="242" y="500"/>
      <point x="181" y="500" type="curve" smooth="yes"/>
      <point x="154" y="500" type="line"/>
      <point x="94" y="407" type="line"/>
      <point x="182" y="407" type="line" smooth="yes"/>
      <point x="186" y="407"/>
      <point x="187" y="406"/>
      <point x="187" y="402" type="curve" smooth="yes"/>
      <point x="187" y="0" type="line"/>
    </contour>
    <contour>
      <point x="435" y="0" type="line"/>
      <point x="435" y="407" type="line" smooth="yes"/>
      <point x="435" y="461"/>
      <point x="395" y="500"/>
      <point x="334" y="500" type="curve" smooth="yes"/>
      <point x="307" y="500" type="line"/>
      <point x="247" y="407" type="line"/>
      <point x="335" y="407" type="line" smooth="yes"/>
      <point x="339" y="407"/>
      <point x="340" y="406"/>
      <point x="340" y="402" type="curve" smooth="yes"/>
      <point x="340" y="0" type="line"/>
    </contour>
  </outline>
</glyph>
<glyph name="n" format="2">
  <advance width="317"/>
  <unicode hex="006E"/>
  <anchor x="159" y="0" name="bottom"/>
  <anchor x="159" y="500" name="top"/>
  <outline>
    <contour>
      <point x="34" y="0" type="line"/>
      <point x="129" y="0" type="line"/>
      <point x="129" y="500" type="line"/>
      <point x="34" y="500" type="line"/>
    </contour>
    <contour>
      <point x="10" y="407" type="line"/>
      <point x="129" y="407" type="line"/>
      <point x="129" y="500" type="line"/>
      <point x="20" y="500" type="line"/>
    </contour>
    <contour>
      <point x="282" y="0" type="line"/>
      <point x="282" y="407" type="line" smooth="yes"/>
      <point x="282" y="461"/>
      <point x="242" y="500"/>
      <point x="181" y="500" type="curve" smooth="yes"/>
      <point x="154" y="500" type="line"/>
      <point x="94" y="407" type="line"/>
      <point x="182" y="407" type="line" smooth="yes"/>
      <point x="186" y="407"/>
      <point x="187" y="406"/>
      <point x="187" y="402" type="curve" smooth="yes"/>
      <point x="187" y="0" type="line"/>
    </contour>
    <contour>
      <point x="187" y="0" type="line"/>
      <point x="297" y="0" type="line"/>
      <point x="307" y="93" type="line"/>
      <point x="187" y="93" type="line"/>
    </contour>
  </outline>
</glyph>
<glyph name="r" format="2">
  <advance width="233"/>
  <unicode hex="0072"/>
  <outline>
    <contour>
      <point x="129" y="500" type="line"/>
      <point x="34" y="500" type="line"/>
      <point x="34" y="0" type="line"/>
      <point x="129" y="0" type="line"/>
    </contour>
    <contour>
      <point x="223" y="500" type="line"/>
      <point x="156" y="500" type="line"/>
      <point x="96" y="403" type="line"/>
      <point x="223" y="403" type="line"/>
    </contour>
    <contour>
      <point x="129" y="500" type="line"/>
      <point x="20" y="500" type="line"/>
      <point x="10" y="407" type="line"/>
      <point x="129" y="407" type="line"/>
    </contour>
  </outline>
</glyph>
<glyph name="s" format="2">
  <advance width="280"/>
  <unicode hex="0073"/>
  <outline>
    <contour>
      <point x="114" y="504" type="line" smooth="yes"/>
      <point x="58" y="504"/>
      <point x="20" y="467"/>
      <point x="20" y="411" type="curve" smooth="yes"/>
      <point x="20" y="300" type="line" smooth="yes"/>
      <point x="20" y="255"/>
      <point x="55" y="238"/>
      <point x="76" y="229" type="curve" smooth="yes"/>
      <point x="203" y="175" type="line"/>
      <point x="165" y="233" type="line"/>
      <point x="165" y="98" type="line" smooth="yes"/>
      <point x="165" y="94"/>
      <point x="164" y="93"/>
      <point x="160" y="93" type="curve" smooth="yes"/>
      <point x="136" y="93" type="line"/>
      <point x="136" y="0" type="line"/>
      <point x="166" y="0" type="line" smooth="yes"/>
      <point x="222" y="0"/>
      <point x="260" y="37"/>
      <point x="260" y="93" type="curve" smooth="yes"/>
      <point x="260" y="204" type="line" smooth="yes"/>
      <point x="260" y="249"/>
      <point x="225" y="266"/>
      <point x="204" y="275" type="curve" smooth="yes"/>
      <point x="77" y="329" type="line"/>
      <point x="115" y="271" type="line"/>
      <point x="115" y="406" type="line" smooth="yes"/>
      <point x="115" y="410"/>
      <point x="116" y="411"/>
      <point x="120" y="411" type="curve" smooth="yes"/>
      <point x="144" y="411" type="line"/>
      <point x="144" y="504" type="line"/>
    </contour>
    <contour>
      <point x="20" y="157" type="line"/>
      <point x="20" y="93" type="line" smooth="yes"/>
      <point x="20" y="37"/>
      <point x="58" y="0"/>
      <point x="114" y="0" type="curve" smooth="yes"/>
      <point x="144" y="0" type="line"/>
      <point x="144" y="93" type="line"/>
      <point x="120" y="93" type="line" smooth="yes"/>
      <point x="116" y="93"/>
      <point x="115" y="94"/>
      <point x="115" y="98" type="curve" smooth="yes"/>
      <point x="115" y="147" type="line"/>
    </contour>
    <contour>
      <point x="260" y="347" type="line"/>
      <point x="260" y="411" type="line" smooth="yes"/>
      <point x="260" y="467"/>
      <point x="222" y="504"/>
      <point x="166" y="504" type="curve" smooth="yes"/>
      <point x="136" y="504" type="line"/>
      <point x="136" y="411" type="line"/>
      <point x="160" y="411" type="line" smooth="yes"/>
      <point x="164" y="411"/>
      <point x="165" y="410"/>
      <point x="165" y="406" type="curve" smooth="yes"/>
      <point x="165" y="357" type="line"/>
    </contour>
  </outline>
</glyph>
<glyph name="t" format="2">
  <advance width="214"/>
  <unicode hex="0074"/>
  <anchor x="107" y="0" name="bottom"/>
  <anchor x="107" y="250" name="center"/>
  <anchor x="94" y="500" name="top"/>
  <anchor x="194" y="500" name="topright"/>
  <outline>
    <contour>
      <point x="204" y="93" type="line"/>
      <point x="103" y="93" type="line"/>
      <point x="147" y="51" type="line"/>
      <point x="147" y="700" type="line"/>
      <point x="52" y="700" type="line"/>
      <point x="52" y="93" type="line" smooth="yes"/>
      <point x="52" y="37"/>
      <point x="90" y="0"/>
      <point x="146" y="0" type="curve" smooth="yes"/>
      <point x="204" y="0" type="line"/>
    </contour>
    <contour>
      <point x="10" y="407" type="line"/>
      <point x="196" y="407" type="line"/>
      <point x="204" y="500" type="line"/>
      <point x="18" y="500" type="line"/>
    </contour>
    <contour>
      <point x="27" y="607" type="line"/>
      <point x="147" y="607" type="line"/>
      <point x="147" y="700" type="line"/>
      <point x="35" y="700" type="line"/>
    </contour>
  </outline>
</glyph>
<glyph name="u" format="2">
  <advance width="302"/>
  <unicode hex="0075"/>
  <anchor x="151" y="0" name="bottom"/>
  <anchor x="272" y="10" name="ogonek"/>
  <anchor x="151" y="500" name="top"/>
  <anchor x="282" y="500" name="topright"/>
  <outline>
    <contour>
      <point x="187" y="0" type="line"/>
      <point x="282" y="0" type="line"/>
      <point x="282" y="500" type="line"/>
      <point x="187" y="500" type="line"/>
    </contour>
    <contour>
      <point x="187" y="93" type="line"/>
      <point x="187" y="0" type="line"/>
      <point x="307" y="0" type="line"/>
      <point x="297" y="93" type="line"/>
    </contour>
    <contour>
      <point x="129" y="500" type="line"/>
      <point x="20" y="500" type="line"/>
      <point x="10" y="407" type="line"/>
      <point x="129" y="407" type="line"/>
    </contour>
    <contour>
      <point x="34" y="500" type="line"/>
      <point x="34" y="93" type="line" smooth="yes"/>
      <point x="34" y="39"/>
      <point x="74" y="0"/>
      <point x="135" y="0" type="curve" smooth="yes"/>
      <point x="162" y="0" type="line"/>
      <point x="222" y="93" type="line"/>
      <point x="134" y="93" type="line" smooth="yes"/>
      <point x="130" y="93"/>
      <point x="129" y="94"/>
      <point x="129" y="98" type="curve" smooth="yes"/>
      <point x="129" y="500" type="line"/>
    </contour>
  </outline>
</glyph>
<glyph name="v" format="2">
  <advance width="308"/>
  <unicode hex="0076"/>
  <outline>
    <contour>
      <point x="10" y="500" type="line"/>
      <point x="106" y="0" type="line"/>
      <point x="202" y="0" type="line"/>
      <point x="298" y="500" type="line"/>
      <point x="210" y="500" type="line"/>
      <point x="134" y="61" type="line"/>
      <point x="174" y="61" type="line"/>
      <point x="98" y="500" type="line"/>
    </contour>
  </outline>
</glyph>
<glyph name="w" format="2">
  <advance width="469"/>
  <unicode hex="0077"/>
  <outline>
    <contour>
      <point x="340" y="93" type="line"/>
      <point x="340" y="0" type="line"/>
      <point x="459" y="0" type="line"/>
      <point x="449" y="93" type="line"/>
    </contour>
    <contour>
      <point x="340" y="0" type="line"/>
      <point x="435" y="0" type="line"/>
      <point x="435" y="500" type="line"/>
      <point x="340" y="500" type="line"/>
    </contour>
    <contour>
      <point x="129" y="500" type="line"/>
      <point x="20" y="500" type="line"/>
      <point x="10" y="407" type="line"/>
      <point x="129" y="407" type="line"/>
    </contour>
    <contour>
      <point x="187" y="500" type="line"/>
      <point x="187" y="93" type="line" smooth="yes"/>
      <point x="187" y="39"/>
      <point x="227" y="0"/>
      <point x="288" y="0" type="curve" smooth="yes"/>
      <point x="315" y="0" type="line"/>
      <point x="375" y="93" type="line"/>
      <point x="287" y="93" type="line" smooth="yes"/>
      <point x="283" y="93"/>
      <point x="282" y="94"/>
      <point x="282" y="98" type="curve" smooth="yes"/>
      <point x="282" y="500" type="line"/>
    </contour>
    <contour>
      <point x="34" y="500" type="line"/>
      <point x="34" y="93" type="line" smooth="yes"/>
      <point x="34" y="39"/>
      <point x="74" y="0"/>
      <point x="135" y="0" type="curve" smooth="yes"/>
      <point x="162" y="0" type="line"/>
      <point x="222" y="93" type="line"/>
      <point x="134" y="93" type="line" smooth="yes"/>
      <point x="130" y="93"/>
      <point x="129" y="94"/>
      <point x="129" y="98" type="curve" smooth="yes"/>
      <point x="129" y="500" type="line"/>
    </contour>
  </outline>
</glyph>
<glyph name="x" format="2">
  <advance width="290"/>
  <unicode hex="0078"/>
  <outline>
    <contour>
      <point x="95" y="500" type="line"/>
      <point x="0" y="500" type="line"/>
      <point x="97" y="218" type="line"/>
      <point x="193" y="218" type="line"/>
      <point x="290" y="500" type="line"/>
      <point x="195" y="500" type="line"/>
      <point x="131" y="317" type="line"/>
      <point x="159" y="317" type="line"/>
    </contour>
    <contour>
      <point x="195" y="0" type="line"/>
      <point x="290" y="0" type="line"/>
      <point x="193" y="282" type="line"/>
      <point x="97" y="282" type="line"/>
      <point x="0" y="0" type="line"/>
      <point x="95" y="0" type="line"/>
      <point x="159" y="183" type="line"/>
      <point x="131" y="183" type="line"/>
    </contour>
  </outline>
</glyph>
<glyph name="y" format="2">
  <advance width="288"/>
  <unicode hex="0079"/>
  <anchor x="144" y="0" name="bottom"/>
  <anchor x="144" y="500" name="top"/>
  <outline>
    <contour>
      <point x="114" y="-133" type="curve" smooth="yes"/>
      <point x="174" y="-133" type="line" smooth="yes"/>
      <point x="227.634" y="-133"/>
      <point x="268" y="-99"/>
      <point x="267.798" y="-46.994" type="curve" smooth="yes"/>
      <point x="268" y="500" type="line"/>
      <point x="173" y="500" type="line"/>
      <point x="173" y="-89" type="line"/>
      <point x="215" y="-47" type="line"/>
      <point x="73" y="-47" type="line"/>
      <point x="115" y="-89" type="line"/>
      <point x="115" y="-20" type="line"/>
      <point x="20" y="-20" type="line"/>
      <point x="20" y="-40" type="line" smooth="yes"/>
      <point x="20" y="-96"/>
      <point x="58" y="-133"/>
    </contour>
    <contour>
      <point x="121" y="0" type="curve" smooth="yes"/>
      <point x="148" y="0" type="line"/>
      <point x="208" y="93" type="line"/>
      <point x="73" y="93" type="line"/>
      <point x="115" y="51" type="line"/>
      <point x="115" y="500" type="line"/>
      <point x="20" y="500" type="line"/>
      <point x="20" y="93" type="line" smooth="yes"/>
      <point x="20" y="39"/>
      <point x="60" y="0"/>
    </contour>
    <contour>
      <point x="5" y="407" type="line"/>
      <point x="115" y="407" type="line"/>
      <point x="115" y="500" type="line"/>
      <point x="15" y="500" type="line"/>
    </contour>
  </outline>
</glyph>
<glyph name="z" format="2">
  <advance width="267"/>
  <unicode hex="007A"/>
  <outline>
    <contour>
      <point x="10" y="1" type="line"/>
      <point x="239" y="1" type="line"/>
      <point x="247" y="94" type="line"/>
      <point x="73" y="94" type="line"/>
      <point x="102" y="54" type="line"/>
      <point x="252" y="390" type="line" smooth="yes"/>
      <point x="256" y="399"/>
      <point x="257" y="413"/>
      <point x="257" y="426" type="curve" smooth="yes"/>
      <point x="257" y="499" type="line"/>
      <point x="18" y="499" type="line"/>
      <point x="10" y="406" type="line"/>
      <point x="204" y="406" type="line"/>
      <point x="175" y="446" type="line"/>
      <point x="15" y="110" type="line" smooth="yes"/>
      <point x="11" y="101"/>
      <point x="10" y="87"/>
      <point x="10" y="74" type="curve" smooth="yes"/>
    </contour>
  </outline>
</glyph>
<glyph name="braceleft" format="2">
  <advance width="288"/>
  <unicode hex="007B"/>
  <note>
braceleft
</note>
  <outline>
    <contour>
      <point x="268" y="-130" type="line"/>
      <point x="268" y="-57" type="line"/>
      <point x="173" y="-57" type="line"/>
      <point x="215" y="-99" type="line"/>
      <point x="215" y="142" type="line" smooth="yes"/>
      <point x="215" y="233"/>
      <point x="162" y="297"/>
      <point x="122" y="298" type="curve"/>
      <point x="122" y="305" type="line"/>
      <point x="162" y="303"/>
      <point x="215" y="368"/>
      <point x="215" y="461" type="curve" smooth="yes"/>
      <point x="215" y="702" type="line"/>
      <point x="173" y="660" type="line"/>
      <point x="268" y="660" type="line"/>
      <point x="268" y="733" type="line"/>
      <point x="216" y="733" type="line" smooth="yes"/>
      <point x="161" y="733"/>
      <point x="122" y="694"/>
      <point x="122" y="640" type="curve" smooth="yes"/>
      <point x="122" y="550" type="line" smooth="yes"/>
      <point x="122" y="458"/>
      <point x="110" y="355"/>
      <point x="20" y="354" type="curve"/>
      <point x="20" y="249" type="line"/>
      <point x="110" y="249"/>
      <point x="122" y="145"/>
      <point x="122" y="53" type="curve" smooth="yes"/>
      <point x="122" y="-37" type="line" smooth="yes"/>
      <point x="122" y="-91"/>
      <point x="161" y="-130"/>
      <point x="216" y="-130" type="curve" smooth="yes"/>
    </contour>
  </outline>
</glyph>
<glyph name="bar" format="2">
  <advance width="135"/>
  <unicode hex="007C"/>
  <outline>
    <contour>
      <point x="20" y="700" type="line"/>
      <point x="20" y="-100" type="line"/>
      <point x="115" y="-100" type="line"/>
      <point x="115" y="700" type="line"/>
    </contour>
  </outline>
</glyph>
<glyph name="braceright" format="2">
  <advance width="268"/>
  <unicode hex="007D"/>
  <note>
braceright
</note>
  <outline>
    <contour>
      <point x="0" y="-130" type="line"/>
      <point x="52" y="-130" type="line" smooth="yes"/>
      <point x="107" y="-130"/>
      <point x="146" y="-91"/>
      <point x="146" y="-37" type="curve" smooth="yes"/>
      <point x="146" y="53" type="line" smooth="yes"/>
      <point x="146" y="145"/>
      <point x="158" y="249"/>
      <point x="248" y="249" type="curve"/>
      <point x="248" y="354" type="line"/>
      <point x="158" y="355"/>
      <point x="146" y="458"/>
      <point x="146" y="550" type="curve" smooth="yes"/>
      <point x="146" y="640" type="line" smooth="yes"/>
      <point x="146" y="694"/>
      <point x="107" y="733"/>
      <point x="52" y="733" type="curve" smooth="yes"/>
      <point x="0" y="733" type="line"/>
      <point x="0" y="660" type="line"/>
      <point x="95" y="660" type="line"/>
      <point x="53" y="702" type="line"/>
      <point x="53" y="461" type="line" smooth="yes"/>
      <point x="53" y="368"/>
      <point x="106" y="303"/>
      <point x="146" y="305" type="curve"/>
      <point x="146" y="298" type="line"/>
      <point x="106" y="297"/>
      <point x="53" y="233"/>
      <point x="53" y="142" type="curve" smooth="yes"/>
      <point x="53" y="-99" type="line"/>
      <point x="95" y="-57" type="line"/>
      <point x="0" y="-57" type="line"/>
    </contour>
  </outline>
</glyph>
<glyph name="asciitilde" format="2">
  <advance width="375"/>
  <unicode hex="007E"/>
  <note>
asciitilde
</note>
  <outline>
    <contour>
      <point x="20" y="230" type="line"/>
      <point x="59" y="278"/>
      <point x="113" y="278"/>
      <point x="180" y="250" type="curve" smooth="yes"/>
      <point x="251" y="220"/>
      <point x="313" y="217"/>
      <point x="355" y="263" type="curve"/>
      <point x="355" y="367" type="line"/>
      <point x="316" y="315"/>
      <point x="264" y="319"/>
      <point x="195" y="347" type="curve" smooth="yes"/>
      <point x="125" y="375"/>
      <point x="62" y="375"/>
      <point x="20" y="334" type="curve"/>
    </contour>
  </outline>
</glyph>
<glyph name="exclamdown" format="2">
  <advance width="133"/>
  <unicode hex="00A1"/>
  <outline>
    <contour>
      <point x="20" y="457" type="line"/>
      <point x="113" y="457" type="line"/>
      <point x="113" y="550" type="line"/>
      <point x="20" y="550" type="line"/>
    </contour>
    <contour>
      <point x="20" y="-50" type="line"/>
      <point x="113" y="-50" type="line"/>
      <point x="113" y="422" type="line"/>
      <point x="20" y="422" type="line"/>
    </contour>
  </outline>
</glyph>
<glyph name="cent" format="2">
  <advance width="317"/>
  <unicode hex="00A2"/>
  <outline>
    <contour>
      <point x="20" y="487" type="curve" smooth="yes"/>
      <point x="20" y="276" type="line"/>
      <point x="115" y="276" type="line"/>
      <point x="115" y="482" type="line" smooth="yes"/>
      <point x="115" y="486"/>
      <point x="116" y="487"/>
      <point x="120" y="487" type="curve" smooth="yes"/>
      <point x="159" y="487" type="line"/>
      <point x="159" y="580" type="line"/>
      <point x="114" y="580" type="line" smooth="yes"/>
      <point x="58" y="580"/>
      <point x="20" y="543"/>
    </contour>
    <contour>
      <point x="297" y="329" type="line"/>
      <point x="297" y="487" type="line" smooth="yes"/>
      <point x="297" y="543"/>
      <point x="259" y="580"/>
      <point x="203" y="580" type="curve" smooth="yes"/>
      <point x="159" y="580" type="line"/>
      <point x="159" y="487" type="line"/>
      <point x="197" y="487" type="line" smooth="yes"/>
      <point x="201" y="487"/>
      <point x="202" y="486"/>
      <point x="202" y="482" type="curve" smooth="yes"/>
      <point x="202" y="339" type="line"/>
    </contour>
    <contour>
      <point x="297" y="210" type="line"/>
      <point x="202" y="210" type="line"/>
      <point x="202" y="98" type="line" smooth="yes"/>
      <point x="202" y="94"/>
      <point x="201" y="93"/>
      <point x="197" y="93" type="curve" smooth="yes"/>
      <point x="120" y="93" type="line" smooth="yes"/>
      <point x="116" y="93"/>
      <point x="115" y="94"/>
      <point x="115" y="98" type="curve" smooth="yes"/>
      <point x="115" y="276" type="line"/>
      <point x="20" y="276" type="line"/>
      <point x="20" y="93" type="line" smooth="yes"/>
      <point x="20" y="37"/>
      <point x="58" y="0"/>
      <point x="114" y="0" type="curve" smooth="yes"/>
      <point x="203" y="0" type="line" smooth="yes"/>
      <point x="259" y="0"/>
      <point x="297" y="37"/>
      <point x="297" y="93" type="curve" smooth="yes"/>
    </contour>
    <contour>
      <point x="112" y="624" type="line"/>
      <point x="112" y="507" type="line"/>
      <point x="205" y="507" type="line"/>
      <point x="205" y="624" type="line"/>
    </contour>
    <contour>
      <point x="112" y="-40" type="line"/>
      <point x="205" y="-40" type="line"/>
      <point x="205" y="93" type="line"/>
      <point x="112" y="93" type="line"/>
    </contour>
  </outline>
</glyph>
<glyph name="sterling" format="2">
  <advance width="358"/>
  <unicode hex="00A3"/>
  <outline>
    <contour>
      <point x="244" y="600" type="curve" smooth="yes"/>
      <point x="151" y="600" type="line" smooth="yes"/>
      <point x="95" y="600"/>
      <point x="57" y="563"/>
      <point x="57" y="507" type="curve" smooth="yes"/>
      <point x="57" y="324" type="line"/>
      <point x="152" y="324" type="line"/>
      <point x="152" y="502" type="line" smooth="yes"/>
      <point x="152" y="506"/>
      <point x="153" y="507"/>
      <point x="157" y="507" type="curve" smooth="yes"/>
      <point x="238" y="507" type="line" smooth="yes"/>
      <point x="242" y="507"/>
      <point x="243" y="506"/>
      <point x="243" y="503" type="curve" smooth="yes"/>
      <point x="243" y="405" type="line"/>
      <point x="338" y="395" type="line"/>
      <point x="338" y="507" type="line" smooth="yes"/>
      <point x="338" y="563"/>
      <point x="300" y="600"/>
    </contour>
    <contour>
      <point x="217" y="300" type="line"/>
      <point x="30" y="300" type="line"/>
      <point x="20" y="242" type="line"/>
      <point x="207" y="242" type="line"/>
    </contour>
    <contour>
      <point x="20" y="0" type="line"/>
      <point x="338" y="0" type="line"/>
      <point x="338" y="93" type="line"/>
      <point x="20" y="93" type="line"/>
    </contour>
    <contour>
      <point x="152" y="173" type="curve" smooth="yes"/>
      <point x="152" y="342" type="line"/>
      <point x="57" y="342" type="line"/>
      <point x="56" y="98" type="line" smooth="yes"/>
      <point x="56" y="94"/>
      <point x="55" y="93"/>
      <point x="51" y="93" type="curve" smooth="yes"/>
      <point x="20" y="93" type="line"/>
      <point x="20" y="30" type="line"/>
      <point x="25" y="30" type="line" smooth="yes"/>
      <point x="108" y="30"/>
      <point x="152" y="79"/>
    </contour>
  </outline>
</glyph>
<glyph name="currency" format="2">
  <advance width="377"/>
  <unicode hex="00A4"/>
  <outline>
    <contour>
      <point x="190" y="289" type="curve" smooth="yes"/>
      <point x="280" y="289"/>
      <point x="328" y="336"/>
      <point x="328" y="428" type="curve" smooth="yes"/>
      <point x="328" y="519"/>
      <point x="280" y="568"/>
      <point x="190" y="568" type="curve" smooth="yes"/>
      <point x="98" y="568"/>
      <point x="50" y="518"/>
      <point x="50" y="428" type="curve" smooth="yes"/>
      <point x="50" y="336"/>
      <point x="98" y="289"/>
    </contour>
    <contour>
      <point x="188" y="377" type="curve" smooth="yes"/>
      <point x="156" y="377"/>
      <point x="139" y="394"/>
      <point x="139" y="427" type="curve" smooth="yes"/>
      <point x="139" y="460"/>
      <point x="156" y="478"/>
      <point x="188" y="478" type="curve" smooth="yes"/>
      <point x="223" y="478"/>
      <point x="240" y="461"/>
      <point x="240" y="427" type="curve" smooth="yes"/>
      <point x="240" y="394"/>
      <point x="223" y="377"/>
    </contour>
    <contour>
      <point x="290" y="600" type="line"/>
      <point x="199" y="508" type="line"/>
      <point x="265" y="441" type="line"/>
      <point x="357" y="533" type="line"/>
    </contour>
    <contour>
      <point x="20" y="533" type="line"/>
      <point x="112" y="442" type="line"/>
      <point x="179" y="508" type="line"/>
      <point x="87" y="600" type="line"/>
    </contour>
    <contour>
      <point x="290" y="255" type="line"/>
      <point x="357" y="322" type="line"/>
      <point x="265" y="414" type="line"/>
      <point x="199" y="347" type="line"/>
    </contour>
    <contour>
      <point x="20" y="322" type="line"/>
      <point x="87" y="255" type="line"/>
      <point x="179" y="347" type="line"/>
      <point x="112" y="413" type="line"/>
    </contour>
  </outline>
</glyph>
<glyph name="yen" format="2">
  <advance width="369"/>
  <unicode hex="00A5"/>
  <outline>
    <contour>
      <point x="115" y="700" type="line"/>
      <point x="20" y="700" type="line"/>
      <point x="137" y="309" type="line"/>
      <point x="232" y="309" type="line"/>
      <point x="349" y="700" type="line"/>
      <point x="254" y="700" type="line"/>
      <point x="173" y="428" type="line"/>
      <point x="196" y="428" type="line"/>
    </contour>
    <contour>
      <point x="232" y="309" type="line"/>
      <point x="137" y="309" type="line"/>
      <point x="137" y="0" type="line"/>
      <point x="232" y="0" type="line"/>
    </contour>
    <contour>
      <point x="304" y="359" type="line"/>
      <point x="64" y="359" type="line"/>
      <point x="64" y="264" type="line"/>
      <point x="304" y="264" type="line"/>
    </contour>
    <contour>
      <point x="304" y="240" type="line"/>
      <point x="64" y="240" type="line"/>
      <point x="64" y="145" type="line"/>
      <point x="304" y="145" type="line"/>
    </contour>
  </outline>
</glyph>
<glyph name="brokenbar" format="2">
  <advance width="135"/>
  <unicode hex="00A6"/>
  <outline>
    <contour>
      <point x="20" y="700" type="line"/>
      <point x="20" y="370" type="line"/>
      <point x="115" y="370" type="line"/>
      <point x="115" y="700" type="line"/>
    </contour>
    <contour>
      <point x="20" y="234" type="line"/>
      <point x="20" y="-96" type="line"/>
      <point x="115" y="-96" type="line"/>
      <point x="115" y="234" type="line"/>
    </contour>
  </outline>
</glyph>
<glyph name="section" format="2">
  <advance width="280"/>
  <unicode hex="00A7"/>
  <outline>
    <contour>
      <point x="260" y="396" type="line" smooth="yes"/>
      <point x="260" y="452"/>
      <point x="222" y="489"/>
      <point x="166" y="489" type="curve" smooth="yes"/>
      <point x="114" y="489" type="line" smooth="yes"/>
      <point x="58" y="489"/>
      <point x="20" y="452"/>
      <point x="20" y="396" type="curve" smooth="yes"/>
      <point x="20" y="300" type="line" smooth="yes"/>
      <point x="20" y="244"/>
      <point x="58" y="207"/>
      <point x="114" y="207" type="curve" smooth="yes"/>
      <point x="166" y="207" type="line" smooth="yes"/>
      <point x="222" y="207"/>
      <point x="260" y="244"/>
      <point x="260" y="300" type="curve" smooth="yes"/>
    </contour>
    <contour>
      <point x="115" y="305" type="curve" smooth="yes"/>
      <point x="115" y="391" type="line" smooth="yes"/>
      <point x="115" y="395"/>
      <point x="116" y="396"/>
      <point x="120" y="396" type="curve" smooth="yes"/>
      <point x="160" y="396" type="line" smooth="yes"/>
      <point x="164" y="396"/>
      <point x="165" y="395"/>
      <point x="165" y="391" type="curve" smooth="yes"/>
      <point x="165" y="305" type="line" smooth="yes"/>
      <point x="165" y="301"/>
      <point x="164" y="300"/>
      <point x="160" y="300" type="curve" smooth="yes"/>
      <point x="120" y="300" type="line" smooth="yes"/>
      <point x="116" y="300"/>
      <point x="115" y="301"/>
    </contour>
    <contour>
      <point x="260" y="543" type="line"/>
      <point x="260" y="607" type="line" smooth="yes"/>
      <point x="260" y="663"/>
      <point x="221" y="700"/>
      <point x="166" y="700" type="curve" smooth="yes"/>
      <point x="136" y="700" type="line"/>
      <point x="136" y="607" type="line"/>
      <point x="160" y="607" type="line" smooth="yes"/>
      <point x="164" y="607"/>
      <point x="165" y="606"/>
      <point x="165" y="602" type="curve" smooth="yes"/>
      <point x="165" y="553" type="line"/>
    </contour>
    <contour>
      <point x="136" y="411" type="line"/>
      <point x="202" y="483" type="line"/>
      <point x="77" y="536" type="line"/>
      <point x="115" y="478" type="line"/>
      <point x="115" y="602" type="line" smooth="yes"/>
      <point x="115" y="606"/>
      <point x="116" y="607"/>
      <point x="120" y="607" type="curve" smooth="yes"/>
      <point x="144" y="607" type="line"/>
      <point x="144" y="700" type="line"/>
      <point x="114" y="700" type="line" smooth="yes"/>
      <point x="58" y="700"/>
      <point x="20" y="662"/>
      <point x="20" y="607" type="curve" smooth="yes"/>
      <point x="20" y="507" type="line" smooth="yes"/>
      <point x="20" y="462"/>
      <point x="55" y="445"/>
      <point x="76" y="436" type="curve" smooth="yes"/>
    </contour>
    <contour>
      <point x="144" y="285" type="line"/>
      <point x="78" y="213" type="line"/>
      <point x="203" y="160" type="line"/>
      <point x="165" y="218" type="line"/>
      <point x="165" y="94" type="line" smooth="yes"/>
      <point x="165" y="90"/>
      <point x="164" y="89"/>
      <point x="160" y="89" type="curve" smooth="yes"/>
      <point x="136" y="89" type="line"/>
      <point x="136" y="-4" type="line"/>
      <point x="166" y="-4" type="line" smooth="yes"/>
      <point x="222" y="-4"/>
      <point x="260" y="34"/>
      <point x="260" y="89" type="curve" smooth="yes"/>
      <point x="260" y="189" type="line" smooth="yes"/>
      <point x="260" y="234"/>
      <point x="225" y="251"/>
      <point x="204" y="260" type="curve" smooth="yes"/>
    </contour>
    <contour>
      <point x="20" y="153" type="line"/>
      <point x="20" y="89" type="line" smooth="yes"/>
      <point x="20" y="33"/>
      <point x="59" y="-4"/>
      <point x="114" y="-4" type="curve" smooth="yes"/>
      <point x="144" y="-4" type="line"/>
      <point x="144" y="89" type="line"/>
      <point x="120" y="89" type="line" smooth="yes"/>
      <point x="116" y="89"/>
      <point x="115" y="90"/>
      <point x="115" y="94" type="curve" smooth="yes"/>
      <point x="115" y="143" type="line"/>
    </contour>
  </outline>
</glyph>
<glyph name="dieresis" format="2">
  <advance width="201"/>
  <unicode hex="00A8"/>
  <outline>
    <contour>
      <point x="108" y="800" type="line"/>
      <point x="108" y="727" type="line"/>
      <point x="181" y="727" type="line"/>
      <point x="181" y="800" type="line"/>
    </contour>
    <contour>
      <point x="20" y="800" type="line"/>
      <point x="20" y="727" type="line"/>
      <point x="93" y="727" type="line"/>
      <point x="93" y="800" type="line"/>
    </contour>
  </outline>
</glyph>
<glyph name="copyright" format="2">
  <advance width="603"/>
  <unicode hex="00A9"/>
  <note>
copyright
</note>
  <outline>
    <contour>
      <point x="114" y="0" type="curve" smooth="yes"/>
      <point x="489" y="0" type="line" smooth="yes"/>
      <point x="545" y="0"/>
      <point x="583" y="37"/>
      <point x="583" y="93" type="curve" smooth="yes"/>
      <point x="583" y="536" type="line" smooth="yes"/>
      <point x="583" y="592"/>
      <point x="545" y="629"/>
      <point x="489" y="629" type="curve" smooth="yes"/>
      <point x="114" y="629" type="line" smooth="yes"/>
      <point x="58" y="629"/>
      <point x="20" y="597"/>
      <point x="20" y="549" type="curve" smooth="yes"/>
      <point x="20" y="80" type="line" smooth="yes"/>
      <point x="20" y="32"/>
      <point x="58" y="0"/>
    </contour>
    <contour>
      <point x="118" y="93" type="line" smooth="yes"/>
      <point x="114" y="93"/>
      <point x="113" y="94"/>
      <point x="113" y="98" type="curve" smooth="yes"/>
      <point x="113" y="531" type="line" smooth="yes"/>
      <point x="113" y="535"/>
      <point x="114" y="536"/>
      <point x="118" y="536" type="curve" smooth="yes"/>
      <point x="485" y="536" type="line" smooth="yes"/>
      <point x="489" y="536"/>
      <point x="490" y="535"/>
      <point x="490" y="531" type="curve" smooth="yes"/>
      <point x="490" y="98" type="line" smooth="yes"/>
      <point x="490" y="94"/>
      <point x="489" y="93"/>
      <point x="485" y="93" type="curve" smooth="yes"/>
    </contour>
    <contour>
      <point x="445" y="317" type="line"/>
      <point x="445" y="401" type="line" smooth="yes"/>
      <point x="445" y="457"/>
      <point x="407" y="494"/>
      <point x="351" y="494" type="curve" smooth="yes"/>
      <point x="253" y="494" type="line" smooth="yes"/>
      <point x="197" y="494"/>
      <point x="159" y="457"/>
      <point x="159" y="401" type="curve" smooth="yes"/>
      <point x="159" y="228" type="line" smooth="yes"/>
      <point x="159" y="172"/>
      <point x="197" y="135"/>
      <point x="253" y="135" type="curve" smooth="yes"/>
      <point x="351" y="135" type="line" smooth="yes"/>
      <point x="407" y="135"/>
      <point x="445" y="172"/>
      <point x="445" y="228" type="curve" smooth="yes"/>
      <point x="445" y="288" type="line"/>
      <point x="352" y="288" type="line"/>
      <point x="352" y="233" type="line" smooth="yes"/>
      <point x="352" y="229"/>
      <point x="351" y="228"/>
      <point x="347" y="228" type="curve" smooth="yes"/>
      <point x="257" y="228" type="line" smooth="yes"/>
      <point x="253" y="228"/>
      <point x="252" y="229"/>
      <point x="252" y="233" type="curve" smooth="yes"/>
      <point x="252" y="396" type="line" smooth="yes"/>
      <point x="252" y="400"/>
      <point x="253" y="401"/>
      <point x="257" y="401" type="curve" smooth="yes"/>
      <point x="347" y="401" type="line" smooth="yes"/>
      <point x="351" y="401"/>
      <point x="352" y="400"/>
      <point x="352" y="396" type="curve" smooth="yes"/>
      <point x="352" y="327" type="line"/>
    </contour>
  </outline>
</glyph>
<glyph name="ordfeminine" format="2">
  <advance width="302"/>
  <unicode hex="00AA"/>
  <outline>
    <contour>
      <point x="214" y="607" type="line"/>
      <point x="214" y="661"/>
      <point x="178" y="700"/>
      <point x="123" y="700" type="curve" smooth="yes"/>
      <point x="60" y="700"/>
      <point x="20" y="661"/>
      <point x="20" y="607" type="curve" smooth="yes"/>
      <point x="20" y="548" type="line"/>
      <point x="115" y="548" type="line"/>
      <point x="115" y="602" type="line" smooth="yes"/>
      <point x="115" y="606"/>
      <point x="116" y="607"/>
      <point x="120" y="607" type="curve" smooth="yes"/>
    </contour>
    <contour>
      <point x="20" y="558" type="line"/>
      <point x="20" y="509" type="line" smooth="yes"/>
      <point x="20" y="455"/>
      <point x="60" y="416"/>
      <point x="121" y="416" type="curve" smooth="yes"/>
      <point x="148" y="416" type="line"/>
      <point x="208" y="509" type="line"/>
      <point x="120" y="509" type="line" smooth="yes"/>
      <point x="116" y="509"/>
      <point x="115" y="510"/>
      <point x="115" y="514" type="curve" smooth="yes"/>
      <point x="115" y="558" type="line"/>
    </contour>
    <contour>
      <point x="173" y="700" type="line"/>
      <point x="173" y="416" type="line"/>
      <point x="268" y="416" type="line"/>
      <point x="268" y="700" type="line"/>
    </contour>
    <contour>
      <point x="292" y="416" type="line"/>
      <point x="282" y="509" type="line"/>
      <point x="173" y="509" type="line"/>
      <point x="173" y="416" type="line"/>
    </contour>
    <contour>
      <point x="40" y="300" type="line"/>
      <point x="272" y="300" type="line"/>
      <point x="272" y="395" type="line"/>
      <point x="40" y="395" type="line"/>
    </contour>
  </outline>
</glyph>
<glyph name="guillemetleft" format="2">
  <advance width="360"/>
  <unicode hex="00AB"/>
  <outline>
    <contour>
      <point x="340" y="45" type="line"/>
      <point x="340" y="150" type="line"/>
      <point x="215" y="275" type="line"/>
      <point x="215" y="223" type="line"/>
      <point x="340" y="348" type="line"/>
      <point x="340" y="453" type="line"/>
      <point x="160" y="271" type="line"/>
      <point x="160" y="231" type="line"/>
    </contour>
    <contour>
      <point x="200" y="45" type="line"/>
      <point x="200" y="150" type="line"/>
      <point x="75" y="275" type="line"/>
      <point x="75" y="223" type="line"/>
      <point x="200" y="348" type="line"/>
      <point x="200" y="453" type="line"/>
      <point x="20" y="271" type="line"/>
      <point x="20" y="231" type="line"/>
    </contour>
  </outline>
</glyph>
<glyph name="logicalnot" format="2">
  <advance width="354"/>
  <unicode hex="00AC"/>
  <outline>
    <contour>
      <point x="239" y="388" type="line"/>
      <point x="239" y="214" type="line"/>
      <point x="334" y="214" type="line"/>
      <point x="334" y="388" type="line"/>
    </contour>
    <contour>
      <point x="334" y="388" type="line"/>
      <point x="20" y="388" type="line"/>
      <point x="20" y="295" type="line"/>
      <point x="334" y="295" type="line"/>
    </contour>
  </outline>
</glyph>
<glyph name="registered" format="2">
  <advance width="603"/>
  <unicode hex="00AE"/>
  <outline>
    <contour>
      <point x="183" y="308" type="line"/>
      <point x="278" y="308" type="line"/>
      <point x="278" y="667" type="line"/>
      <point x="183" y="667" type="line"/>
    </contour>
    <contour>
      <point x="430" y="500" type="curve" smooth="yes"/>
      <point x="430" y="560" type="line"/>
      <point x="335" y="560" type="line"/>
      <point x="335" y="505" type="line" smooth="yes"/>
      <point x="335" y="501"/>
      <point x="334" y="500"/>
      <point x="330" y="500" type="curve" smooth="yes"/>
      <point x="183" y="500" type="line"/>
      <point x="183" y="407" type="line"/>
      <point x="325" y="407" type="line" smooth="yes"/>
      <point x="381" y="407"/>
      <point x="430" y="444"/>
    </contour>
    <contour>
      <point x="336" y="667" type="curve" smooth="yes"/>
      <point x="183" y="667" type="line"/>
      <point x="183" y="574" type="line"/>
      <point x="330" y="574" type="line" smooth="yes"/>
      <point x="334" y="574"/>
      <point x="335" y="573"/>
      <point x="335" y="569" type="curve" smooth="yes"/>
      <point x="335" y="560" type="line"/>
      <point x="430" y="560" type="line"/>
      <point x="430" y="574" type="line" smooth="yes"/>
      <point x="430" y="630"/>
      <point x="392" y="667"/>
    </contour>
    <contour>
      <point x="168" y="574" type="line"/>
      <point x="278" y="574" type="line"/>
      <point x="278" y="667" type="line"/>
      <point x="178" y="667" type="line"/>
    </contour>
    <contour>
      <point x="345" y="308" type="line"/>
      <point x="441" y="308" type="line"/>
      <point x="379" y="495" type="line"/>
      <point x="284" y="495" type="line"/>
    </contour>
    <contour>
      <point x="114" y="171" type="curve" smooth="yes"/>
      <point x="489" y="171" type="line" smooth="yes"/>
      <point x="545" y="171"/>
      <point x="583" y="208"/>
      <point x="583" y="264" type="curve" smooth="yes"/>
      <point x="583" y="707" type="line" smooth="yes"/>
      <point x="583" y="763"/>
      <point x="545" y="800"/>
      <point x="489" y="800" type="curve" smooth="yes"/>
      <point x="114" y="800" type="line" smooth="yes"/>
      <point x="58" y="800"/>
      <point x="20" y="768"/>
      <point x="20" y="720" type="curve" smooth="yes"/>
      <point x="20" y="251" type="line" smooth="yes"/>
      <point x="20" y="203"/>
      <point x="58" y="171"/>
    </contour>
    <contour>
      <point x="118" y="264" type="line" smooth="yes"/>
      <point x="114" y="264"/>
      <point x="113" y="265"/>
      <point x="113" y="269" type="curve" smooth="yes"/>
      <point x="113" y="702" type="line" smooth="yes"/>
      <point x="113" y="706"/>
      <point x="114" y="707"/>
      <point x="118" y="707" type="curve" smooth="yes"/>
      <point x="485" y="707" type="line" smooth="yes"/>
      <point x="489" y="707"/>
      <point x="490" y="706"/>
      <point x="490" y="702" type="curve" smooth="yes"/>
      <point x="490" y="269" type="line" smooth="yes"/>
      <point x="490" y="265"/>
      <point x="489" y="264"/>
      <point x="485" y="264" type="curve" smooth="yes"/>
    </contour>
  </outline>
</glyph>
<glyph name="macron" format="2">
  <advance width="250"/>
  <unicode hex="00AF"/>
  <outline>
    <contour>
      <point x="20" y="727" type="line"/>
      <point x="230" y="727" type="line"/>
      <point x="230" y="800" type="line"/>
      <point x="20" y="800" type="line"/>
    </contour>
  </outline>
</glyph>
<glyph name="degree" format="2">
  <advance width="261"/>
  <unicode hex="00B0"/>
  <note>
degree
</note>
  <outline>
    <contour>
      <point x="125" y="440" type="curve" smooth="yes"/>
      <point x="193" y="440"/>
      <point x="229" y="484"/>
      <point x="229" y="569" type="curve" smooth="yes"/>
      <point x="229" y="654"/>
      <point x="193" y="699"/>
      <point x="125" y="699" type="curve" smooth="yes"/>
      <point x="56" y="699"/>
      <point x="20" y="654"/>
      <point x="20" y="569" type="curve" smooth="yes"/>
      <point x="20" y="484"/>
      <point x="56" y="440"/>
    </contour>
    <contour>
      <point x="124" y="506" type="curve" smooth="yes"/>
      <point x="100" y="506"/>
      <point x="87" y="527"/>
      <point x="87" y="568" type="curve" smooth="yes"/>
      <point x="87" y="610"/>
      <point x="100" y="632"/>
      <point x="124" y="632" type="curve" smooth="yes"/>
      <point x="150" y="632"/>
      <point x="163" y="610"/>
      <point x="163" y="568" type="curve" smooth="yes"/>
      <point x="163" y="527"/>
      <point x="150" y="506"/>
    </contour>
  </outline>
</glyph>
<glyph name="plusminus" format="2">
  <advance width="320"/>
  <unicode hex="00B1"/>
  <outline>
    <contour>
      <point x="300" y="488" type="line"/>
      <point x="20" y="488" type="line"/>
      <point x="20" y="393" type="line"/>
      <point x="300" y="393" type="line"/>
    </contour>
    <contour>
      <point x="114" y="580" type="line"/>
      <point x="114" y="300" type="line"/>
      <point x="206" y="300" type="line"/>
      <point x="206" y="580" type="line"/>
    </contour>
    <contour>
      <point x="290" y="254" type="line"/>
      <point x="30" y="254" type="line"/>
      <point x="30" y="159" type="line"/>
      <point x="290" y="159" type="line"/>
    </contour>
  </outline>
</glyph>
<glyph name="twosuperior" format="2">
  <advance width="183"/>
  <unicode hex="00B2"/>
  <outline>
    <contour>
      <point x="20" y="600" type="line"/>
      <point x="20" y="535" type="line"/>
      <point x="93" y="535" type="line" smooth="yes"/>
      <point x="96" y="535"/>
      <point x="96" y="534"/>
      <point x="96" y="531" type="curve" smooth="yes"/>
      <point x="96" y="510" type="line"/>
      <point x="163" y="510" type="line"/>
      <point x="163" y="535" type="line" smooth="yes"/>
      <point x="163" y="574"/>
      <point x="136" y="600"/>
      <point x="97" y="600" type="curve" smooth="yes"/>
    </contour>
    <contour>
      <point x="163" y="481" type="curve" smooth="yes"/>
      <point x="163" y="510" type="line"/>
      <point x="96" y="510" type="line"/>
      <point x="96" y="485" type="line" smooth="yes"/>
      <point x="96" y="482"/>
      <point x="96" y="481"/>
      <point x="93" y="481" type="curve" smooth="yes"/>
      <point x="91" y="481" type="line"/>
      <point x="91" y="416" type="line"/>
      <point x="97" y="416" type="line" smooth="yes"/>
      <point x="136" y="416"/>
      <point x="163" y="442"/>
    </contour>
    <contour>
      <point x="20" y="416" type="curve" smooth="yes"/>
      <point x="20" y="300" type="line"/>
      <point x="87" y="300" type="line"/>
      <point x="87" y="413" type="line" smooth="yes"/>
      <point x="87" y="416"/>
      <point x="87" y="416"/>
      <point x="90" y="416" type="curve" smooth="yes"/>
      <point x="91" y="416" type="line"/>
      <point x="91" y="481" type="line"/>
      <point x="86" y="481" type="line" smooth="yes"/>
      <point x="47" y="481"/>
      <point x="20" y="456"/>
    </contour>
    <contour>
      <point x="163" y="300" type="line"/>
      <point x="163" y="365" type="line"/>
      <point x="20" y="365" type="line"/>
      <point x="20" y="300" type="line"/>
    </contour>
  </outline>
</glyph>
<glyph name="threesuperior" format="2">
  <advance width="182"/>
  <unicode hex="00B3"/>
  <outline>
    <contour>
      <point x="20" y="300" type="line"/>
      <point x="96" y="300" type="line" smooth="yes"/>
      <point x="135" y="300"/>
      <point x="162" y="326"/>
      <point x="162" y="365" type="curve" smooth="yes"/>
      <point x="162" y="535" type="line" smooth="yes"/>
      <point x="162" y="574"/>
      <point x="135" y="600"/>
      <point x="96" y="600" type="curve" smooth="yes"/>
      <point x="20" y="600" type="line"/>
      <point x="20" y="535" type="line"/>
      <point x="92" y="535" type="line" smooth="yes"/>
      <point x="95" y="535"/>
      <point x="95" y="534"/>
      <point x="95" y="531" type="curve" smooth="yes"/>
      <point x="95" y="369" type="line" smooth="yes"/>
      <point x="95" y="366"/>
      <point x="95" y="365"/>
      <point x="92" y="365" type="curve" smooth="yes"/>
      <point x="20" y="365" type="line"/>
    </contour>
    <contour>
      <point x="38" y="418" type="line"/>
      <point x="162" y="418" type="line"/>
      <point x="162" y="486" type="line"/>
      <point x="38" y="486" type="line"/>
    </contour>
  </outline>
</glyph>
<glyph name="acute" format="2">
  <advance width="147"/>
  <unicode hex="00B4"/>
  <outline>
    <contour>
      <point x="47" y="800" type="line"/>
      <point x="20" y="720" type="line"/>
      <point x="100" y="720" type="line"/>
      <point x="127" y="800" type="line"/>
    </contour>
  </outline>
</glyph>
<glyph name="micro" format="2">
  <advance width="337"/>
  <unicode hex="00B5"/>
  <outline>
    <contour>
      <point x="139" y="-133" type="line"/>
      <point x="139" y="500" type="line"/>
      <point x="44" y="500" type="line"/>
      <point x="44" y="-133" type="line"/>
    </contour>
    <contour>
      <point x="197" y="0" type="line"/>
      <point x="292" y="0" type="line"/>
      <point x="292" y="500" type="line"/>
      <point x="197" y="500" type="line"/>
    </contour>
    <contour>
      <point x="197" y="93" type="line"/>
      <point x="197" y="0" type="line"/>
      <point x="317" y="0" type="line"/>
      <point x="307" y="93" type="line"/>
    </contour>
    <contour>
      <point x="139" y="500" type="line"/>
      <point x="30" y="500" type="line"/>
      <point x="20" y="407" type="line"/>
      <point x="139" y="407" type="line"/>
    </contour>
    <contour>
      <point x="44" y="500" type="line"/>
      <point x="44" y="93" type="line" smooth="yes"/>
      <point x="44" y="39"/>
      <point x="84" y="0"/>
      <point x="145" y="0" type="curve" smooth="yes"/>
      <point x="172" y="0" type="line"/>
      <point x="232" y="93" type="line"/>
      <point x="144" y="93" type="line" smooth="yes"/>
      <point x="140" y="93"/>
      <point x="139" y="94"/>
      <point x="139" y="98" type="curve" smooth="yes"/>
      <point x="139" y="500" type="line"/>
    </contour>
  </outline>
</glyph>
<glyph name="paragraph" format="2">
  <advance width="427"/>
  <unicode hex="00B6"/>
  <outline>
    <contour>
      <point x="257" y="700" type="line"/>
      <point x="162" y="700" type="line"/>
      <point x="162" y="0" type="line"/>
      <point x="257" y="0" type="line"/>
    </contour>
    <contour>
      <point x="371" y="700" type="line"/>
      <point x="276" y="700" type="line"/>
      <point x="277" y="0" type="line"/>
      <point x="372" y="0" type="line"/>
    </contour>
    <contour>
      <point x="125" y="700" type="line"/>
      <point x="125" y="607" type="line"/>
      <point x="407" y="607" type="line"/>
      <point x="397" y="700" type="line"/>
    </contour>
    <contour>
      <point x="407" y="0" type="line"/>
      <point x="397" y="93" type="line"/>
      <point x="277" y="93" type="line"/>
      <point x="277" y="0" type="line"/>
    </contour>
    <contour>
      <point x="282" y="607" type="line"/>
      <point x="272" y="700" type="line"/>
      <point x="114" y="700" type="line" smooth="yes"/>
      <point x="58" y="700"/>
      <point x="20" y="663"/>
      <point x="20" y="607" type="curve" smooth="yes"/>
      <point x="20" y="467" type="line"/>
      <point x="115" y="467" type="line"/>
      <point x="115" y="602" type="line" smooth="yes"/>
      <point x="115" y="606"/>
      <point x="116" y="607"/>
      <point x="120" y="607" type="curve" smooth="yes"/>
    </contour>
    <contour>
      <point x="316" y="201" type="line"/>
      <point x="317" y="294" type="line"/>
      <point x="120" y="294" type="line" smooth="yes"/>
      <point x="116" y="294"/>
      <point x="115" y="295"/>
      <point x="115" y="299" type="curve" smooth="yes"/>
      <point x="115" y="467" type="line"/>
      <point x="20" y="467" type="line"/>
      <point x="20" y="294" type="line" smooth="yes"/>
      <point x="20" y="238"/>
      <point x="69" y="201"/>
      <point x="125" y="201" type="curve" smooth="yes"/>
    </contour>
  </outline>
</glyph>
<glyph name="periodcentered" format="2">
  <advance width="206"/>
  <unicode hex="00B7"/>
  <note>
middot
</note>
  <outline>
    <contour>
      <point x="20" y="217" type="line"/>
      <point x="186" y="217" type="line"/>
      <point x="186" y="383" type="line"/>
      <point x="20" y="383" type="line"/>
    </contour>
  </outline>
</glyph>
<glyph name="cedilla" format="2">
  <advance width="146"/>
  <unicode hex="00B8"/>
  <outline>
    <contour>
      <point x="20" y="-106" type="line"/>
      <point x="82" y="-106" type="line" smooth="yes"/>
      <point x="107" y="-106"/>
      <point x="126" y="-96"/>
      <point x="126" y="-84" type="curve" smooth="yes"/>
      <point x="126" y="-48" type="line"/>
      <point x="82" y="-48" type="line"/>
      <point x="82" y="-94" type="line"/>
      <point x="102" y="-84" type="line"/>
      <point x="45" y="-84" type="line"/>
      <point x="63" y="-94" type="line"/>
      <point x="63" y="-56" type="line"/>
      <point x="20" y="-56" type="line"/>
    </contour>
    <contour>
      <point x="85" y="11" type="line"/>
      <point x="41" y="11" type="line"/>
      <point x="41" y="-19" type="line" smooth="yes"/>
      <point x="41" y="-31"/>
      <point x="58" y="-44"/>
      <point x="81" y="-44" type="curve" smooth="yes"/>
      <point x="82" y="-44" type="line"/>
      <point x="82" y="-58" type="line"/>
      <point x="126" y="-58" type="line"/>
      <point x="126" y="-44" type="line" smooth="yes"/>
      <point x="126" y="-29"/>
      <point x="111" y="-19"/>
      <point x="87" y="-19" type="curve" smooth="yes"/>
      <point x="85" y="-19" type="line"/>
    </contour>
  </outline>
</glyph>
<glyph name="onesuperior" format="2">
  <advance width="150"/>
  <unicode hex="00B9"/>
  <outline>
    <contour>
      <point x="43" y="601" type="line"/>
      <point x="43" y="301" type="line"/>
      <point x="112" y="301" type="line"/>
      <point x="112" y="601" type="line"/>
    </contour>
    <contour>
      <point x="130" y="369" type="line"/>
      <point x="21" y="369" type="line"/>
      <point x="21" y="301" type="line"/>
      <point x="130" y="301" type="line"/>
    </contour>
    <contour>
      <point x="112" y="601" type="line"/>
      <point x="33" y="601" type="line"/>
      <point x="20" y="532" type="line"/>
      <point x="112" y="532" type="line"/>
    </contour>
  </outline>
</glyph>
<glyph name="ordmasculine" format="2">
  <advance width="280"/>
  <unicode hex="00BA"/>
  <outline>
    <contour>
      <point x="252" y="395" type="line"/>
      <point x="40" y="395" type="line"/>
      <point x="40" y="300" type="line"/>
      <point x="252" y="300" type="line"/>
    </contour>
    <contour>
      <point x="166" y="700" type="curve" smooth="yes"/>
      <point x="114" y="700" type="line" smooth="yes"/>
      <point x="58" y="700"/>
      <point x="20" y="663"/>
      <point x="20" y="607" type="curve" smooth="yes"/>
      <point x="20" y="570" type="line"/>
      <point x="115" y="570" type="line"/>
      <point x="115" y="604" type="line" smooth="yes"/>
      <point x="115" y="606"/>
      <point x="116" y="607"/>
      <point x="118" y="607" type="curve" smooth="yes"/>
      <point x="162" y="607" type="line" smooth="yes"/>
      <point x="164" y="607"/>
      <point x="165" y="606"/>
      <point x="165" y="604" type="curve" smooth="yes"/>
      <point x="165" y="570" type="line"/>
      <point x="260" y="570" type="line"/>
      <point x="260" y="607" type="line" smooth="yes"/>
      <point x="260" y="663"/>
      <point x="222" y="700"/>
    </contour>
    <contour>
      <point x="114" y="416" type="curve" smooth="yes"/>
      <point x="166" y="416" type="line" smooth="yes"/>
      <point x="222" y="416"/>
      <point x="260" y="453"/>
      <point x="260" y="509" type="curve" smooth="yes"/>
      <point x="260" y="570" type="line"/>
      <point x="165" y="570" type="line"/>
      <point x="165" y="512" type="line" smooth="yes"/>
      <point x="165" y="510"/>
      <point x="164" y="509"/>
      <point x="162" y="509" type="curve" smooth="yes"/>
      <point x="118" y="509" type="line" smooth="yes"/>
      <point x="116" y="509"/>
      <point x="115" y="510"/>
      <point x="115" y="512" type="curve" smooth="yes"/>
      <point x="115" y="570" type="line"/>
      <point x="20" y="570" type="line"/>
      <point x="20" y="509" type="line" smooth="yes"/>
      <point x="20" y="453"/>
      <point x="58" y="416"/>
    </contour>
  </outline>
</glyph>
<glyph name="onequarter" format="2">
  <advance width="520"/>
  <unicode hex="00BC"/>
  <outline>
    <contour>
      <point x="20" y="0" type="line"/>
      <point x="113" y="0" type="line"/>
      <point x="490" y="600" type="line"/>
      <point x="396" y="600" type="line"/>
    </contour>
    <contour>
      <point x="83" y="601" type="line"/>
      <point x="83" y="301" type="line"/>
      <point x="152" y="301" type="line"/>
      <point x="152" y="601" type="line"/>
    </contour>
    <contour>
      <point x="170" y="369" type="line"/>
      <point x="61" y="369" type="line"/>
      <point x="61" y="301" type="line"/>
      <point x="170" y="301" type="line"/>
    </contour>
    <contour>
      <point x="152" y="601" type="line"/>
      <point x="73" y="601" type="line"/>
      <point x="60" y="532" type="line"/>
      <point x="152" y="532" type="line"/>
    </contour>
    <contour>
      <point x="418" y="301" type="line"/>
      <point x="418" y="1" type="line"/>
      <point x="486" y="1" type="line"/>
      <point x="486" y="301" type="line"/>
    </contour>
    <contour>
      <point x="500" y="66" type="line"/>
      <point x="404" y="66" type="line"/>
      <point x="404" y="0" type="line"/>
      <point x="500" y="0" type="line"/>
    </contour>
    <contour>
      <point x="500" y="93" type="line"/>
      <point x="500" y="159" type="line"/>
      <point x="341" y="159" type="line"/>
      <point x="375" y="138" type="line"/>
      <point x="399" y="301" type="line"/>
      <point x="333" y="301" type="line"/>
      <point x="310" y="148" type="line" smooth="yes"/>
      <point x="305" y="115"/>
      <point x="326" y="93"/>
      <point x="368" y="93" type="curve" smooth="yes"/>
    </contour>
  </outline>
</glyph>
<glyph name="onehalf" format="2">
  <advance width="556"/>
  <unicode hex="00BD"/>
  <outline>
    <contour>
      <point x="30" y="0" type="line"/>
      <point x="123" y="0" type="line"/>
      <point x="500" y="600" type="line"/>
      <point x="406" y="600" type="line"/>
    </contour>
    <contour>
      <point x="83" y="601" type="line"/>
      <point x="83" y="301" type="line"/>
      <point x="152" y="301" type="line"/>
      <point x="152" y="601" type="line"/>
    </contour>
    <contour>
      <point x="170" y="369" type="line"/>
      <point x="61" y="369" type="line"/>
      <point x="61" y="301" type="line"/>
      <point x="170" y="301" type="line"/>
    </contour>
    <contour>
      <point x="152" y="601" type="line"/>
      <point x="73" y="601" type="line"/>
      <point x="60" y="532" type="line"/>
      <point x="152" y="532" type="line"/>
    </contour>
    <contour>
      <point x="347" y="300" type="line"/>
      <point x="347" y="235" type="line"/>
      <point x="420" y="235" type="line" smooth="yes"/>
      <point x="423" y="235"/>
      <point x="423" y="234"/>
      <point x="423" y="231" type="curve" smooth="yes"/>
      <point x="423" y="210" type="line"/>
      <point x="490" y="210" type="line"/>
      <point x="490" y="235" type="line" smooth="yes"/>
      <point x="490" y="274"/>
      <point x="463" y="300"/>
      <point x="424" y="300" type="curve" smooth="yes"/>
    </contour>
    <contour>
      <point x="490" y="181" type="curve" smooth="yes"/>
      <point x="490" y="210" type="line"/>
      <point x="423" y="210" type="line"/>
      <point x="423" y="185" type="line" smooth="yes"/>
      <point x="423" y="182"/>
      <point x="423" y="181"/>
      <point x="420" y="181" type="curve" smooth="yes"/>
      <point x="418" y="181" type="line"/>
      <point x="418" y="116" type="line"/>
      <point x="424" y="116" type="line" smooth="yes"/>
      <point x="463" y="116"/>
      <point x="490" y="142"/>
    </contour>
    <contour>
      <point x="347" y="116" type="curve" smooth="yes"/>
      <point x="347" y="0" type="line"/>
      <point x="414" y="0" type="line"/>
      <point x="414" y="113" type="line" smooth="yes"/>
      <point x="414" y="116"/>
      <point x="414" y="116"/>
      <point x="417" y="116" type="curve" smooth="yes"/>
      <point x="418" y="116" type="line"/>
      <point x="418" y="181" type="line"/>
      <point x="413" y="181" type="line" smooth="yes"/>
      <point x="374" y="181"/>
      <point x="347" y="156"/>
    </contour>
    <contour>
      <point x="490" y="0" type="line"/>
      <point x="490" y="65" type="line"/>
      <point x="347" y="65" type="line"/>
      <point x="347" y="0" type="line"/>
    </contour>
  </outline>
</glyph>
<glyph name="threequarters" format="2">
  <advance width="520"/>
  <unicode hex="00BE"/>
  <outline>
    <contour>
      <point x="20" y="0" type="line"/>
      <point x="113" y="0" type="line"/>
      <point x="490" y="600" type="line"/>
      <point x="396" y="600" type="line"/>
    </contour>
    <contour>
      <point x="500" y="0" type="line"/>
      <point x="500" y="66" type="line"/>
      <point x="404" y="66" type="line"/>
      <point x="404" y="0" type="line"/>
    </contour>
    <contour>
      <point x="418" y="301" type="line"/>
      <point x="418" y="1" type="line"/>
      <point x="486" y="1" type="line"/>
      <point x="486" y="301" type="line"/>
    </contour>
    <contour>
      <point x="500" y="93" type="line"/>
      <point x="500" y="159" type="line"/>
      <point x="341" y="159" type="line"/>
      <point x="375" y="138" type="line"/>
      <point x="399" y="301" type="line"/>
      <point x="333" y="301" type="line"/>
      <point x="310" y="148" type="line" smooth="yes"/>
      <point x="305" y="115"/>
      <point x="326" y="93"/>
      <point x="368" y="93" type="curve" smooth="yes"/>
    </contour>
    <contour>
      <point x="32" y="300" type="line"/>
      <point x="108" y="300" type="line" smooth="yes"/>
      <point x="147" y="300"/>
      <point x="174" y="326"/>
      <point x="174" y="365" type="curve" smooth="yes"/>
      <point x="174" y="535" type="line" smooth="yes"/>
      <point x="174" y="574"/>
      <point x="147" y="600"/>
      <point x="108" y="600" type="curve" smooth="yes"/>
      <point x="32" y="600" type="line"/>
      <point x="32" y="535" type="line"/>
      <point x="104" y="535" type="line" smooth="yes"/>
      <point x="107" y="535"/>
      <point x="107" y="534"/>
      <point x="107" y="531" type="curve" smooth="yes"/>
      <point x="107" y="369" type="line" smooth="yes"/>
      <point x="107" y="366"/>
      <point x="107" y="365"/>
      <point x="104" y="365" type="curve" smooth="yes"/>
      <point x="32" y="365" type="line"/>
    </contour>
    <contour>
      <point x="50" y="418" type="line"/>
      <point x="174" y="418" type="line"/>
      <point x="174" y="486" type="line"/>
      <point x="50" y="486" type="line"/>
    </contour>
  </outline>
</glyph>
<glyph name="AE" format="2">
  <advance width="463"/>
  <unicode hex="00C6"/>
  <anchor x="232" y="0" name="bottom"/>
  <anchor x="232" y="700" name="top"/>
  <outline>
    <contour>
      <point x="443" y="700" type="line"/>
      <point x="216" y="700" type="line"/>
      <point x="216" y="607" type="line"/>
      <point x="433" y="607" type="line"/>
    </contour>
    <contour>
      <point x="249" y="700" type="line"/>
      <point x="66" y="700" type="line"/>
      <point x="56" y="607" type="line"/>
      <point x="249" y="607" type="line"/>
    </contour>
    <contour>
      <point x="423" y="397" type="line"/>
      <point x="216" y="397" type="line"/>
      <point x="216" y="304" type="line"/>
      <point x="413" y="304" type="line"/>
    </contour>
    <contour>
      <point x="443" y="93" type="line"/>
      <point x="216" y="93" type="line"/>
      <point x="216" y="0" type="line"/>
      <point x="435" y="0" type="line"/>
    </contour>
    <contour>
      <point x="216" y="0" type="line"/>
      <point x="311" y="0" type="line"/>
      <point x="249" y="700" type="line"/>
      <point x="153" y="700" type="line"/>
    </contour>
    <contour>
      <point x="115" y="0" type="line"/>
      <point x="178" y="700" type="line"/>
      <point x="82" y="700" type="line"/>
      <point x="20" y="0" type="line"/>
    </contour>
    <contour>
      <point x="280" y="213" type="line"/>
      <point x="51" y="213" type="line"/>
      <point x="51" y="120" type="line"/>
      <point x="280" y="120" type="line"/>
    </contour>
  </outline>
</glyph>
<glyph name="Eth" format="2">
  <advance width="330"/>
  <unicode hex="00D0"/>
  <outline>
    <contour>
      <point x="20" y="303" type="line"/>
      <point x="188" y="303" type="line"/>
      <point x="188" y="398" type="line"/>
      <point x="20" y="398" type="line"/>
    </contour>
    <contour>
      <point x="216" y="700" type="curve" smooth="yes"/>
      <point x="45" y="700" type="line"/>
      <point x="35" y="607" type="line"/>
      <point x="210" y="607" type="line" smooth="yes"/>
      <point x="214" y="607"/>
      <point x="215" y="606"/>
      <point x="215" y="602" type="curve" smooth="yes"/>
      <point x="215" y="297" type="line"/>
      <point x="310" y="297" type="line"/>
      <point x="310" y="607" type="line" smooth="yes"/>
      <point x="310" y="663"/>
      <point x="272" y="700"/>
    </contour>
    <contour>
      <point x="310" y="93" type="curve" smooth="yes"/>
      <point x="310" y="297" type="line"/>
      <point x="215" y="297" type="line"/>
      <point x="215" y="98" type="line" smooth="yes"/>
      <point x="215" y="94"/>
      <point x="214" y="93"/>
      <point x="210" y="93" type="curve" smooth="yes"/>
      <point x="50" y="93" type="line"/>
      <point x="50" y="0" type="line"/>
      <point x="216" y="0" type="line" smooth="yes"/>
      <point x="272" y="0"/>
      <point x="310" y="37"/>
    </contour>
    <contour>
      <point x="50" y="700" type="line"/>
      <point x="50" y="0" type="line"/>
      <point x="145" y="0" type="line"/>
      <point x="145" y="700" type="line"/>
    </contour>
  </outline>
</glyph>
<glyph name="multiply" format="2">
  <advance width="305"/>
  <unicode hex="00D7"/>
  <outline>
    <contour>
      <point x="217" y="434" type="line"/>
      <point x="21" y="236" type="line"/>
      <point x="87" y="169" type="line"/>
      <point x="284" y="367" type="line"/>
    </contour>
    <contour>
      <point x="20" y="366" type="line"/>
      <point x="218" y="170" type="line"/>
      <point x="285" y="236" type="line"/>
      <point x="87" y="433" type="line"/>
    </contour>
  </outline>
</glyph>
<glyph name="Thorn" format="2">
  <advance width="287"/>
  <unicode hex="00DE"/>
  <outline>
    <contour>
      <point x="20" y="800" type="line"/>
      <point x="20" y="4" type="line"/>
      <point x="115" y="4" type="line"/>
      <point x="115" y="800" type="line"/>
    </contour>
    <contour>
      <point x="20" y="800" type="line"/>
      <point x="20" y="4" type="line"/>
      <point x="118" y="4" type="line"/>
      <point x="118" y="800" type="line"/>
    </contour>
    <contour>
      <point x="21" y="150" type="line"/>
      <point x="162" y="150" type="line" smooth="yes"/>
      <point x="218" y="150"/>
      <point x="267" y="187"/>
      <point x="267" y="243" type="curve" smooth="yes"/>
      <point x="267" y="416" type="line"/>
      <point x="172" y="416" type="line"/>
      <point x="172" y="248" type="line" smooth="yes"/>
      <point x="172" y="244"/>
      <point x="171" y="243"/>
      <point x="167" y="243" type="curve" smooth="yes"/>
      <point x="20" y="243" type="line"/>
    </contour>
    <contour>
      <point x="21" y="650" type="line"/>
      <point x="20" y="557" type="line"/>
      <point x="167" y="557" type="line" smooth="yes"/>
      <point x="171" y="557"/>
      <point x="172" y="556"/>
      <point x="172" y="552" type="curve" smooth="yes"/>
      <point x="172" y="384" type="line"/>
      <point x="267" y="384" type="line"/>
      <point x="267" y="557" type="line" smooth="yes"/>
      <point x="267" y="613"/>
      <point x="218" y="650"/>
      <point x="162" y="650" type="curve" smooth="yes"/>
    </contour>
  </outline>
</glyph>
<glyph name="germandbls" format="2">
  <advance width="382"/>
  <unicode hex="00DF"/>
  <outline>
    <contour>
      <point x="20" y="0" type="line"/>
      <point x="115" y="0" type="line"/>
      <point x="115" y="648" type="line"/>
      <point x="71" y="607" type="line"/>
      <point x="139" y="607" type="line"/>
      <point x="139" y="700" type="line"/>
      <point x="114" y="700" type="line" smooth="yes"/>
      <point x="58" y="700"/>
      <point x="20" y="662"/>
      <point x="20" y="606" type="curve" smooth="yes"/>
    </contour>
    <contour>
      <point x="165" y="0" type="line"/>
      <point x="268" y="0" type="line" smooth="yes"/>
      <point x="324" y="0"/>
      <point x="362" y="38"/>
      <point x="362" y="94" type="curve" smooth="yes"/>
      <point x="362" y="226" type="line" smooth="yes"/>
      <point x="362" y="271"/>
      <point x="327" y="287"/>
      <point x="306" y="297" type="curve" smooth="yes"/>
      <point x="221" y="337" type="line"/>
      <point x="221" y="338" type="line"/>
      <point x="228" y="345" type="line" smooth="yes"/>
      <point x="253" y="370"/>
      <point x="292" y="396"/>
      <point x="292" y="448" type="curve" smooth="yes"/>
      <point x="292" y="607" type="line" smooth="yes"/>
      <point x="292" y="663"/>
      <point x="254" y="700"/>
      <point x="198" y="700" type="curve" smooth="yes"/>
      <point x="118" y="700" type="line"/>
      <point x="118" y="607" type="line"/>
      <point x="195" y="607" type="line" smooth="yes"/>
      <point x="199" y="607"/>
      <point x="201" y="605"/>
      <point x="201" y="601" type="curve" smooth="yes"/>
      <point x="201" y="437" type="line"/>
      <point x="163" y="400" type="line" smooth="yes"/>
      <point x="147" y="384"/>
      <point x="134" y="366"/>
      <point x="134" y="335" type="curve" smooth="yes"/>
      <point x="134" y="328" type="line" smooth="yes"/>
      <point x="134" y="280"/>
      <point x="179" y="262"/>
      <point x="198" y="251" type="curve" smooth="yes"/>
      <point x="267" y="213" type="line"/>
      <point x="267" y="99" type="line" smooth="yes"/>
      <point x="267" y="95"/>
      <point x="266" y="94"/>
      <point x="262" y="94" type="curve" smooth="yes"/>
      <point x="165" y="94" type="line"/>
    </contour>
  </outline>
</glyph>
<glyph name="ae" format="2">
  <advance width="443"/>
  <unicode hex="00E6"/>
  <outline>
    <contour>
      <point x="173" y="0" type="line"/>
      <point x="268" y="0" type="line"/>
      <point x="268" y="500" type="line"/>
      <point x="173" y="500" type="line"/>
    </contour>
    <contour>
      <point x="20" y="202" type="line"/>
      <point x="115" y="202" type="line"/>
      <point x="115" y="402" type="line" smooth="yes"/>
      <point x="115" y="406"/>
      <point x="116" y="407"/>
      <point x="120" y="407" type="curve" smooth="yes"/>
      <point x="214" y="407" type="line"/>
      <point x="214" y="408" type="line" smooth="yes"/>
      <point x="214" y="461"/>
      <point x="178" y="500"/>
      <point x="125" y="500" type="curve" smooth="yes"/>
      <point x="121" y="500" type="line" smooth="yes"/>
      <point x="60" y="500"/>
      <point x="20" y="461"/>
      <point x="20" y="407" type="curve" smooth="yes"/>
    </contour>
    <contour>
      <point x="173" y="411" type="curve" smooth="yes"/>
      <point x="173" y="195" type="line"/>
      <point x="268" y="195" type="line"/>
      <point x="268" y="406" type="line" smooth="yes"/>
      <point x="268" y="410"/>
      <point x="269" y="411"/>
      <point x="273" y="411" type="curve" smooth="yes"/>
      <point x="305" y="411" type="line"/>
      <point x="305" y="504" type="line"/>
      <point x="267" y="504" type="line" smooth="yes"/>
      <point x="211" y="504"/>
      <point x="173" y="467"/>
    </contour>
    <contour>
      <point x="121" y="0" type="curve" smooth="yes"/>
      <point x="148" y="0" type="line"/>
      <point x="208" y="93" type="line"/>
      <point x="120" y="93" type="line" smooth="yes"/>
      <point x="116" y="93"/>
      <point x="115" y="94"/>
      <point x="115" y="98" type="curve" smooth="yes"/>
      <point x="115" y="258" type="line"/>
      <point x="20" y="258" type="line"/>
      <point x="20" y="93" type="line" smooth="yes"/>
      <point x="20" y="39"/>
      <point x="60" y="0"/>
    </contour>
    <contour>
      <point x="423" y="89" type="curve" smooth="yes"/>
      <point x="423" y="148" type="line"/>
      <point x="328" y="148" type="line"/>
      <point x="328" y="93" type="line" smooth="yes"/>
      <point x="328" y="90"/>
      <point x="327" y="89"/>
      <point x="323" y="89" type="curve" smooth="yes"/>
      <point x="291" y="89" type="line"/>
      <point x="291" y="-4" type="line"/>
      <point x="329" y="-4" type="line" smooth="yes"/>
      <point x="385" y="-4"/>
      <point x="423" y="33"/>
    </contour>
    <contour>
      <point x="173" y="89" type="line" smooth="yes"/>
      <point x="173" y="33"/>
      <point x="211" y="-4"/>
      <point x="267" y="-4" type="curve" smooth="yes"/>
      <point x="305" y="-4" type="line"/>
      <point x="305" y="89" type="line"/>
      <point x="273" y="89" type="line" smooth="yes"/>
      <point x="269" y="89"/>
      <point x="268" y="90"/>
      <point x="268" y="94" type="curve" smooth="yes"/>
      <point x="268" y="245" type="line"/>
      <point x="173" y="245" type="line"/>
    </contour>
    <contour>
      <point x="423" y="411" type="line" smooth="yes"/>
      <point x="423" y="467"/>
      <point x="385" y="504"/>
      <point x="329" y="504" type="curve" smooth="yes"/>
      <point x="291" y="504" type="line"/>
      <point x="291" y="411" type="line"/>
      <point x="323" y="411" type="line" smooth="yes"/>
      <point x="327" y="411"/>
      <point x="328" y="410"/>
      <point x="328" y="406" type="curve" smooth="yes"/>
      <point x="328" y="288" type="line"/>
      <point x="423" y="288" type="line"/>
    </contour>
    <contour>
      <point x="423" y="288" type="line"/>
      <point x="173" y="288" type="line"/>
      <point x="173" y="195" type="line"/>
      <point x="423" y="195" type="line"/>
    </contour>
    <contour>
      <point x="173" y="0" type="line"/>
      <point x="292" y="0" type="line"/>
      <point x="282" y="93" type="line"/>
      <point x="173" y="93" type="line"/>
    </contour>
  </outline>
</glyph>
<glyph name="divide" format="2">
  <advance width="360"/>
  <unicode hex="00F7"/>
  <outline>
    <contour>
      <point x="340" y="349" type="line"/>
      <point x="20" y="349" type="line"/>
      <point x="20" y="254" type="line"/>
      <point x="340" y="254" type="line"/>
    </contour>
    <contour>
      <point x="133" y="216" type="line"/>
      <point x="133" y="123" type="line"/>
      <point x="226" y="123" type="line"/>
      <point x="226" y="216" type="line"/>
    </contour>
    <contour>
      <point x="133" y="480" type="line"/>
      <point x="133" y="387" type="line"/>
      <point x="226" y="387" type="line"/>
      <point x="226" y="480" type="line"/>
    </contour>
  </outline>
</glyph>
<glyph name="thorn" format="2">
  <advance width="312"/>
  <unicode hex="00FE"/>
  <outline>
    <contour>
      <point x="44" y="-133" type="line"/>
      <point x="139" y="-133" type="line"/>
      <point x="139" y="700" type="line"/>
      <point x="44" y="700" type="line"/>
    </contour>
    <contour>
      <point x="20" y="607" type="line"/>
      <point x="139" y="607" type="line"/>
      <point x="139" y="700" type="line"/>
      <point x="30" y="700" type="line"/>
    </contour>
    <contour>
      <point x="292" y="93" type="curve" smooth="yes"/>
      <point x="292" y="298" type="line"/>
      <point x="197" y="298" type="line"/>
      <point x="197" y="98" type="line" smooth="yes"/>
      <point x="197" y="94"/>
      <point x="196" y="93"/>
      <point x="192" y="93" type="curve" smooth="yes"/>
      <point x="98" y="93" type="line"/>
      <point x="98" y="93"/>
      <point x="98" y="92"/>
      <point x="98" y="92" type="curve" smooth="yes"/>
      <point x="98" y="39"/>
      <point x="134" y="0"/>
      <point x="187" y="0" type="curve" smooth="yes"/>
      <point x="191" y="0" type="line" smooth="yes"/>
      <point x="252" y="0"/>
      <point x="292" y="39"/>
    </contour>
    <contour>
      <point x="104" y="407" type="line"/>
      <point x="192" y="407" type="line" smooth="yes"/>
      <point x="196" y="407"/>
      <point x="197" y="406"/>
      <point x="197" y="402" type="curve" smooth="yes"/>
      <point x="197" y="298" type="line"/>
      <point x="292" y="298" type="line"/>
      <point x="292" y="407" type="line" smooth="yes"/>
      <point x="292" y="461"/>
      <point x="252" y="500"/>
      <point x="191" y="500" type="curve" smooth="yes"/>
      <point x="164" y="500" type="line"/>
    </contour>
  </outline>
</glyph>
<glyph name="idotless" format="2">
  <advance width="150"/>
  <unicode hex="0131"/>
  <outline>
    <contour>
      <point x="35" y="500" type="line"/>
      <point x="35" y="0" type="line"/>
      <point x="130" y="0" type="line"/>
      <point x="130" y="500" type="line"/>
    </contour>
    <contour>
      <point x="130" y="500" type="line"/>
      <point x="30" y="500" type="line"/>
      <point x="20" y="407" type="line"/>
      <point x="130" y="407" type="line"/>
    </contour>
  </outline>
</glyph>
<glyph name="OE" format="2">
  <advance width="432"/>
  <unicode hex="0152"/>
  <outline>
    <contour>
      <point x="280" y="611" type="line" smooth="yes"/>
      <point x="280" y="667"/>
      <point x="242" y="704"/>
      <point x="186" y="704" type="curve" smooth="yes"/>
      <point x="114" y="704" type="line" smooth="yes"/>
      <point x="58" y="704"/>
      <point x="20" y="667"/>
      <point x="20" y="611" type="curve" smooth="yes"/>
      <point x="20" y="304" type="line"/>
      <point x="115" y="304" type="line"/>
      <point x="115" y="606" type="line" smooth="yes"/>
      <point x="115" y="610"/>
      <point x="116" y="611"/>
      <point x="120" y="611" type="curve" smooth="yes"/>
      <point x="180" y="611" type="line" smooth="yes"/>
      <point x="184" y="611"/>
      <point x="185" y="610"/>
      <point x="185" y="606" type="curve" smooth="yes"/>
      <point x="185" y="306" type="line"/>
      <point x="280" y="306" type="line"/>
    </contour>
    <contour>
      <point x="280" y="89" type="curve" smooth="yes"/>
      <point x="280" y="394" type="line"/>
      <point x="185" y="394" type="line"/>
      <point x="185" y="94" type="line" smooth="yes"/>
      <point x="185" y="90"/>
      <point x="184" y="89"/>
      <point x="180" y="89" type="curve" smooth="yes"/>
      <point x="120" y="89" type="line" smooth="yes"/>
      <point x="116" y="89"/>
      <point x="115" y="90"/>
      <point x="115" y="94" type="curve" smooth="yes"/>
      <point x="115" y="396" type="line"/>
      <point x="20" y="396" type="line"/>
      <point x="20" y="89" type="line" smooth="yes"/>
      <point x="20" y="33"/>
      <point x="58" y="-4"/>
      <point x="114" y="-4" type="curve" smooth="yes"/>
      <point x="186" y="-4" type="line" smooth="yes"/>
      <point x="242" y="-4"/>
      <point x="280" y="33"/>
    </contour>
    <contour>
      <point x="412" y="700" type="line"/>
      <point x="185" y="700" type="line"/>
      <point x="185" y="607" type="line"/>
      <point x="402" y="607" type="line"/>
    </contour>
    <contour>
      <point x="392" y="397" type="line"/>
      <point x="185" y="397" type="line"/>
      <point x="185" y="304" type="line"/>
      <point x="382" y="304" type="line"/>
    </contour>
    <contour>
      <point x="412" y="93" type="line"/>
      <point x="185" y="93" type="line"/>
      <point x="185" y="0" type="line"/>
      <point x="404" y="0" type="line"/>
    </contour>
  </outline>
</glyph>
<glyph name="circumflex" format="2">
  <advance width="187"/>
  <unicode hex="02C6"/>
  <outline>
    <contour>
      <point x="107" y="730" type="line"/>
      <point x="167" y="730" type="line"/>
      <point x="135" y="800" type="line"/>
      <point x="75" y="800" type="line"/>
    </contour>
    <contour>
      <point x="20" y="730" type="line"/>
      <point x="80" y="730" type="line"/>
      <point x="112" y="800" type="line"/>
      <point x="52" y="800" type="line"/>
    </contour>
  </outline>
</glyph>
<glyph name="ring" format="2">
  <advance width="171"/>
  <unicode hex="02DA"/>
  <outline>
    <contour>
      <point x="85" y="716" type="curve" smooth="yes"/>
      <point x="122" y="716"/>
      <point x="151" y="744"/>
      <point x="151" y="780" type="curve" smooth="yes"/>
      <point x="151" y="816"/>
      <point x="122" y="845"/>
      <point x="85" y="845" type="curve" smooth="yes"/>
      <point x="49" y="845"/>
      <point x="20" y="816"/>
      <point x="20" y="780" type="curve" smooth="yes"/>
      <point x="20" y="744"/>
      <point x="49" y="716"/>
    </contour>
    <contour>
      <point x="85" y="761" type="curve" smooth="yes"/>
      <point x="75" y="761"/>
      <point x="67" y="769"/>
      <point x="67" y="780" type="curve" smooth="yes"/>
      <point x="67" y="792"/>
      <point x="75" y="801"/>
      <point x="85" y="800" type="curve" smooth="yes"/>
      <point x="96" y="800"/>
      <point x="104" y="791"/>
      <point x="104" y="780" type="curve" smooth="yes"/>
      <point x="104" y="769"/>
      <point x="96" y="761"/>
    </contour>
  </outline>
</glyph>
<glyph name="tilde" format="2">
  <advance width="178"/>
  <unicode hex="02DC"/>
  <outline>
    <contour>
      <point x="158" y="807" type="line"/>
      <point x="147" y="786"/>
      <point x="118" y="783"/>
      <point x="92" y="797" type="curve" smooth="yes"/>
      <point x="65" y="812"/>
      <point x="34" y="809"/>
      <point x="20" y="792" type="curve"/>
      <point x="20" y="721" type="line"/>
      <point x="33" y="741"/>
      <point x="61" y="744"/>
      <point x="86" y="731" type="curve" smooth="yes"/>
      <point x="114" y="715"/>
      <point x="145" y="717"/>
      <point x="158" y="736" type="curve"/>
    </contour>
  </outline>
</glyph>
<glyph name="sheva-hb" format="2">
  <unicode hex="05B0"/>
  <anchor x="50" y="0" name="_bottom"/>
  <outline>
    <contour>
      <point x="50" y="-106" type="curve" smooth="yes"/>
      <point x="67" y="-106"/>
      <point x="80" y="-93"/>
      <point x="80" y="-76" type="curve" smooth="yes"/>
      <point x="80" y="-59"/>
      <point x="67" y="-46"/>
      <point x="50" y="-46" type="curve" smooth="yes"/>
      <point x="33" y="-46"/>
      <point x="20" y="-59"/>
      <point x="20" y="-76" type="curve" smooth="yes"/>
      <point x="20" y="-93"/>
      <point x="33" y="-106"/>
    </contour>
    <contour>
      <point x="50" y="-182" type="curve" smooth="yes"/>
      <point x="67" y="-182"/>
      <point x="80" y="-169"/>
      <point x="80" y="-152" type="curve" smooth="yes"/>
      <point x="80" y="-135"/>
      <point x="67" y="-122"/>
      <point x="50" y="-122" type="curve" smooth="yes"/>
      <point x="33" y="-122"/>
      <point x="20" y="-135"/>
      <point x="20" y="-152" type="curve" smooth="yes"/>
      <point x="20" y="-169"/>
      <point x="33" y="-182"/>
    </contour>
  </outline>
</glyph>
<glyph name="hatafsegol-hb" format="2">
  <unicode hex="05B1"/>
  <anchor x="172" y="0" name="_bottom"/>
  <outline>
    <contour>
      <point x="246" y="-106" type="curve" smooth="yes"/>
      <point x="263" y="-106"/>
      <point x="276" y="-93"/>
      <point x="276" y="-76" type="curve" smooth="yes"/>
      <point x="276" y="-59"/>
      <point x="263" y="-46"/>
      <point x="246" y="-46" type="curve" smooth="yes"/>
      <point x="229" y="-46"/>
      <point x="216" y="-59"/>
      <point x="216" y="-76" type="curve" smooth="yes"/>
      <point x="216" y="-93"/>
      <point x="229" y="-106"/>
    </contour>
    <contour>
      <point x="246" y="-182" type="curve" smooth="yes"/>
      <point x="263" y="-182"/>
      <point x="276" y="-169"/>
      <point x="276" y="-152" type="curve" smooth="yes"/>
      <point x="276" y="-135"/>
      <point x="263" y="-122"/>
      <point x="246" y="-122" type="curve" smooth="yes"/>
      <point x="229" y="-122"/>
      <point x="216" y="-135"/>
      <point x="216" y="-152" type="curve" smooth="yes"/>
      <point x="216" y="-169"/>
      <point x="229" y="-182"/>
    </contour>
    <contour>
      <point x="100" y="-76" type="curve" smooth="yes"/>
      <point x="100" y="-59"/>
      <point x="87" y="-46"/>
      <point x="70" y="-46" type="curve" smooth="yes"/>
      <point x="53" y="-46"/>
      <point x="40" y="-59"/>
      <point x="40" y="-76" type="curve" smooth="yes"/>
      <point x="40" y="-93"/>
      <point x="53" y="-106"/>
      <point x="70" y="-106" type="curve" smooth="yes"/>
      <point x="87" y="-106"/>
      <point x="100" y="-93"/>
    </contour>
    <contour>
      <point x="176" y="-76" type="curve" smooth="yes"/>
      <point x="176" y="-59"/>
      <point x="163" y="-46"/>
      <point x="146" y="-46" type="curve" smooth="yes"/>
      <point x="129" y="-46"/>
      <point x="116" y="-59"/>
      <point x="116" y="-76" type="curve" smooth="yes"/>
      <point x="116" y="-93"/>
      <point x="129" y="-106"/>
      <point x="146" y="-106" type="curve" smooth="yes"/>
      <point x="163" y="-106"/>
      <point x="176" y="-93"/>
    </contour>
    <contour>
      <point x="108" y="-172" type="curve" smooth="yes"/>
      <point x="125" y="-172"/>
      <point x="138" y="-159"/>
      <point x="138" y="-142" type="curve" smooth="yes"/>
      <point x="138" y="-125"/>
      <point x="125" y="-112"/>
      <point x="108" y="-112" type="curve" smooth="yes"/>
      <point x="91" y="-112"/>
      <point x="78" y="-125"/>
      <point x="78" y="-142" type="curve" smooth="yes"/>
      <point x="78" y="-159"/>
      <point x="91" y="-172"/>
    </contour>
  </outline>
</glyph>
<glyph name="hatafpatah-hb" format="2">
  <unicode hex="05B2"/>
  <anchor x="150" y="0" name="_bottom"/>
  <outline>
    <contour>
      <point x="30" y="-98" type="line"/>
      <point x="187" y="-98" type="line"/>
      <point x="187" y="-56" type="line"/>
      <point x="30" y="-56" type="line"/>
    </contour>
    <contour>
      <point x="237" y="-106" type="curve" smooth="yes"/>
      <point x="254" y="-106"/>
      <point x="267" y="-93"/>
      <point x="267" y="-76" type="curve" smooth="yes"/>
      <point x="267" y="-59"/>
      <point x="254" y="-46"/>
      <point x="237" y="-46" type="curve" smooth="yes"/>
      <point x="220" y="-46"/>
      <point x="207" y="-59"/>
      <point x="207" y="-76" type="curve" smooth="yes"/>
      <point x="207" y="-93"/>
      <point x="220" y="-106"/>
    </contour>
    <contour>
      <point x="237" y="-182" type="curve" smooth="yes"/>
      <point x="254" y="-182"/>
      <point x="267" y="-169"/>
      <point x="267" y="-152" type="curve" smooth="yes"/>
      <point x="267" y="-135"/>
      <point x="254" y="-122"/>
      <point x="237" y="-122" type="curve" smooth="yes"/>
      <point x="220" y="-122"/>
      <point x="207" y="-135"/>
      <point x="207" y="-152" type="curve" smooth="yes"/>
      <point x="207" y="-169"/>
      <point x="220" y="-182"/>
    </contour>
  </outline>
</glyph>
<glyph name="hatafqamats-hb" format="2">
  <unicode hex="05B3"/>
  <anchor x="242" y="0" name="_bottom"/>
  <outline>
    <contour>
      <point x="120" y="-98" type="line"/>
      <point x="277" y="-98" type="line"/>
      <point x="277" y="-56" type="line"/>
      <point x="120" y="-56" type="line"/>
    </contour>
    <contour>
      <point x="175" y="-156" type="line"/>
      <point x="222" y="-156" type="line"/>
      <point x="222" y="-83" type="line"/>
      <point x="175" y="-83" type="line"/>
    </contour>
    <contour>
      <point x="326" y="-106" type="curve" smooth="yes"/>
      <point x="343" y="-106"/>
      <point x="356" y="-93"/>
      <point x="356" y="-76" type="curve" smooth="yes"/>
      <point x="356" y="-59"/>
      <point x="343" y="-46"/>
      <point x="326" y="-46" type="curve" smooth="yes"/>
      <point x="309" y="-46"/>
      <point x="296" y="-59"/>
      <point x="296" y="-76" type="curve" smooth="yes"/>
      <point x="296" y="-93"/>
      <point x="309" y="-106"/>
    </contour>
    <contour>
      <point x="326" y="-182" type="curve" smooth="yes"/>
      <point x="343" y="-182"/>
      <point x="356" y="-169"/>
      <point x="356" y="-152" type="curve" smooth="yes"/>
      <point x="356" y="-135"/>
      <point x="343" y="-122"/>
      <point x="326" y="-122" type="curve" smooth="yes"/>
      <point x="309" y="-122"/>
      <point x="296" y="-135"/>
      <point x="296" y="-152" type="curve" smooth="yes"/>
      <point x="296" y="-169"/>
      <point x="309" y="-182"/>
    </contour>
  </outline>
</glyph>
<glyph name="hiriq-hb" format="2">
  <unicode hex="05B4"/>
  <anchor x="50" y="0" name="_bottom"/>
  <outline>
    <contour>
      <point x="50" y="-130" type="curve" smooth="yes"/>
      <point x="67" y="-130"/>
      <point x="80" y="-117"/>
      <point x="80" y="-100" type="curve" smooth="yes"/>
      <point x="80" y="-83"/>
      <point x="67" y="-70"/>
      <point x="50" y="-70" type="curve" smooth="yes"/>
      <point x="33" y="-70"/>
      <point x="20" y="-83"/>
      <point x="20" y="-100" type="curve" smooth="yes"/>
      <point x="20" y="-117"/>
      <point x="33" y="-130"/>
    </contour>
  </outline>
</glyph>
<glyph name="segol-hb" format="2">
  <unicode hex="05B6"/>
  <anchor x="88" y="0" name="_bottom"/>
  <outline>
    <contour>
      <point x="80" y="-86" type="curve" smooth="yes"/>
      <point x="80" y="-69"/>
      <point x="67" y="-56"/>
      <point x="50" y="-56" type="curve" smooth="yes"/>
      <point x="33" y="-56"/>
      <point x="20" y="-69"/>
      <point x="20" y="-86" type="curve" smooth="yes"/>
      <point x="20" y="-103"/>
      <point x="33" y="-116"/>
      <point x="50" y="-116" type="curve" smooth="yes"/>
      <point x="67" y="-116"/>
      <point x="80" y="-103"/>
    </contour>
    <contour>
      <point x="156" y="-86" type="curve" smooth="yes"/>
      <point x="156" y="-69"/>
      <point x="143" y="-56"/>
      <point x="126" y="-56" type="curve" smooth="yes"/>
      <point x="109" y="-56"/>
      <point x="96" y="-69"/>
      <point x="96" y="-86" type="curve" smooth="yes"/>
      <point x="96" y="-103"/>
      <point x="109" y="-116"/>
      <point x="126" y="-116" type="curve" smooth="yes"/>
      <point x="143" y="-116"/>
      <point x="156" y="-103"/>
    </contour>
    <contour>
      <point x="88" y="-182" type="curve" smooth="yes"/>
      <point x="105" y="-182"/>
      <point x="118" y="-169"/>
      <point x="118" y="-152" type="curve" smooth="yes"/>
      <point x="118" y="-135"/>
      <point x="105" y="-122"/>
      <point x="88" y="-122" type="curve" smooth="yes"/>
      <point x="71" y="-122"/>
      <point x="58" y="-135"/>
      <point x="58" y="-152" type="curve" smooth="yes"/>
      <point x="58" y="-169"/>
      <point x="71" y="-182"/>
    </contour>
  </outline>
</glyph>
<glyph name="patah-hb" format="2">
  <unicode hex="05B7"/>
  <anchor x="111" y="0" name="_bottom"/>
  <outline>
    <contour>
      <point x="30" y="-98" type="line"/>
      <point x="187" y="-98" type="line"/>
      <point x="187" y="-56" type="line"/>
      <point x="30" y="-56" type="line"/>
    </contour>
  </outline>
</glyph>
<glyph name="qamats-hb" format="2">
  <unicode hex="05B8"/>
  <anchor x="93" y="0" name="_bottom"/>
  <outline>
    <contour>
      <point x="20" y="-98" type="line"/>
      <point x="177" y="-98" type="line"/>
      <point x="177" y="-56" type="line"/>
      <point x="20" y="-56" type="line"/>
    </contour>
    <contour>
      <point x="75" y="-156" type="line"/>
      <point x="122" y="-156" type="line"/>
      <point x="122" y="-83" type="line"/>
      <point x="75" y="-83" type="line"/>
    </contour>
  </outline>
</glyph>
<glyph name="holam-hb" format="2">
  <unicode hex="05B9"/>
  <anchor x="75" y="600" name="_topleft"/>
  <outline>
    <contour>
      <point x="50" y="630" type="curve" smooth="yes"/>
      <point x="67" y="630"/>
      <point x="80" y="644"/>
      <point x="80" y="660" type="curve" smooth="yes"/>
      <point x="80" y="677"/>
      <point x="67" y="690"/>
      <point x="50" y="690" type="curve" smooth="yes"/>
      <point x="33" y="690"/>
      <point x="20" y="677"/>
      <point x="20" y="660" type="curve" smooth="yes"/>
      <point x="20" y="644"/>
      <point x="33" y="630"/>
    </contour>
  </outline>
</glyph>
<glyph name="holamhaser-hb" format="2">
  <unicode hex="05BA"/>
  <anchor x="109" y="600" name="_topleft"/>
  <outline>
    <contour>
      <point x="50" y="630" type="curve" smooth="yes"/>
      <point x="67" y="630"/>
      <point x="80" y="644"/>
      <point x="80" y="660" type="curve" smooth="yes"/>
      <point x="80" y="677"/>
      <point x="67" y="690"/>
      <point x="50" y="690" type="curve" smooth="yes"/>
      <point x="33" y="690"/>
      <point x="20" y="677"/>
      <point x="20" y="660" type="curve" smooth="yes"/>
      <point x="20" y="644"/>
      <point x="33" y="630"/>
    </contour>
  </outline>
</glyph>
<glyph name="qubuts-hb" format="2">
  <unicode hex="05BB"/>
  <anchor x="120" y="0" name="_bottom"/>
  <outline>
    <contour>
      <point x="80" y="-76" type="curve" smooth="yes"/>
      <point x="80" y="-59"/>
      <point x="67" y="-46"/>
      <point x="50" y="-46" type="curve" smooth="yes"/>
      <point x="33" y="-46"/>
      <point x="20" y="-59"/>
      <point x="20" y="-76" type="curve" smooth="yes"/>
      <point x="20" y="-93"/>
      <point x="33" y="-106"/>
      <point x="50" y="-106" type="curve" smooth="yes"/>
      <point x="67" y="-106"/>
      <point x="80" y="-93"/>
    </contour>
    <contour>
      <point x="110" y="-156" type="curve" smooth="yes"/>
      <point x="127" y="-156"/>
      <point x="140" y="-143"/>
      <point x="140" y="-126" type="curve" smooth="yes"/>
      <point x="140" y="-109"/>
      <point x="127" y="-96"/>
      <point x="110" y="-96" type="curve" smooth="yes"/>
      <point x="93" y="-96"/>
      <point x="80" y="-109"/>
      <point x="80" y="-126" type="curve" smooth="yes"/>
      <point x="80" y="-143"/>
      <point x="93" y="-156"/>
    </contour>
    <contour>
      <point x="170" y="-206" type="curve" smooth="yes"/>
      <point x="187" y="-206"/>
      <point x="200" y="-193"/>
      <point x="200" y="-176" type="curve" smooth="yes"/>
      <point x="200" y="-159"/>
      <point x="187" y="-146"/>
      <point x="170" y="-146" type="curve" smooth="yes"/>
      <point x="153" y="-146"/>
      <point x="140" y="-159"/>
      <point x="140" y="-176" type="curve" smooth="yes"/>
      <point x="140" y="-193"/>
      <point x="153" y="-206"/>
    </contour>
  </outline>
</glyph>
<glyph name="dagesh-hb" format="2">
  <unicode hex="05BC"/>
  <anchor x="50" y="300" name="_center"/>
  <outline>
    <contour>
      <point x="50" y="270" type="curve" smooth="yes"/>
      <point x="67" y="270"/>
      <point x="80" y="283"/>
      <point x="80" y="300" type="curve" smooth="yes"/>
      <point x="80" y="317"/>
      <point x="67" y="330"/>
      <point x="50" y="330" type="curve" smooth="yes"/>
      <point x="33" y="330"/>
      <point x="20" y="317"/>
      <point x="20" y="300" type="curve" smooth="yes"/>
      <point x="20" y="283"/>
      <point x="33" y="270"/>
    </contour>
  </outline>
</glyph>
<glyph name="maqaf-hb" format="2">
  <advance width="260"/>
  <unicode hex="05BE"/>
  <note>
maqaf
</note>
  <outline>
    <contour>
      <point x="10" y="507" type="line"/>
      <point x="250" y="507" type="line"/>
      <point x="250" y="600" type="line"/>
      <point x="10" y="600" type="line"/>
    </contour>
  </outline>
</glyph>
<glyph name="rafe-hb" format="2">
  <unicode hex="05BF"/>
  <anchor x="132" y="600" name="_top"/>
  <outline>
    <contour>
      <point x="50" y="660" type="line"/>
      <point x="207" y="660" type="line"/>
      <point x="207" y="702" type="line"/>
      <point x="50" y="702" type="line"/>
    </contour>
  </outline>
</glyph>
<glyph name="shindot-hb" format="2">
  <unicode hex="05C1"/>
  <anchor x="63" y="600" name="_shin"/>
  <anchor x="53" y="500" name="_topright"/>
  <outline>
    <contour>
      <point x="50" y="630" type="curve" smooth="yes"/>
      <point x="67" y="630"/>
      <point x="80" y="644"/>
      <point x="80" y="660" type="curve" smooth="yes"/>
      <point x="80" y="677"/>
      <point x="67" y="690"/>
      <point x="50" y="690" type="curve" smooth="yes"/>
      <point x="33" y="690"/>
      <point x="20" y="677"/>
      <point x="20" y="660" type="curve" smooth="yes"/>
      <point x="20" y="644"/>
      <point x="33" y="630"/>
    </contour>
  </outline>
</glyph>
<glyph name="qamatsqatan-hb" format="2">
  <unicode hex="05C7"/>
  <anchor x="93" y="0" name="_bottom"/>
  <outline>
    <contour>
      <point x="20" y="-98" type="line"/>
      <point x="157" y="-98" type="line"/>
      <point x="157" y="-66" type="line"/>
      <point x="20" y="-66" type="line"/>
    </contour>
    <contour>
      <point x="75" y="-146" type="line"/>
      <point x="102" y="-146" type="line"/>
      <point x="102" y="-83" type="line"/>
      <point x="75" y="-83" type="line"/>
    </contour>
  </outline>
</glyph>
<glyph name="alef-hb" format="2">
  <advance width="372"/>
  <unicode hex="05D0"/>
  <note>
alefhebrew
</note>
  <anchor x="198" y="0" name="bottom"/>
  <anchor x="89" y="397" name="center"/>
  <anchor x="249" y="678" name="top"/>
  <anchor x="-74" y="600" name="topleft"/>
  <outline>
    <contour>
      <point x="207" y="263" type="line"/>
      <point x="256" y="263" type="line" smooth="yes"/>
      <point x="311" y="263"/>
      <point x="350" y="302"/>
      <point x="350" y="356" type="curve" smooth="yes"/>
      <point x="350" y="600" type="line"/>
      <point x="260" y="600" type="line"/>
      <point x="260" y="361" type="line" smooth="yes"/>
      <point x="260" y="357"/>
      <point x="259" y="356"/>
      <point x="255" y="356" type="curve" smooth="yes"/>
      <point x="207" y="356" type="line"/>
    </contour>
    <contour>
      <point x="30" y="0" type="line"/>
      <point x="125" y="0" type="line"/>
      <point x="125" y="507" type="line"/>
      <point x="117" y="507" type="line"/>
      <point x="257" y="0" type="line"/>
      <point x="352" y="0" type="line"/>
      <point x="182" y="600" type="line"/>
      <point x="30" y="600" type="line"/>
    </contour>
    <contour>
      <point x="182" y="600" type="line"/>
      <point x="30" y="600" type="line"/>
      <point x="10" y="507" type="line"/>
      <point x="182" y="507" type="line"/>
    </contour>
    <contour>
      <point x="350" y="600" type="line"/>
      <point x="248" y="600" type="line"/>
      <point x="228" y="507" type="line"/>
      <point x="350" y="507" type="line"/>
    </contour>
  </outline>
</glyph>
<glyph name="bet-hb" format="2">
  <advance width="283"/>
  <unicode hex="05D1"/>
  <note>
bethebrew
</note>
  <guideline x="34" y="439" angle="90"/>
  <anchor x="147" y="0" name="bottom"/>
  <anchor x="73" y="300" name="center"/>
  <anchor x="183" y="600" name="top"/>
  <anchor x="33" y="600" name="topleft"/>
  <outline>
    <contour>
      <point x="148" y="600" type="line"/>
      <point x="148" y="0" type="line"/>
      <point x="243" y="0" type="line"/>
      <point x="243" y="600" type="line"/>
    </contour>
    <contour>
      <point x="243" y="600" type="line"/>
      <point x="30" y="600" type="line"/>
      <point x="10" y="507" type="line"/>
      <point x="243" y="507" type="line"/>
    </contour>
    <contour>
      <point x="283" y="93" type="line"/>
      <point x="10" y="93" type="line"/>
      <point x="10" y="0" type="line"/>
      <point x="283" y="0" type="line"/>
    </contour>
  </outline>
</glyph>
<glyph name="gimel-hb" format="2">
  <advance width="244"/>
  <unicode hex="05D2"/>
  <note>
gimelhebrew
</note>
  <anchor x="117" y="0" name="bottom"/>
  <anchor x="73" y="420" name="center"/>
  <anchor x="130" y="600" name="top"/>
  <anchor x="99" y="600" name="topleft"/>
  <outline>
    <contour>
      <point x="224" y="600" type="line"/>
      <point x="48" y="600" type="line"/>
      <point x="28" y="507" type="line"/>
      <point x="224" y="507" type="line"/>
    </contour>
    <contour>
      <point x="130" y="600" type="line"/>
      <point x="130" y="0" type="line"/>
      <point x="224" y="0" type="line"/>
      <point x="224" y="600" type="line"/>
    </contour>
    <contour>
      <point x="224" y="252" type="line"/>
      <point x="224" y="345" type="line"/>
      <point x="104" y="345" type="line" smooth="yes"/>
      <point x="49" y="345"/>
      <point x="10" y="305"/>
      <point x="10" y="252" type="curve" smooth="yes"/>
      <point x="10" y="0" type="line"/>
      <point x="104" y="0" type="line"/>
      <point x="104" y="247" type="line" smooth="yes"/>
      <point x="104" y="251"/>
      <point x="105" y="252"/>
      <point x="109" y="252" type="curve" smooth="yes"/>
    </contour>
  </outline>
</glyph>
<glyph name="dalet-hb" format="2">
  <advance width="320"/>
  <unicode hex="05D3"/>
  <note>
dalethebrew
</note>
  <anchor x="206" y="0" name="bottom"/>
  <anchor x="90" y="300" name="center"/>
  <anchor x="317" y="600" name="top"/>
  <anchor x="56" y="600" name="topleft"/>
  <outline>
    <contour>
      <point x="156" y="0" type="line"/>
      <point x="251" y="0" type="line"/>
      <point x="251" y="530" type="line"/>
      <point x="251" y="530" type="line"/>
      <point x="194" y="530"/>
      <point x="156" y="493"/>
      <point x="156" y="437" type="curve" smooth="yes"/>
    </contour>
    <contour>
      <point x="20" y="507" type="line"/>
      <point x="300" y="507" type="line"/>
      <point x="300" y="600" type="line"/>
      <point x="40" y="600" type="line"/>
    </contour>
  </outline>
</glyph>
<glyph name="he-hb" format="2">
  <advance width="283"/>
  <unicode hex="05D4"/>
  <note>
hehebrew
</note>
  <anchor x="145" y="0" name="bottom"/>
  <anchor x="142" y="300" name="center"/>
  <anchor x="159" y="600" name="top"/>
  <anchor x="104" y="600" name="topleft"/>
  <outline>
    <contour>
      <point x="168" y="0" type="line"/>
      <point x="263" y="0" type="line"/>
      <point x="263" y="600" type="line"/>
      <point x="168" y="600" type="line"/>
    </contour>
    <contour>
      <point x="20" y="0" type="line"/>
      <point x="115" y="0" type="line"/>
      <point x="115" y="454" type="line"/>
      <point x="20" y="454" type="line"/>
    </contour>
    <contour>
      <point x="20" y="507" type="line"/>
      <point x="263" y="507" type="line"/>
      <point x="263" y="600" type="line"/>
      <point x="40" y="600" type="line"/>
    </contour>
  </outline>
</glyph>
<glyph name="vav-hb" format="2">
  <advance width="161"/>
  <unicode hex="05D5"/>
  <note>
vavhebrew
</note>
  <anchor x="91" y="0" name="bottom"/>
  <anchor x="16" y="0" name="bottomleft"/>
  <anchor x="9" y="300" name="center"/>
  <anchor x="40" y="600" name="top"/>
  <anchor x="104" y="600" name="topleft"/>
  <outline>
    <contour>
      <point x="46" y="600" type="line"/>
      <point x="46" y="0" type="line"/>
      <point x="141" y="0" type="line"/>
      <point x="141" y="600" type="line"/>
    </contour>
    <contour>
      <point x="141" y="600" type="line"/>
      <point x="30" y="600" type="line"/>
      <point x="10" y="507" type="line"/>
      <point x="141" y="507" type="line"/>
    </contour>
  </outline>
</glyph>
<glyph name="zayin-hb" format="2">
  <advance width="205"/>
  <unicode hex="05D6"/>
  <note>
zayinhebrew
</note>
  <anchor x="108" y="0" name="bottom"/>
  <anchor x="23" y="300" name="center"/>
  <anchor x="190" y="600" name="top"/>
  <anchor x="-4" y="600" name="topleft"/>
  <outline>
    <contour>
      <point x="59" y="530" type="curve" smooth="yes"/>
      <point x="58" y="530" type="line"/>
      <point x="58" y="0" type="line"/>
      <point x="154" y="0" type="line"/>
      <point x="154" y="437" type="line" smooth="yes"/>
      <point x="154" y="493"/>
      <point x="116" y="530"/>
    </contour>
    <contour>
      <point x="185" y="600" type="line"/>
      <point x="30" y="600" type="line"/>
      <point x="10" y="507" type="line"/>
      <point x="185" y="507" type="line"/>
    </contour>
  </outline>
</glyph>
<glyph name="het-hb" format="2">
  <advance width="313"/>
  <unicode hex="05D7"/>
  <note>
hethebrew
</note>
  <anchor x="169" y="0" name="bottom"/>
  <anchor x="168" y="300" name="center"/>
  <anchor x="269" y="600" name="top"/>
  <anchor x="-49" y="600" name="topleft"/>
  <outline>
    <contour>
      <point x="198" y="600" type="line"/>
      <point x="198" y="0" type="line"/>
      <point x="293" y="0" type="line"/>
      <point x="293" y="600" type="line"/>
    </contour>
    <contour>
      <point x="43" y="600" type="line"/>
      <point x="43" y="0" type="line"/>
      <point x="138" y="0" type="line"/>
      <point x="138" y="600" type="line"/>
    </contour>
    <contour>
      <point x="293" y="600" type="line"/>
      <point x="35" y="600" type="line"/>
      <point x="15" y="507" type="line"/>
      <point x="293" y="507" type="line"/>
    </contour>
  </outline>
</glyph>
<glyph name="tet-hb" format="2">
  <advance width="326"/>
  <unicode hex="05D8"/>
  <note>
tethebrew
</note>
  <anchor x="177" y="0" name="bottom"/>
  <anchor x="170" y="300" name="center"/>
  <anchor x="250" y="600" name="top"/>
  <anchor x="-82" y="600" name="topleft"/>
  <outline>
    <contour>
      <point x="34" y="600" type="line"/>
      <point x="34" y="0" type="line"/>
      <point x="129" y="0" type="line"/>
      <point x="129" y="600" type="line"/>
    </contour>
    <contour>
      <point x="129" y="600" type="line"/>
      <point x="30" y="600" type="line"/>
      <point x="10" y="507" type="line"/>
      <point x="129" y="507" type="line"/>
    </contour>
    <contour>
      <point x="306" y="600" type="line"/>
      <point x="174" y="600" type="line"/>
      <point x="154" y="507" type="line"/>
      <point x="306" y="507" type="line"/>
    </contour>
    <contour>
      <point x="306" y="93" type="curve" smooth="yes"/>
      <point x="306" y="600" type="line"/>
      <point x="211" y="600" type="line"/>
      <point x="211" y="98" type="line" smooth="yes"/>
      <point x="211" y="94"/>
      <point x="210" y="93"/>
      <point x="206" y="93" type="curve" smooth="yes"/>
      <point x="34" y="93" type="line"/>
      <point x="34" y="0" type="line"/>
      <point x="212" y="0" type="line" smooth="yes"/>
      <point x="268" y="0"/>
      <point x="306" y="37"/>
    </contour>
  </outline>
</glyph>
<glyph name="yod-hb" format="2">
  <advance width="161"/>
  <unicode hex="05D9"/>
  <note>
yodhebrew
</note>
  <anchor x="83" y="0" name="bottom"/>
  <anchor x="18" y="379" name="center"/>
  <anchor x="93" y="600" name="top"/>
  <anchor x="94" y="600" name="topleft"/>
  <outline>
    <contour>
      <point x="46" y="220" type="line"/>
      <point x="141" y="220" type="line"/>
      <point x="141" y="600" type="line"/>
      <point x="46" y="600" type="line"/>
    </contour>
    <contour>
      <point x="10" y="507" type="line"/>
      <point x="141" y="507" type="line"/>
      <point x="141" y="600" type="line"/>
      <point x="30" y="600" type="line"/>
    </contour>
  </outline>
</glyph>
<glyph name="finalkaf-hb" format="2">
  <advance width="279"/>
  <unicode hex="05DA"/>
  <note>
finalkafhebrew
</note>
  <anchor x="89" y="300" name="bottom"/>
  <anchor x="82" y="362" name="center"/>
  <anchor x="152" y="600" name="top"/>
  <anchor x="-57" y="600" name="topleft"/>
  <outline>
    <contour>
      <point x="164" y="600" type="line"/>
      <point x="164" y="-80" type="line"/>
      <point x="259" y="-80" type="line"/>
      <point x="259" y="600" type="line"/>
    </contour>
    <contour>
      <point x="259" y="600" type="line"/>
      <point x="40" y="600" type="line"/>
      <point x="20" y="507" type="line"/>
      <point x="259" y="507" type="line"/>
    </contour>
  </outline>
</glyph>
<glyph name="kaf-hb" format="2">
  <advance width="267"/>
  <unicode hex="05DB"/>
  <note>
kafhebrew
</note>
  <anchor x="155" y="0" name="bottom"/>
  <anchor x="83" y="300" name="center"/>
  <anchor x="147" y="600" name="top"/>
  <anchor x="-39" y="600" name="topleft"/>
  <outline>
    <contour>
      <point x="20" y="0" type="line"/>
      <point x="153" y="0" type="line" smooth="yes"/>
      <point x="209" y="0"/>
      <point x="247" y="37"/>
      <point x="247" y="93" type="curve" smooth="yes"/>
      <point x="247" y="600" type="line"/>
      <point x="152" y="600" type="line"/>
      <point x="152" y="98" type="line" smooth="yes"/>
      <point x="152" y="94"/>
      <point x="151" y="93"/>
      <point x="147" y="93" type="curve" smooth="yes"/>
      <point x="20" y="93" type="line"/>
    </contour>
    <contour>
      <point x="20" y="507" type="line"/>
      <point x="247" y="507" type="line"/>
      <point x="247" y="600" type="line"/>
      <point x="40" y="600" type="line"/>
    </contour>
  </outline>
</glyph>
